STARTFONT 2.1
COMMENT Exported by Fony v1.4.7
FONT -Adobe-Helvetica-Medium-R-Normal--20-140-100-100-P-100-ISO10646-1
SIZE 114 100 100
FONTBOUNDINGBOX 22 29 -2 -7
STARTPROPERTIES 26
COPYRIGHT "Copyright (c) 1984, 1987 Adobe Systems Incorporated. All Rig"
PIXEL_SIZE 20
POINT_SIZE 140
RESOLUTION_X 100
RESOLUTION_Y 100
FONT_ASCENT 16
FONT_DESCENT 4
DEFAULT_CHAR 0
ENDPROPERTIES
CHARS 256
STARTCHAR 000
ENCODING 0
SWIDTH 1008 0
DWIDTH 14 0
BBX 11 13 1 16
BITMAP
AAA0
0000
8020
0000
8020
0000
8020
0000
8020
0000
8020
0000
AAA0
ENDCHAR
STARTCHAR 001
ENCODING 1
SWIDTH 72 0
DWIDTH 1 0
BBX 0 0 0 0
BITMAP
ENDCHAR
STARTCHAR 002
ENCODING 2
SWIDTH 72 0
DWIDTH 1 0
BBX 0 0 0 0
BITMAP
ENDCHAR
STARTCHAR 003
ENCODING 3
SWIDTH 72 0
DWIDTH 1 0
BBX 0 0 0 0
BITMAP
ENDCHAR
STARTCHAR 004
ENCODING 4
SWIDTH 72 0
DWIDTH 1 0
BBX 0 0 0 0
BITMAP
ENDCHAR
STARTCHAR 005
ENCODING 5
SWIDTH 72 0
DWIDTH 1 0
BBX 0 0 0 0
BITMAP
ENDCHAR
STARTCHAR 006
ENCODING 6
SWIDTH 72 0
DWIDTH 1 0
BBX 0 0 0 0
BITMAP
ENDCHAR
STARTCHAR 007
ENCODING 7
SWIDTH 72 0
DWIDTH 1 0
BBX 0 0 0 0
BITMAP
ENDCHAR
STARTCHAR 008
ENCODING 8
SWIDTH 72 0
DWIDTH 1 0
BBX 0 0 0 0
BITMAP
ENDCHAR
STARTCHAR 009
ENCODING 9
SWIDTH 72 0
DWIDTH 1 0
BBX 0 0 0 0
BITMAP
ENDCHAR
STARTCHAR 010
ENCODING 10
SWIDTH 72 0
DWIDTH 1 0
BBX 0 0 0 0
BITMAP
ENDCHAR
STARTCHAR 011
ENCODING 11
SWIDTH 72 0
DWIDTH 1 0
BBX 0 0 0 0
BITMAP
ENDCHAR
STARTCHAR 012
ENCODING 12
SWIDTH 72 0
DWIDTH 1 0
BBX 0 0 0 0
BITMAP
ENDCHAR
STARTCHAR 013
ENCODING 13
SWIDTH 72 0
DWIDTH 1 0
BBX 0 0 0 0
BITMAP
ENDCHAR
STARTCHAR 014
ENCODING 14
SWIDTH 72 0
DWIDTH 1 0
BBX 0 0 0 0
BITMAP
ENDCHAR
STARTCHAR 015
ENCODING 15
SWIDTH 72 0
DWIDTH 1 0
BBX 0 0 0 0
BITMAP
ENDCHAR
STARTCHAR 016
ENCODING 16
SWIDTH 72 0
DWIDTH 1 0
BBX 0 0 0 0
BITMAP
ENDCHAR
STARTCHAR 017
ENCODING 17
SWIDTH 72 0
DWIDTH 1 0
BBX 0 0 0 0
BITMAP
ENDCHAR
STARTCHAR 018
ENCODING 18
SWIDTH 72 0
DWIDTH 1 0
BBX 0 0 0 0
BITMAP
ENDCHAR
STARTCHAR 019
ENCODING 19
SWIDTH 72 0
DWIDTH 1 0
BBX 0 0 0 0
BITMAP
ENDCHAR
STARTCHAR 020
ENCODING 20
SWIDTH 72 0
DWIDTH 1 0
BBX 0 0 0 0
BITMAP
ENDCHAR
STARTCHAR 021
ENCODING 21
SWIDTH 72 0
DWIDTH 1 0
BBX 0 0 0 0
BITMAP
ENDCHAR
STARTCHAR 022
ENCODING 22
SWIDTH 72 0
DWIDTH 1 0
BBX 0 0 0 0
BITMAP
ENDCHAR
STARTCHAR 023
ENCODING 23
SWIDTH 72 0
DWIDTH 1 0
BBX 0 0 0 0
BITMAP
ENDCHAR
STARTCHAR 024
ENCODING 24
SWIDTH 72 0
DWIDTH 1 0
BBX 0 0 0 0
BITMAP
ENDCHAR
STARTCHAR 025
ENCODING 25
SWIDTH 72 0
DWIDTH 1 0
BBX 0 0 0 0
BITMAP
ENDCHAR
STARTCHAR 026
ENCODING 26
SWIDTH 72 0
DWIDTH 1 0
BBX 0 0 0 0
BITMAP
ENDCHAR
STARTCHAR 027
ENCODING 27
SWIDTH 72 0
DWIDTH 1 0
BBX 0 0 0 0
BITMAP
ENDCHAR
STARTCHAR 028
ENCODING 28
SWIDTH 72 0
DWIDTH 1 0
BBX 0 0 0 0
BITMAP
ENDCHAR
STARTCHAR 029
ENCODING 29
SWIDTH 72 0
DWIDTH 1 0
BBX 0 0 0 0
BITMAP
ENDCHAR
STARTCHAR 030
ENCODING 30
SWIDTH 72 0
DWIDTH 1 0
BBX 0 0 0 0
BITMAP
ENDCHAR
STARTCHAR 031
ENCODING 31
SWIDTH 72 0
DWIDTH 1 0
BBX 0 0 0 0
BITMAP
ENDCHAR
STARTCHAR 032
ENCODING 32
SWIDTH 360 0
DWIDTH 5 0
BBX 0 0 0 0
BITMAP
ENDCHAR
STARTCHAR 033
ENCODING 33
SWIDTH 432 0
DWIDTH 6 0
BBX 2 14 2 0
BITMAP
C0
C0
C0
C0
C0
C0
C0
C0
80
80
00
00
C0
C0
ENDCHAR
STARTCHAR 034
ENCODING 34
SWIDTH 360 0
DWIDTH 5 0
BBX 5 5 0 9
BITMAP
D8
D8
D8
D8
D8
ENDCHAR
STARTCHAR 035
ENCODING 35
SWIDTH 720 0
DWIDTH 10 0
BBX 10 13 0 0
BITMAP
0900
0900
0900
7FC0
7FC0
1200
1200
1200
FF80
FF80
2400
2400
2400
ENDCHAR
STARTCHAR 036
ENCODING 36
SWIDTH 720 0
DWIDTH 10 0
BBX 9 16 1 -2
BITMAP
0800
3E00
7F00
CB00
C800
E800
7800
3E00
0F00
0980
C980
EB80
7F00
3E00
0800
0800
ENDCHAR
STARTCHAR 037
ENCODING 37
SWIDTH 1152 0
DWIDTH 16 0
BBX 14 13 1 0
BITMAP
7860
CCC0
CCC0
CD80
CD80
7B00
0300
0678
06CC
0CCC
0CCC
18CC
1878
ENDCHAR
STARTCHAR 038
ENCODING 38
SWIDTH 936 0
DWIDTH 13 0
BBX 12 13 1 0
BITMAP
3C00
7E00
6600
6600
3C00
7C00
EEC0
C6C0
C3C0
C380
E7C0
7EE0
3C70
ENDCHAR
STARTCHAR 039
ENCODING 39
SWIDTH 216 0
DWIDTH 3 0
BBX 1 5 1 9
BITMAP
80
80
80
80
80
ENDCHAR
STARTCHAR 040
ENCODING 40
SWIDTH 432 0
DWIDTH 6 0
BBX 4 18 0 -4
BITMAP
10
30
60
60
C0
C0
C0
C0
C0
C0
C0
C0
C0
C0
60
60
30
10
ENDCHAR
STARTCHAR 041
ENCODING 41
SWIDTH 432 0
DWIDTH 6 0
BBX 4 18 1 -4
BITMAP
80
C0
60
60
30
30
30
30
30
30
30
30
30
30
60
60
C0
80
ENDCHAR
STARTCHAR 042
ENCODING 42
SWIDTH 504 0
DWIDTH 7 0
BBX 5 7 1 7
BITMAP
20
A8
F8
20
F8
A8
20
ENDCHAR
STARTCHAR 043
ENCODING 43
SWIDTH 720 0
DWIDTH 10 0
BBX 8 10 1 0
BITMAP
18
18
18
18
FF
FF
18
18
18
18
ENDCHAR
STARTCHAR 044
ENCODING 44
SWIDTH 360 0
DWIDTH 5 0
BBX 2 5 1 -3
BITMAP
C0
C0
40
40
80
ENDCHAR
STARTCHAR 045
ENCODING 45
SWIDTH 432 0
DWIDTH 6 0
BBX 5 1 0 5
BITMAP
F8
ENDCHAR
STARTCHAR 046
ENCODING 46
SWIDTH 360 0
DWIDTH 5 0
BBX 2 2 1 0
BITMAP
C0
C0
ENDCHAR
STARTCHAR 047
ENCODING 47
SWIDTH 360 0
DWIDTH 5 0
BBX 5 14 0 0
BITMAP
18
18
18
18
30
30
30
60
60
60
C0
C0
C0
C0
ENDCHAR
STARTCHAR 048
ENCODING 48
SWIDTH 720 0
DWIDTH 10 0
BBX 8 13 1 0
BITMAP
3C
7E
66
C3
C3
C3
C3
C3
C3
C3
66
7E
3C
ENDCHAR
STARTCHAR 049
ENCODING 49
SWIDTH 720 0
DWIDTH 10 0
BBX 5 13 2 0
BITMAP
18
F8
F8
18
18
18
18
18
18
18
18
18
18
ENDCHAR
STARTCHAR 050
ENCODING 50
SWIDTH 720 0
DWIDTH 10 0
BBX 8 13 1 0
BITMAP
3C
FE
C3
03
07
0E
1C
38
70
E0
C0
FF
FF
ENDCHAR
STARTCHAR 051
ENCODING 51
SWIDTH 720 0
DWIDTH 10 0
BBX 8 13 1 0
BITMAP
3E
7F
C3
C3
06
1C
1E
07
03
C3
C7
7E
3C
ENDCHAR
STARTCHAR 052
ENCODING 52
SWIDTH 720 0
DWIDTH 10 0
BBX 9 13 0 0
BITMAP
0300
0700
0F00
1B00
3300
3300
6300
C300
FF80
FF80
0300
0300
0300
ENDCHAR
STARTCHAR 053
ENCODING 53
SWIDTH 720 0
DWIDTH 10 0
BBX 8 13 1 0
BITMAP
FE
FE
C0
C0
FC
FE
C7
03
03
C3
C7
FE
7C
ENDCHAR
STARTCHAR 054
ENCODING 54
SWIDTH 720 0
DWIDTH 10 0
BBX 8 13 1 0
BITMAP
3C
7F
63
C0
C0
DC
FE
C3
C3
C3
E3
7E
3C
ENDCHAR
STARTCHAR 055
ENCODING 55
SWIDTH 720 0
DWIDTH 10 0
BBX 8 13 1 0
BITMAP
FF
FF
03
06
0C
0C
18
18
30
30
60
60
60
ENDCHAR
STARTCHAR 056
ENCODING 56
SWIDTH 720 0
DWIDTH 10 0
BBX 8 13 1 0
BITMAP
3C
7E
E7
C3
C3
66
7E
E7
C3
C3
E7
7E
3C
ENDCHAR
STARTCHAR 057
ENCODING 57
SWIDTH 720 0
DWIDTH 10 0
BBX 8 13 1 0
BITMAP
3C
7E
C7
C3
C3
C3
7F
3B
03
03
C6
FE
7C
ENDCHAR
STARTCHAR 058
ENCODING 58
SWIDTH 360 0
DWIDTH 5 0
BBX 2 10 1 0
BITMAP
C0
C0
00
00
00
00
00
00
C0
C0
ENDCHAR
STARTCHAR 059
ENCODING 59
SWIDTH 360 0
DWIDTH 5 0
BBX 2 13 1 -3
BITMAP
C0
C0
00
00
00
00
00
00
C0
C0
40
40
80
ENDCHAR
STARTCHAR 060
ENCODING 60
SWIDTH 720 0
DWIDTH 10 0
BBX 8 9 1 0
BITMAP
03
0F
3C
70
C0
70
3C
0F
03
ENDCHAR
STARTCHAR 061
ENCODING 61
SWIDTH 792 0
DWIDTH 11 0
BBX 7 5 2 2
BITMAP
FE
FE
00
FE
FE
ENDCHAR
STARTCHAR 062
ENCODING 62
SWIDTH 720 0
DWIDTH 10 0
BBX 8 9 1 0
BITMAP
C0
F0
3C
0E
03
0E
3C
F0
C0
ENDCHAR
STARTCHAR 063
ENCODING 63
SWIDTH 720 0
DWIDTH 10 0
BBX 7 14 1 0
BITMAP
7C
FE
C6
C6
0E
1C
38
30
30
30
00
00
30
30
ENDCHAR
STARTCHAR 064
ENCODING 64
SWIDTH 1296 0
DWIDTH 18 0
BBX 16 17 1 -3
BITMAP
03F0
0FFC
1C0E
3006
63D3
6773
C633
CC63
CC66
CC66
CCCC
CFF8
6770
7000
3800
1FF0
07E0
ENDCHAR
STARTCHAR 065
ENCODING 65
SWIDTH 936 0
DWIDTH 13 0
BBX 12 14 0 0
BITMAP
0600
0600
0F00
0F00
1980
1980
30C0
30C0
3FC0
7FE0
6060
6060
C030
C030
ENDCHAR
STARTCHAR 066
ENCODING 66
SWIDTH 936 0
DWIDTH 13 0
BBX 11 14 1 0
BITMAP
FF00
FF80
C1C0
C0C0
C0C0
C180
FF80
FFC0
C0E0
C060
C060
C0E0
FFC0
FF80
ENDCHAR
STARTCHAR 067
ENCODING 67
SWIDTH 1008 0
DWIDTH 14 0
BBX 12 14 1 0
BITMAP
0F80
3FE0
7070
6030
E000
C000
C000
C000
C000
E000
6030
7070
3FE0
0F80
ENDCHAR
STARTCHAR 068
ENCODING 68
SWIDTH 1008 0
DWIDTH 14 0
BBX 12 14 1 0
BITMAP
FF80
FFC0
C0E0
C060
C030
C030
C030
C030
C030
C030
C060
C0E0
FFC0
FF80
ENDCHAR
STARTCHAR 069
ENCODING 69
SWIDTH 936 0
DWIDTH 13 0
BBX 10 14 2 0
BITMAP
FFC0
FFC0
C000
C000
C000
C000
FF80
FF80
C000
C000
C000
C000
FFC0
FFC0
ENDCHAR
STARTCHAR 070
ENCODING 70
SWIDTH 864 0
DWIDTH 12 0
BBX 9 14 2 0
BITMAP
FF80
FF80
C000
C000
C000
C000
FF00
FF00
C000
C000
C000
C000
C000
C000
ENDCHAR
STARTCHAR 071
ENCODING 71
SWIDTH 1080 0
DWIDTH 15 0
BBX 13 14 1 0
BITMAP
0FC0
3FF0
7038
6018
E018
C000
C000
C0F8
C0F8
E018
6018
7038
3FF8
0FD8
ENDCHAR
STARTCHAR 072
ENCODING 72
SWIDTH 1008 0
DWIDTH 14 0
BBX 11 14 1 0
BITMAP
C060
C060
C060
C060
C060
C060
FFE0
FFE0
C060
C060
C060
C060
C060
C060
ENDCHAR
STARTCHAR 073
ENCODING 73
SWIDTH 432 0
DWIDTH 6 0
BBX 2 14 2 0
BITMAP
C0
C0
C0
C0
C0
C0
C0
C0
C0
C0
C0
C0
C0
C0
ENDCHAR
STARTCHAR 074
ENCODING 74
SWIDTH 720 0
DWIDTH 10 0
BBX 8 14 0 0
BITMAP
03
03
03
03
03
03
03
03
03
C3
C3
E7
7E
3C
ENDCHAR
STARTCHAR 075
ENCODING 75
SWIDTH 1008 0
DWIDTH 14 0
BBX 12 14 2 0
BITMAP
C0E0
C1C0
C380
C700
CE00
DC00
F800
FC00
CE00
C700
C380
C1C0
C0E0
C070
ENDCHAR
STARTCHAR 076
ENCODING 76
SWIDTH 792 0
DWIDTH 11 0
BBX 9 14 1 0
BITMAP
C000
C000
C000
C000
C000
C000
C000
C000
C000
C000
C000
C000
FF80
FF80
ENDCHAR
STARTCHAR 077
ENCODING 77
SWIDTH 1152 0
DWIDTH 16 0
BBX 14 14 1 0
BITMAP
C00C
C00C
E01C
E01C
F03C
F03C
D86C
D86C
CCCC
CCCC
C48C
C78C
C30C
C30C
ENDCHAR
STARTCHAR 078
ENCODING 78
SWIDTH 1008 0
DWIDTH 14 0
BBX 11 14 1 0
BITMAP
C060
E060
F060
F060
D860
CC60
CC60
C660
C660
C360
C1E0
C1E0
C0E0
C060
ENDCHAR
STARTCHAR 079
ENCODING 79
SWIDTH 1080 0
DWIDTH 15 0
BBX 13 14 1 0
BITMAP
0F80
3FE0
7070
6030
E038
C018
C018
C018
C018
E038
6030
7070
3FE0
0F80
ENDCHAR
STARTCHAR 080
ENCODING 80
SWIDTH 936 0
DWIDTH 13 0
BBX 10 14 2 0
BITMAP
FF00
FF80
C1C0
C0C0
C0C0
C1C0
FF80
FF00
C000
C000
C000
C000
C000
C000
ENDCHAR
STARTCHAR 081
ENCODING 81
SWIDTH 1080 0
DWIDTH 15 0
BBX 13 15 1 -1
BITMAP
0F80
3FE0
7070
6030
E038
C018
C018
C018
C018
E1B8
61B0
70F0
3FE0
0FB0
0030
ENDCHAR
STARTCHAR 082
ENCODING 82
SWIDTH 1008 0
DWIDTH 14 0
BBX 11 14 1 0
BITMAP
FF80
FFC0
C0E0
C060
C060
C0E0
FFC0
FF80
C0C0
C0C0
C060
C060
C060
C060
ENDCHAR
STARTCHAR 083
ENCODING 83
SWIDTH 936 0
DWIDTH 13 0
BBX 10 14 1 0
BITMAP
1E00
7F80
E1C0
C0C0
E000
7C00
1F00
0380
01C0
00C0
C0C0
E1C0
7F80
3F00
ENDCHAR
STARTCHAR 084
ENCODING 84
SWIDTH 864 0
DWIDTH 12 0
BBX 10 14 1 0
BITMAP
FFC0
FFC0
0C00
0C00
0C00
0C00
0C00
0C00
0C00
0C00
0C00
0C00
0C00
0C00
ENDCHAR
STARTCHAR 085
ENCODING 85
SWIDTH 1008 0
DWIDTH 14 0
BBX 11 14 1 0
BITMAP
C060
C060
C060
C060
C060
C060
C060
C060
C060
C060
C060
60C0
7FC0
1F00
ENDCHAR
STARTCHAR 086
ENCODING 86
SWIDTH 936 0
DWIDTH 13 0
BBX 12 14 0 0
BITMAP
C030
C030
6060
6060
6060
30C0
30C0
30C0
1980
1980
1980
0F00
0F00
0600
ENDCHAR
STARTCHAR 087
ENCODING 87
SWIDTH 1296 0
DWIDTH 18 0
BBX 16 14 1 0
BITMAP
C183
C183
C183
C3C3
63C6
6246
6666
6666
366C
366C
342C
1C38
1818
1818
ENDCHAR
STARTCHAR 088
ENCODING 88
SWIDTH 936 0
DWIDTH 13 0
BBX 11 14 1 0
BITMAP
C060
C060
60C0
71C0
3180
1B00
0E00
0E00
1B00
3180
71C0
60C0
C060
C060
ENDCHAR
STARTCHAR 089
ENCODING 89
SWIDTH 936 0
DWIDTH 13 0
BBX 12 14 0 0
BITMAP
C030
C030
6060
6060
30C0
39C0
1980
0F00
0600
0600
0600
0600
0600
0600
ENDCHAR
STARTCHAR 090
ENCODING 90
SWIDTH 864 0
DWIDTH 12 0
BBX 10 14 1 0
BITMAP
FFC0
FFC0
00C0
0180
0300
0600
0C00
1C00
1800
3000
6000
C000
FFC0
FFC0
ENDCHAR
STARTCHAR 091
ENCODING 91
SWIDTH 360 0
DWIDTH 5 0
BBX 4 18 0 -4
BITMAP
F0
F0
C0
C0
C0
C0
C0
C0
C0
C0
C0
C0
C0
C0
C0
C0
F0
F0
ENDCHAR
STARTCHAR 092
ENCODING 92
SWIDTH 360 0
DWIDTH 5 0
BBX 5 14 0 0
BITMAP
C0
C0
C0
60
60
60
30
30
30
30
18
18
18
18
ENDCHAR
STARTCHAR 093
ENCODING 93
SWIDTH 360 0
DWIDTH 5 0
BBX 4 18 0 -4
BITMAP
F0
F0
30
30
30
30
30
30
30
30
30
30
30
30
30
30
F0
F0
ENDCHAR
STARTCHAR 094
ENCODING 94
SWIDTH 648 0
DWIDTH 9 0
BBX 7 6 1 7
BITMAP
10
38
6C
6C
C6
C6
ENDCHAR
STARTCHAR 095
ENCODING 95
SWIDTH 792 0
DWIDTH 11 0
BBX 11 2 0 -4
BITMAP
FFE0
FFE0
ENDCHAR
STARTCHAR 096
ENCODING 96
SWIDTH 288 0
DWIDTH 4 0
BBX 4 3 0 11
BITMAP
C0
60
30
ENDCHAR
STARTCHAR 097
ENCODING 97
SWIDTH 792 0
DWIDTH 11 0
BBX 9 10 1 0
BITMAP
7E00
E700
C300
0700
7F00
E300
C300
C300
E780
7980
ENDCHAR
STARTCHAR 098
ENCODING 98
SWIDTH 792 0
DWIDTH 11 0
BBX 9 14 1 0
BITMAP
C000
C000
C000
C000
DE00
FF00
E300
C180
C180
C180
C180
E300
FF00
DE00
ENDCHAR
STARTCHAR 099
ENCODING 99
SWIDTH 720 0
DWIDTH 10 0
BBX 8 10 1 0
BITMAP
3E
7F
63
C0
C0
C0
C0
63
7F
3E
ENDCHAR
STARTCHAR 100
ENCODING 100
SWIDTH 792 0
DWIDTH 11 0
BBX 9 14 1 0
BITMAP
0180
0180
0180
0180
3D80
7F80
6380
C180
C180
C180
C180
6380
7F80
3D80
ENDCHAR
STARTCHAR 101
ENCODING 101
SWIDTH 720 0
DWIDTH 10 0
BBX 8 10 1 0
BITMAP
3C
7E
C3
C3
FF
C0
C0
E3
7F
3C
ENDCHAR
STARTCHAR 102
ENCODING 102
SWIDTH 432 0
DWIDTH 6 0
BBX 6 14 0 0
BITMAP
1C
3C
30
30
FC
FC
30
30
30
30
30
30
30
30
ENDCHAR
STARTCHAR 103
ENCODING 103
SWIDTH 792 0
DWIDTH 11 0
BBX 9 14 1 -4
BITMAP
3D80
7F80
6180
C180
C180
C180
C180
6380
7F80
3D80
0180
6300
7F00
1C00
ENDCHAR
STARTCHAR 104
ENCODING 104
SWIDTH 720 0
DWIDTH 10 0
BBX 8 14 1 0
BITMAP
C0
C0
C0
C0
DE
FF
E3
C3
C3
C3
C3
C3
C3
C3
ENDCHAR
STARTCHAR 105
ENCODING 105
SWIDTH 288 0
DWIDTH 4 0
BBX 2 14 1 0
BITMAP
C0
C0
00
00
C0
C0
C0
C0
C0
C0
C0
C0
C0
C0
ENDCHAR
STARTCHAR 106
ENCODING 106
SWIDTH 288 0
DWIDTH 4 0
BBX 3 18 0 -4
BITMAP
60
60
00
00
60
60
60
60
60
60
60
60
60
60
60
60
E0
C0
ENDCHAR
STARTCHAR 107
ENCODING 107
SWIDTH 648 0
DWIDTH 9 0
BBX 8 14 1 0
BITMAP
C0
C0
C0
C0
C6
CC
D8
F0
F8
D8
CC
CE
C6
C7
ENDCHAR
STARTCHAR 108
ENCODING 108
SWIDTH 288 0
DWIDTH 4 0
BBX 2 14 1 0
BITMAP
C0
C0
C0
C0
C0
C0
C0
C0
C0
C0
C0
C0
C0
C0
ENDCHAR
STARTCHAR 109
ENCODING 109
SWIDTH 1152 0
DWIDTH 16 0
BBX 14 10 1 0
BITMAP
DE78
FFFC
E38C
C30C
C30C
C30C
C30C
C30C
C30C
C30C
ENDCHAR
STARTCHAR 110
ENCODING 110
SWIDTH 720 0
DWIDTH 10 0
BBX 8 10 1 0
BITMAP
DE
FF
E3
C3
C3
C3
C3
C3
C3
C3
ENDCHAR
STARTCHAR 111
ENCODING 111
SWIDTH 792 0
DWIDTH 11 0
BBX 9 10 1 0
BITMAP
3E00
7F00
6300
C180
C180
C180
C180
6300
7F00
3E00
ENDCHAR
STARTCHAR 112
ENCODING 112
SWIDTH 792 0
DWIDTH 11 0
BBX 9 14 1 -4
BITMAP
DE00
FF00
E300
C180
C180
C180
C180
E300
FF00
DE00
C000
C000
C000
C000
ENDCHAR
STARTCHAR 113
ENCODING 113
SWIDTH 792 0
DWIDTH 11 0
BBX 9 14 1 -4
BITMAP
3D80
7F80
6380
C180
C180
C180
C180
6380
7F80
3D80
0180
0180
0180
0180
ENDCHAR
STARTCHAR 114
ENCODING 114
SWIDTH 432 0
DWIDTH 6 0
BBX 5 10 1 0
BITMAP
D8
D8
E0
C0
C0
C0
C0
C0
C0
C0
ENDCHAR
STARTCHAR 115
ENCODING 115
SWIDTH 648 0
DWIDTH 9 0
BBX 7 10 1 0
BITMAP
3C
7E
C6
C0
FC
3E
06
C6
FC
78
ENDCHAR
STARTCHAR 116
ENCODING 116
SWIDTH 432 0
DWIDTH 6 0
BBX 6 13 0 0
BITMAP
30
30
30
FC
FC
30
30
30
30
30
30
3C
1C
ENDCHAR
STARTCHAR 117
ENCODING 117
SWIDTH 720 0
DWIDTH 10 0
BBX 8 10 1 0
BITMAP
C3
C3
C3
C3
C3
C3
C3
C7
FF
7B
ENDCHAR
STARTCHAR 118
ENCODING 118
SWIDTH 720 0
DWIDTH 10 0
BBX 8 10 1 0
BITMAP
C3
C3
C3
66
66
66
24
3C
18
18
ENDCHAR
STARTCHAR 119
ENCODING 119
SWIDTH 1008 0
DWIDTH 14 0
BBX 12 10 1 0
BITMAP
C630
C630
C630
6660
6660
6960
2940
39C0
1980
1980
ENDCHAR
STARTCHAR 120
ENCODING 120
SWIDTH 720 0
DWIDTH 10 0
BBX 8 10 1 0
BITMAP
C3
E7
66
3C
18
18
3C
66
E7
C3
ENDCHAR
STARTCHAR 121
ENCODING 121
SWIDTH 720 0
DWIDTH 10 0
BBX 8 14 1 -4
BITMAP
C3
C3
C3
66
66
66
24
3C
18
18
18
18
70
70
ENDCHAR
STARTCHAR 122
ENCODING 122
SWIDTH 648 0
DWIDTH 9 0
BBX 7 10 1 0
BITMAP
FE
FE
06
0C
18
30
60
C0
FE
FE
ENDCHAR
STARTCHAR 123
ENCODING 123
SWIDTH 432 0
DWIDTH 6 0
BBX 5 18 0 -4
BITMAP
18
30
60
60
60
60
60
C0
80
C0
60
60
60
60
60
60
30
18
ENDCHAR
STARTCHAR 124
ENCODING 124
SWIDTH 360 0
DWIDTH 5 0
BBX 2 18 1 -4
BITMAP
C0
C0
C0
C0
C0
C0
C0
C0
C0
C0
C0
C0
C0
C0
C0
C0
C0
C0
ENDCHAR
STARTCHAR 125
ENCODING 125
SWIDTH 432 0
DWIDTH 6 0
BBX 6 18 0 -4
BITMAP
C0
60
30
30
30
30
30
18
0C
18
30
30
30
30
30
30
60
C0
ENDCHAR
STARTCHAR 126
ENCODING 126
SWIDTH 720 0
DWIDTH 10 0
BBX 8 3 1 4
BITMAP
73
FF
CE
ENDCHAR
STARTCHAR 127
ENCODING 127
SWIDTH 72 0
DWIDTH 1 0
BBX 0 0 0 0
BITMAP
ENDCHAR
STARTCHAR 128
ENCODING 128
SWIDTH 72 0
DWIDTH 1 0
BBX 0 0 0 0
BITMAP
ENDCHAR
STARTCHAR 129
ENCODING 129
SWIDTH 72 0
DWIDTH 1 0
BBX 0 0 0 0
BITMAP
ENDCHAR
STARTCHAR 130
ENCODING 130
SWIDTH 72 0
DWIDTH 1 0
BBX 0 0 0 0
BITMAP
ENDCHAR
STARTCHAR 131
ENCODING 131
SWIDTH 72 0
DWIDTH 1 0
BBX 0 0 0 0
BITMAP
ENDCHAR
STARTCHAR 132
ENCODING 132
SWIDTH 72 0
DWIDTH 1 0
BBX 0 0 0 0
BITMAP
ENDCHAR
STARTCHAR 133
ENCODING 133
SWIDTH 72 0
DWIDTH 1 0
BBX 0 0 0 0
BITMAP
ENDCHAR
STARTCHAR 134
ENCODING 134
SWIDTH 936 0
DWIDTH 13 0
BBX 12 15 0 0
BITMAP
4000
4600
4600
4F00
0F00
1980
1980
30C0
30C0
3FC0
7FE0
6060
6060
C030
C030
ENDCHAR
STARTCHAR 135
ENCODING 135
SWIDTH 72 0
DWIDTH 1 0
BBX 0 0 0 0
BITMAP
ENDCHAR
STARTCHAR 136
ENCODING 136
SWIDTH 936 0
DWIDTH 13 0
BBX 12 16 0 0
BITMAP
8000
8000
BFF0
BFF0
3000
3000
3000
3000
3FE0
3FE0
3000
3000
3000
3000
3FF0
3FF0
ENDCHAR
STARTCHAR 137
ENCODING 137
SWIDTH 1008 0
DWIDTH 14 0
BBX 13 16 0 0
BITMAP
8000
8000
B018
B018
3018
3018
3018
3018
3FF8
3FF8
3018
3018
3018
3018
3018
3018
ENDCHAR
STARTCHAR 138
ENCODING 138
SWIDTH 504 0
DWIDTH 7 0
BBX 5 16 0 0
BITMAP
80
80
98
98
98
18
18
18
18
18
18
18
18
18
18
18
ENDCHAR
STARTCHAR 139
ENCODING 139
SWIDTH 72 0
DWIDTH 1 0
BBX 0 0 0 0
BITMAP
ENDCHAR
STARTCHAR 140
ENCODING 140
SWIDTH 1080 0
DWIDTH 15 0
BBX 14 16 0 0
BITMAP
8000
4000
47C0
1FF0
3838
3018
701C
600C
600C
600C
600C
701C
3018
3838
1FF0
07C0
ENDCHAR
STARTCHAR 141
ENCODING 141
SWIDTH 72 0
DWIDTH 1 0
BBX 0 0 0 0
BITMAP
ENDCHAR
STARTCHAR 142
ENCODING 142
SWIDTH 1008 0
DWIDTH 14 0
BBX 14 16 0 0
BITMAP
8000
8000
B00C
B00C
1818
1818
0C30
0E70
0660
03C0
0180
0180
0180
0180
0180
0180
ENDCHAR
STARTCHAR 143
ENCODING 143
SWIDTH 936 0
DWIDTH 13 0
BBX 11 16 0 0
BITMAP
8000
8000
4F00
1F80
30C0
6060
6060
6060
6060
6060
6060
30C0
1980
0900
79E0
79E0
ENDCHAR
STARTCHAR 144
ENCODING 144
SWIDTH 72 0
DWIDTH 1 0
BBX 0 0 0 0
BITMAP
ENDCHAR
STARTCHAR 145
ENCODING 145
SWIDTH 936 0
DWIDTH 13 0
BBX 12 14 0 0
BITMAP
0600
0600
0F00
0F00
1980
1980
30C0
30C0
3FC0
7FE0
6060
6060
C030
C030
ENDCHAR
STARTCHAR 146
ENCODING 146
SWIDTH 936 0
DWIDTH 13 0
BBX 11 14 1 0
BITMAP
FF00
FF80
C1C0
C0C0
C0C0
C180
FF80
FFC0
C0E0
C060
C060
C0E0
FFC0
FF80
ENDCHAR
STARTCHAR 147
ENCODING 147
SWIDTH 648 0
DWIDTH 9 0
BBX 8 14 1 0
BITMAP
FF
FF
C0
C0
C0
C0
C0
C0
C0
C0
C0
C0
C0
C0
ENDCHAR
STARTCHAR 148
ENCODING 148
SWIDTH 864 0
DWIDTH 12 0
BBX 11 15 0 0
BITMAP
0400
0E00
0E00
1B00
1B00
1100
3180
3180
2080
60C0
60C0
4040
C060
FFE0
FFE0
ENDCHAR
STARTCHAR 149
ENCODING 149
SWIDTH 936 0
DWIDTH 13 0
BBX 10 14 2 0
BITMAP
FFC0
FFC0
C000
C000
C000
C000
FF80
FF80
C000
C000
C000
C000
FFC0
FFC0
ENDCHAR
STARTCHAR 150
ENCODING 150
SWIDTH 864 0
DWIDTH 12 0
BBX 10 14 1 0
BITMAP
FFC0
FFC0
00C0
0180
0300
0600
0C00
1C00
1800
3000
6000
C000
FFC0
FFC0
ENDCHAR
STARTCHAR 151
ENCODING 151
SWIDTH 1008 0
DWIDTH 14 0
BBX 11 14 1 0
BITMAP
C060
C060
C060
C060
C060
C060
FFE0
FFE0
C060
C060
C060
C060
C060
C060
ENDCHAR
STARTCHAR 152
ENCODING 152
SWIDTH 720 0
DWIDTH 10 0
BBX 9 14 0 0
BITMAP
7F00
FF80
C180
C180
C180
C180
FF80
FF80
C180
C180
C180
C180
FF80
7F00
ENDCHAR
STARTCHAR 153
ENCODING 153
SWIDTH 432 0
DWIDTH 6 0
BBX 2 14 2 0
BITMAP
C0
C0
C0
C0
C0
C0
C0
C0
C0
C0
C0
C0
C0
C0
ENDCHAR
STARTCHAR 154
ENCODING 154
SWIDTH 1008 0
DWIDTH 14 0
BBX 12 14 2 0
BITMAP
C0E0
C1C0
C380
C700
CE00
DC00
F800
FC00
CE00
C700
C380
C1C0
C0E0
C070
ENDCHAR
STARTCHAR 155
ENCODING 155
SWIDTH 864 0
DWIDTH 12 0
BBX 11 15 0 0
BITMAP
0400
0E00
0E00
1B00
1B00
1100
3180
3180
3180
60C0
60C0
60C0
C060
C060
C060
ENDCHAR
STARTCHAR 156
ENCODING 156
SWIDTH 1152 0
DWIDTH 16 0
BBX 14 14 1 0
BITMAP
C00C
C00C
E01C
E01C
F03C
F03C
D86C
D86C
CCCC
CCCC
C48C
C78C
C30C
C30C
ENDCHAR
STARTCHAR 157
ENCODING 157
SWIDTH 1008 0
DWIDTH 14 0
BBX 11 14 1 0
BITMAP
C060
E060
F060
F060
D860
CC60
CC60
C660
C660
C360
C1E0
C1E0
C0E0
C060
ENDCHAR
STARTCHAR 158
ENCODING 158
SWIDTH 648 0
DWIDTH 9 0
BBX 9 14 0 0
BITMAP
FF80
FF80
0000
0000
0000
0000
3E00
3E00
0000
0000
0000
0000
FF80
FF80
ENDCHAR
STARTCHAR 159
ENCODING 159
SWIDTH 1080 0
DWIDTH 15 0
BBX 13 14 1 0
BITMAP
0F80
3FE0
7070
6030
E038
C018
C018
C018
C018
E038
6030
7070
3FE0
0F80
ENDCHAR
STARTCHAR 160
ENCODING 160
SWIDTH 1008 0
DWIDTH 14 0
BBX 11 14 1 0
BITMAP
FFE0
FFE0
FFE0
C060
C060
C060
C060
C060
C060
C060
C060
C060
C060
C060
ENDCHAR
STARTCHAR 161
ENCODING 161
SWIDTH 936 0
DWIDTH 13 0
BBX 10 14 2 0
BITMAP
FF00
FF80
C1C0
C0C0
C0C0
C1C0
FF80
FF00
C000
C000
C000
C000
C000
C000
ENDCHAR
STARTCHAR 162
ENCODING 162
SWIDTH 504 0
DWIDTH 7 0
BBX 5 5 1 8
BITMAP
70
D8
88
D8
70
ENDCHAR
STARTCHAR 163
ENCODING 163
SWIDTH 864 0
DWIDTH 12 0
BBX 9 15 1 0
BITMAP
FF80
FF80
C000
6000
3000
1800
0C00
0600
0C00
1800
3000
6000
C000
FF80
FF80
ENDCHAR
STARTCHAR 164
ENCODING 164
SWIDTH 864 0
DWIDTH 12 0
BBX 10 14 1 0
BITMAP
FFC0
FFC0
0C00
0C00
0C00
0C00
0C00
0C00
0C00
0C00
0C00
0C00
0C00
0C00
ENDCHAR
STARTCHAR 165
ENCODING 165
SWIDTH 936 0
DWIDTH 13 0
BBX 12 14 0 0
BITMAP
C030
C030
6060
6060
30C0
39C0
1980
0F00
0600
0600
0600
0600
0600
0600
ENDCHAR
STARTCHAR 166
ENCODING 166
SWIDTH 936 0
DWIDTH 13 0
BBX 10 14 1 0
BITMAP
0C00
3F00
6D80
CCC0
CCC0
CCC0
CCC0
CCC0
CCC0
CCC0
6D80
3F00
0C00
0C00
ENDCHAR
STARTCHAR 167
ENCODING 167
SWIDTH 936 0
DWIDTH 13 0
BBX 11 14 1 0
BITMAP
C060
C060
60C0
71C0
3180
1B00
0E00
0E00
1B00
3180
71C0
60C0
C060
C060
ENDCHAR
STARTCHAR 168
ENCODING 168
SWIDTH 792 0
DWIDTH 11 0
BBX 10 14 0 0
BITMAP
CCC0
CCC0
CCC0
CCC0
CCC0
CCC0
CCC0
CCC0
7F80
3F00
0C00
0C00
0C00
0C00
ENDCHAR
STARTCHAR 169
ENCODING 169
SWIDTH 936 0
DWIDTH 13 0
BBX 10 14 1 0
BITMAP
1E00
3F00
6180
C0C0
C0C0
C0C0
C0C0
C0C0
C0C0
6180
3300
1200
F3C0
F3C0
ENDCHAR
STARTCHAR 170
ENCODING 170
SWIDTH 504 0
DWIDTH 7 0
BBX 5 8 1 6
BITMAP
70
98
38
48
D8
68
00
F8
ENDCHAR
STARTCHAR 171
ENCODING 171
SWIDTH 648 0
DWIDTH 9 0
BBX 7 6 1 2
BITMAP
36
6C
D8
D8
6C
36
ENDCHAR
STARTCHAR 172
ENCODING 172
SWIDTH 792 0
DWIDTH 11 0
BBX 8 14 1 0
BITMAP
02
04
08
00
00
77
FF
C6
C6
C6
C6
C6
6F
3B
ENDCHAR
STARTCHAR 173
ENCODING 173
SWIDTH 720 0
DWIDTH 10 0
BBX 6 13 1 0
BITMAP
04
08
10
00
78
FC
C4
C0
70
C0
C4
FC
78
ENDCHAR
STARTCHAR 174
ENCODING 174
SWIDTH 720 0
DWIDTH 10 0
BBX 7 15 1 -2
BITMAP
08
10
20
00
DC
FE
EE
C6
C6
C6
C6
C6
06
06
06
ENDCHAR
STARTCHAR 175
ENCODING 175
SWIDTH 432 0
DWIDTH 6 0
BBX 4 14 1 0
BITMAP
10
20
40
00
00
C0
C0
C0
C0
C0
C0
C0
60
20
ENDCHAR
STARTCHAR 176
ENCODING 176
SWIDTH 504 0
DWIDTH 7 0
BBX 5 5 1 8
BITMAP
70
D8
88
D8
70
ENDCHAR
STARTCHAR 177
ENCODING 177
SWIDTH 792 0
DWIDTH 11 0
BBX 8 9 1 0
BITMAP
77
FF
C6
C6
C6
C6
C6
6F
3B
ENDCHAR
STARTCHAR 178
ENCODING 178
SWIDTH 792 0
DWIDTH 11 0
BBX 7 15 0 -2
BITMAP
38
F8
C6
C6
C6
D8
D8
C6
C6
C6
F8
F8
C0
C0
C0
ENDCHAR
STARTCHAR 179
ENCODING 179
SWIDTH 792 0
DWIDTH 11 0
BBX 7 10 1 -1
BITMAP
C6
C6
C6
6C
6C
38
18
18
18
18
ENDCHAR
STARTCHAR 180
ENCODING 180
SWIDTH 792 0
DWIDTH 11 0
BBX 7 14 1 0
BITMAP
38
7C
C6
C6
60
30
78
CC
C6
C6
C6
C6
7C
38
ENDCHAR
STARTCHAR 181
ENCODING 181
SWIDTH 720 0
DWIDTH 10 0
BBX 6 9 1 0
BITMAP
78
FC
C4
C0
70
C0
C4
FC
78
ENDCHAR
STARTCHAR 182
ENCODING 182
SWIDTH 864 0
DWIDTH 12 0
BBX 6 14 1 -1
BITMAP
FC
FC
1C
38
70
C0
C0
C0
C0
78
0C
0C
3C
30
ENDCHAR
STARTCHAR 183
ENCODING 183
SWIDTH 720 0
DWIDTH 10 0
BBX 7 11 1 -2
BITMAP
DC
FE
EE
C6
C6
C6
C6
C6
06
06
06
ENDCHAR
STARTCHAR 184
ENCODING 184
SWIDTH 720 0
DWIDTH 10 0
BBX 7 12 0 1
BITMAP
38
7C
C6
C6
C6
FE
C6
C6
C6
C6
7C
38
ENDCHAR
STARTCHAR 185
ENCODING 185
SWIDTH 432 0
DWIDTH 6 0
BBX 3 9 1 0
BITMAP
C0
C0
C0
C0
C0
C0
C0
60
20
ENDCHAR
STARTCHAR 186
ENCODING 186
SWIDTH 648 0
DWIDTH 9 0
BBX 7 9 1 1
BITMAP
C6
CC
D8
F0
F8
D8
CC
CC
C6
ENDCHAR
STARTCHAR 187
ENCODING 187
SWIDTH 720 0
DWIDTH 10 0
BBX 6 12 1 0
BITMAP
F0
F8
0C
0C
0C
7C
FC
CC
CC
CC
CC
CC
ENDCHAR
STARTCHAR 188
ENCODING 188
SWIDTH 792 0
DWIDTH 11 0
BBX 8 11 1 -2
BITMAP
C6
C6
C6
C6
C6
C6
FE
FB
C0
C0
C0
ENDCHAR
STARTCHAR 189
ENCODING 189
SWIDTH 792 0
DWIDTH 11 0
BBX 9 9 0 0
BITMAP
C180
C180
6300
6300
3600
3600
1C00
1C00
0800
ENDCHAR
STARTCHAR 190
ENCODING 190
SWIDTH 864 0
DWIDTH 12 0
BBX 7 14 2 -1
BITMAP
FE
FE
60
C0
C0
78
78
C0
C0
78
7C
0C
7C
70
ENDCHAR
STARTCHAR 191
ENCODING 191
SWIDTH 792 0
DWIDTH 11 0
BBX 7 9 2 0
BITMAP
38
7C
C6
C6
C6
C6
C6
7C
38
ENDCHAR
STARTCHAR 192
ENCODING 192
SWIDTH 792 0
DWIDTH 11 0
BBX 6 9 1 0
BITMAP
FC
FC
CC
CC
CC
CC
CC
CC
CC
ENDCHAR
STARTCHAR 193
ENCODING 193
SWIDTH 792 0
DWIDTH 11 0
BBX 7 10 1 -1
BITMAP
7C
FE
C6
C6
C6
C6
FE
FC
C0
C0
ENDCHAR
STARTCHAR 194
ENCODING 194
SWIDTH 864 0
DWIDTH 12 0
BBX 8 11 1 -2
BITMAP
3C
7F
C3
C0
C0
C0
FC
7E
03
1F
0E
ENDCHAR
STARTCHAR 195
ENCODING 195
SWIDTH 864 0
DWIDTH 12 0
BBX 9 9 1 0
BITMAP
7F80
7F80
C600
C600
C600
C600
C600
7C00
3800
ENDCHAR
STARTCHAR 196
ENCODING 196
SWIDTH 864 0
DWIDTH 12 0
BBX 7 9 2 0
BITMAP
FE
FE
30
30
30
30
30
3C
1C
ENDCHAR
STARTCHAR 197
ENCODING 197
SWIDTH 720 0
DWIDTH 10 0
BBX 8 9 1 0
BITMAP
C3
C3
C3
C3
C3
C3
E7
7E
3C
ENDCHAR
STARTCHAR 198
ENCODING 198
SWIDTH 936 0
DWIDTH 13 0
BBX 9 11 1 -2
BITMAP
3E00
7F00
C980
C980
C980
C980
C980
7F00
3E00
0800
0800
ENDCHAR
STARTCHAR 199
ENCODING 199
SWIDTH 720 0
DWIDTH 10 0
BBX 8 10 1 0
BITMAP
C3
E7
66
3C
18
18
3C
66
E7
C3
ENDCHAR
STARTCHAR 200
ENCODING 200
SWIDTH 936 0
DWIDTH 13 0
BBX 9 10 1 -2
BITMAP
C980
C980
C980
C980
C980
C980
7F00
3E00
0800
0800
ENDCHAR
STARTCHAR 201
ENCODING 201
SWIDTH 936 0
DWIDTH 13 0
BBX 9 9 1 0
BITMAP
6300
C180
C180
C180
C980
C980
C980
7700
3600
ENDCHAR
STARTCHAR 202
ENCODING 202
SWIDTH 432 0
DWIDTH 6 0
BBX 4 12 0 0
BITMAP
90
00
00
60
60
60
60
60
60
60
30
10
ENDCHAR
STARTCHAR 203
ENCODING 203
SWIDTH 720 0
DWIDTH 10 0
BBX 8 13 1 0
BITMAP
C3
00
00
00
C3
C3
C3
C3
C3
C3
E7
7E
3C
ENDCHAR
STARTCHAR 204
ENCODING 204
SWIDTH 792 0
DWIDTH 11 0
BBX 7 14 2 0
BITMAP
02
04
08
00
00
38
7C
C6
C6
C6
C6
C6
7C
38
ENDCHAR
STARTCHAR 205
ENCODING 205
SWIDTH 720 0
DWIDTH 10 0
BBX 8 14 1 0
BITMAP
04
08
10
00
00
C3
C3
C3
C3
C3
C3
E7
7E
3C
ENDCHAR
STARTCHAR 206
ENCODING 206
SWIDTH 936 0
DWIDTH 13 0
BBX 9 14 1 0
BITMAP
0200
0400
0800
0000
0000
6300
C180
C180
C180
C980
C980
C980
7700
3600
ENDCHAR
STARTCHAR 207
ENCODING 207
SWIDTH 432 0
DWIDTH 6 0
BBX 6 16 0 0
BITMAP
CC
00
30
30
30
30
30
30
30
30
30
30
30
30
30
30
ENDCHAR
STARTCHAR 208
ENCODING 208
SWIDTH 1008 0
DWIDTH 14 0
BBX 13 14 0 0
BITMAP
7FC0
7FE0
6070
6030
6018
6018
FC18
FC18
6018
6018
6030
6070
7FE0
7FC0
ENDCHAR
STARTCHAR 209
ENCODING 209
SWIDTH 1008 0
DWIDTH 14 0
BBX 11 16 1 0
BITMAP
1300
0000
C060
E060
F060
F060
D860
CC60
CC60
C660
C660
C360
C1E0
C1E0
C0E0
C060
ENDCHAR
STARTCHAR 210
ENCODING 210
SWIDTH 1080 0
DWIDTH 15 0
BBX 13 16 1 0
BITMAP
0600
0000
0F80
3FE0
7070
6030
E038
C018
C018
C018
C018
E038
6030
7070
3FE0
0F80
ENDCHAR
STARTCHAR 211
ENCODING 211
SWIDTH 1080 0
DWIDTH 15 0
BBX 13 16 1 0
BITMAP
0600
0000
0F80
3FE0
7070
6030
E038
C018
C018
C018
C018
E038
6030
7070
3FE0
0F80
ENDCHAR
STARTCHAR 212
ENCODING 212
SWIDTH 1080 0
DWIDTH 15 0
BBX 13 16 1 0
BITMAP
0CC0
0000
0F80
3FE0
7070
6030
E038
C018
C018
C018
C018
E038
6030
7070
3FE0
0F80
ENDCHAR
STARTCHAR 213
ENCODING 213
SWIDTH 1080 0
DWIDTH 15 0
BBX 13 16 1 0
BITMAP
0980
0000
0F80
3FE0
7070
6030
E038
C018
C018
C018
C018
E038
6030
7070
3FE0
0F80
ENDCHAR
STARTCHAR 214
ENCODING 214
SWIDTH 1080 0
DWIDTH 15 0
BBX 13 16 1 0
BITMAP
0CC0
0000
0F80
3FE0
7070
6030
E038
C018
C018
C018
C018
E038
6030
7070
3FE0
0F80
ENDCHAR
STARTCHAR 215
ENCODING 215
SWIDTH 720 0
DWIDTH 10 0
BBX 10 9 0 0
BITMAP
C0C0
6180
3300
1E00
0C00
1E00
3300
6180
C0C0
ENDCHAR
STARTCHAR 216
ENCODING 216
SWIDTH 1080 0
DWIDTH 15 0
BBX 14 14 0 0
BITMAP
07CC
1FF8
3830
3078
70DC
618C
630C
620C
660C
6C1C
3818
3838
6FF0
C7C0
ENDCHAR
STARTCHAR 217
ENCODING 217
SWIDTH 1008 0
DWIDTH 14 0
BBX 11 16 1 0
BITMAP
0600
0000
C060
C060
C060
C060
C060
C060
C060
C060
C060
C060
C060
60C0
7FC0
1F00
ENDCHAR
STARTCHAR 218
ENCODING 218
SWIDTH 1008 0
DWIDTH 14 0
BBX 11 16 1 0
BITMAP
0C00
0000
C060
C060
C060
C060
C060
C060
C060
C060
C060
C060
C060
60C0
7FC0
1F00
ENDCHAR
STARTCHAR 219
ENCODING 219
SWIDTH 1008 0
DWIDTH 14 0
BBX 11 16 1 0
BITMAP
1980
0000
C060
C060
C060
C060
C060
C060
C060
C060
C060
C060
C060
60C0
7FC0
1F00
ENDCHAR
STARTCHAR 220
ENCODING 220
SWIDTH 1008 0
DWIDTH 14 0
BBX 11 16 1 0
BITMAP
3180
0000
C060
C060
C060
C060
C060
C060
C060
C060
C060
C060
C060
60C0
7FC0
1F00
ENDCHAR
STARTCHAR 221
ENCODING 221
SWIDTH 936 0
DWIDTH 13 0
BBX 12 16 0 0
BITMAP
0600
0000
C030
C030
6060
6060
30C0
39C0
1980
0F00
0600
0600
0600
0600
0600
0600
ENDCHAR
STARTCHAR 222
ENCODING 222
SWIDTH 864 0
DWIDTH 12 0
BBX 10 14 1 0
BITMAP
C000
C000
C000
FF00
FF80
C1C0
C0C0
C0C0
C1C0
FF80
FF00
C000
C000
C000
ENDCHAR
STARTCHAR 223
ENCODING 223
SWIDTH 648 0
DWIDTH 9 0
BBX 7 14 1 0
BITMAP
38
7C
C6
C6
C6
C6
DC
DC
C6
C6
C6
C6
DE
DC
ENDCHAR
STARTCHAR 224
ENCODING 224
SWIDTH 792 0
DWIDTH 11 0
BBX 9 14 1 0
BITMAP
3000
1800
0C00
0000
7E00
E700
C300
0700
7F00
E300
C300
C300
E780
7980
ENDCHAR
STARTCHAR 225
ENCODING 225
SWIDTH 792 0
DWIDTH 11 0
BBX 9 14 1 0
BITMAP
0C00
1800
3000
0000
7E00
E700
C300
0700
7F00
E300
C300
C300
E780
7980
ENDCHAR
STARTCHAR 226
ENCODING 226
SWIDTH 792 0
DWIDTH 11 0
BBX 9 14 1 0
BITMAP
1800
3C00
6600
0000
7E00
E700
C300
0700
7F00
E300
C300
C300
E780
7980
ENDCHAR
STARTCHAR 227
ENCODING 227
SWIDTH 792 0
DWIDTH 11 0
BBX 9 14 1 0
BITMAP
3200
5A00
4C00
0000
7E00
E700
C300
0700
7F00
E300
C300
C300
E780
7980
ENDCHAR
STARTCHAR 228
ENCODING 228
SWIDTH 792 0
DWIDTH 11 0
BBX 9 14 1 0
BITMAP
6600
6600
0000
0000
7E00
E700
C300
0700
7F00
E300
C300
C300
E780
7980
ENDCHAR
STARTCHAR 229
ENCODING 229
SWIDTH 792 0
DWIDTH 11 0
BBX 9 14 1 0
BITMAP
1800
2400
2400
1800
7E00
E700
C300
0700
7F00
E300
C300
C300
E780
7980
ENDCHAR
STARTCHAR 230
ENCODING 230
SWIDTH 1224 0
DWIDTH 17 0
BBX 14 10 2 0
BITMAP
7EF0
E7F8
C30C
070C
7FFC
E300
C300
C38C
E7FC
7AF0
ENDCHAR
STARTCHAR 231
ENCODING 231
SWIDTH 720 0
DWIDTH 10 0
BBX 8 14 1 -4
BITMAP
3E
7F
63
C0
C0
C0
C0
63
7F
3E
18
0C
6C
78
ENDCHAR
STARTCHAR 232
ENCODING 232
SWIDTH 720 0
DWIDTH 10 0
BBX 8 14 1 0
BITMAP
30
18
0C
00
3C
7E
C3
C3
FF
C0
C0
E3
7F
3C
ENDCHAR
STARTCHAR 233
ENCODING 233
SWIDTH 720 0
DWIDTH 10 0
BBX 8 14 1 0
BITMAP
0C
18
30
00
3C
7E
C3
C3
FF
C0
C0
E3
7F
3C
ENDCHAR
STARTCHAR 234
ENCODING 234
SWIDTH 720 0
DWIDTH 10 0
BBX 8 14 1 0
BITMAP
18
3C
66
00
3C
7E
C3
C3
FF
C0
C0
E3
7F
3C
ENDCHAR
STARTCHAR 235
ENCODING 235
SWIDTH 720 0
DWIDTH 10 0
BBX 8 14 1 0
BITMAP
66
66
00
00
3C
7E
C3
C3
FF
C0
C0
E3
7F
3C
ENDCHAR
STARTCHAR 236
ENCODING 236
SWIDTH 288 0
DWIDTH 4 0
BBX 4 14 0 0
BITMAP
C0
60
30
00
60
60
60
60
60
60
60
60
60
60
ENDCHAR
STARTCHAR 237
ENCODING 237
SWIDTH 288 0
DWIDTH 4 0
BBX 4 14 0 0
BITMAP
30
60
C0
00
60
60
60
60
60
60
60
60
60
60
ENDCHAR
STARTCHAR 238
ENCODING 238
SWIDTH 360 0
DWIDTH 5 0
BBX 5 14 0 0
BITMAP
60
F0
98
00
60
60
60
60
60
60
60
60
60
60
ENDCHAR
STARTCHAR 239
ENCODING 239
SWIDTH 360 0
DWIDTH 5 0
BBX 5 14 0 0
BITMAP
D8
D8
00
00
60
60
60
60
60
60
60
60
60
60
ENDCHAR
STARTCHAR 240
ENCODING 240
SWIDTH 792 0
DWIDTH 11 0
BBX 9 14 1 0
BITMAP
6000
3600
3800
4C00
3E00
7F00
6300
C180
C180
C180
C180
6300
7F00
3E00
ENDCHAR
STARTCHAR 241
ENCODING 241
SWIDTH 720 0
DWIDTH 10 0
BBX 8 14 1 0
BITMAP
32
5A
4C
00
DE
FF
E3
C3
C3
C3
C3
C3
C3
C3
ENDCHAR
STARTCHAR 242
ENCODING 242
SWIDTH 792 0
DWIDTH 11 0
BBX 9 14 1 0
BITMAP
3000
1800
0C00
0000
3E00
7F00
6300
C180
C180
C180
C180
6300
7F00
3E00
ENDCHAR
STARTCHAR 243
ENCODING 243
SWIDTH 792 0
DWIDTH 11 0
BBX 9 14 1 0
BITMAP
0600
0C00
1800
0000
3E00
7F00
6300
C180
C180
C180
C180
6300
7F00
3E00
ENDCHAR
STARTCHAR 244
ENCODING 244
SWIDTH 792 0
DWIDTH 11 0
BBX 9 14 1 0
BITMAP
1800
3C00
6600
0000
3E00
7F00
6300
C180
C180
C180
C180
6300
7F00
3E00
ENDCHAR
STARTCHAR 245
ENCODING 245
SWIDTH 792 0
DWIDTH 11 0
BBX 9 14 1 0
BITMAP
3200
5A00
4C00
0000
3E00
7F00
6300
C180
C180
C180
C180
6300
7F00
3E00
ENDCHAR
STARTCHAR 246
ENCODING 246
SWIDTH 792 0
DWIDTH 11 0
BBX 9 14 1 0
BITMAP
3300
3300
0000
0000
3E00
7F00
6300
C180
C180
C180
C180
6300
7F00
3E00
ENDCHAR
STARTCHAR 247
ENCODING 247
SWIDTH 720 0
DWIDTH 10 0
BBX 8 8 1 1
BITMAP
18
18
00
FF
FF
00
18
18
ENDCHAR
STARTCHAR 248
ENCODING 248
SWIDTH 792 0
DWIDTH 11 0
BBX 11 10 0 0
BITMAP
0E60
3FC0
3180
63C0
66C0
6CC0
78C0
3180
7F80
CE00
ENDCHAR
STARTCHAR 249
ENCODING 249
SWIDTH 720 0
DWIDTH 10 0
BBX 8 14 1 0
BITMAP
30
18
0C
00
C3
C3
C3
C3
C3
C3
C3
C7
FF
7B
ENDCHAR
STARTCHAR 250
ENCODING 250
SWIDTH 720 0
DWIDTH 10 0
BBX 8 14 1 0
BITMAP
06
0C
18
00
C3
C3
C3
C3
C3
C3
C3
C7
FF
7B
ENDCHAR
STARTCHAR 251
ENCODING 251
SWIDTH 720 0
DWIDTH 10 0
BBX 8 14 1 0
BITMAP
18
3C
66
00
C3
C3
C3
C3
C3
C3
C3
C7
FF
7B
ENDCHAR
STARTCHAR 252
ENCODING 252
SWIDTH 720 0
DWIDTH 10 0
BBX 8 14 1 0
BITMAP
66
66
00
00
C3
C3
C3
C3
C3
C3
C3
C7
FF
7B
ENDCHAR
STARTCHAR 253
ENCODING 253
SWIDTH 720 0
DWIDTH 10 0
BBX 8 18 1 -4
BITMAP
06
0C
18
00
C3
C3
C3
66
66
66
24
3C
18
18
18
18
70
70
ENDCHAR
STARTCHAR 254
ENCODING 254
SWIDTH 792 0
DWIDTH 11 0
BBX 9 18 1 -4
BITMAP
C000
C000
C000
C000
DE00
FF00
E300
C180
C180
C180
C180
E300
FF00
DE00
C000
C000
C000
C000
ENDCHAR
STARTCHAR 255
ENCODING 255
SWIDTH 720 0
DWIDTH 10 0
BBX 8 18 1 -4
BITMAP
66
66
00
00
C3
C3
C3
66
66
66
24
3C
18
18
18
18
70
70
ENDCHAR
ENDFONT
