STARTFONT 2.1
COMMENT Exported by Fony v1.4.7
FONT Ne
SIZE 36 100 100
FONTBOUNDINGBOX 31 35 0 -7
STARTPROPERTIES 6
COPYRIGHT "Copyright (c) 1984, 1987 Adobe Systems Incorporated. All Rights Reserved. Copyright (c) 1988, 1991 Digital Equipment Corporation. All Rights Reserved."
RESOLUTION_X 100
RESOLUTION_Y 100
FONT_ASCENT 29
FONT_DESCENT 7
DEFAULT_CHAR 0
ENDPROPERTIES
CHARS 256
STARTCHAR 000
ENCODING 0
SWIDTH 1944 0
DWIDTH 27 0
BBX 25 25 1 0
BITMAP
AAAAAA80
00000000
80000080
00000000
80000080
00000000
80000080
00000000
80000080
00000000
80000080
00000000
80000080
00000000
80000080
00000000
80000080
00000000
80000080
00000000
80000080
00000000
80000080
00000000
AAAAAA80
ENDCHAR
STARTCHAR 001
ENCODING 1
SWIDTH 72 0
DWIDTH 1 0
BBX 0 0 0 0
BITMAP
ENDCHAR
STARTCHAR 002
ENCODING 2
SWIDTH 72 0
DWIDTH 1 0
BBX 0 0 0 0
BITMAP
ENDCHAR
STARTCHAR 003
ENCODING 3
SWIDTH 72 0
DWIDTH 1 0
BBX 0 0 0 0
BITMAP
ENDCHAR
STARTCHAR 004
ENCODING 4
SWIDTH 72 0
DWIDTH 1 0
BBX 0 0 0 0
BITMAP
ENDCHAR
STARTCHAR 005
ENCODING 5
SWIDTH 72 0
DWIDTH 1 0
BBX 0 0 0 0
BITMAP
ENDCHAR
STARTCHAR 006
ENCODING 6
SWIDTH 72 0
DWIDTH 1 0
BBX 0 0 0 0
BITMAP
ENDCHAR
STARTCHAR 007
ENCODING 7
SWIDTH 72 0
DWIDTH 1 0
BBX 0 0 0 0
BITMAP
ENDCHAR
STARTCHAR 008
ENCODING 8
SWIDTH 72 0
DWIDTH 1 0
BBX 0 0 0 0
BITMAP
ENDCHAR
STARTCHAR 009
ENCODING 9
SWIDTH 72 0
DWIDTH 1 0
BBX 0 0 0 0
BITMAP
ENDCHAR
STARTCHAR 010
ENCODING 10
SWIDTH 72 0
DWIDTH 1 0
BBX 0 0 0 0
BITMAP
ENDCHAR
STARTCHAR 011
ENCODING 11
SWIDTH 72 0
DWIDTH 1 0
BBX 0 0 0 0
BITMAP
ENDCHAR
STARTCHAR 012
ENCODING 12
SWIDTH 72 0
DWIDTH 1 0
BBX 0 0 0 0
BITMAP
ENDCHAR
STARTCHAR 013
ENCODING 13
SWIDTH 72 0
DWIDTH 1 0
BBX 0 0 0 0
BITMAP
ENDCHAR
STARTCHAR 014
ENCODING 14
SWIDTH 72 0
DWIDTH 1 0
BBX 0 0 0 0
BITMAP
ENDCHAR
STARTCHAR 015
ENCODING 15
SWIDTH 72 0
DWIDTH 1 0
BBX 0 0 0 0
BITMAP
ENDCHAR
STARTCHAR 016
ENCODING 16
SWIDTH 72 0
DWIDTH 1 0
BBX 0 0 0 0
BITMAP
ENDCHAR
STARTCHAR 017
ENCODING 17
SWIDTH 72 0
DWIDTH 1 0
BBX 0 0 0 0
BITMAP
ENDCHAR
STARTCHAR 018
ENCODING 18
SWIDTH 72 0
DWIDTH 1 0
BBX 0 0 0 0
BITMAP
ENDCHAR
STARTCHAR 019
ENCODING 19
SWIDTH 72 0
DWIDTH 1 0
BBX 0 0 0 0
BITMAP
ENDCHAR
STARTCHAR 020
ENCODING 20
SWIDTH 72 0
DWIDTH 1 0
BBX 0 0 0 0
BITMAP
ENDCHAR
STARTCHAR 021
ENCODING 21
SWIDTH 72 0
DWIDTH 1 0
BBX 0 0 0 0
BITMAP
ENDCHAR
STARTCHAR 022
ENCODING 22
SWIDTH 72 0
DWIDTH 1 0
BBX 0 0 0 0
BITMAP
ENDCHAR
STARTCHAR 023
ENCODING 23
SWIDTH 72 0
DWIDTH 1 0
BBX 0 0 0 0
BITMAP
ENDCHAR
STARTCHAR 024
ENCODING 24
SWIDTH 72 0
DWIDTH 1 0
BBX 0 0 0 0
BITMAP
ENDCHAR
STARTCHAR 025
ENCODING 25
SWIDTH 72 0
DWIDTH 1 0
BBX 0 0 0 0
BITMAP
ENDCHAR
STARTCHAR 026
ENCODING 26
SWIDTH 72 0
DWIDTH 1 0
BBX 0 0 0 0
BITMAP
ENDCHAR
STARTCHAR 027
ENCODING 27
SWIDTH 72 0
DWIDTH 1 0
BBX 0 0 0 0
BITMAP
ENDCHAR
STARTCHAR 028
ENCODING 28
SWIDTH 72 0
DWIDTH 1 0
BBX 0 0 0 0
BITMAP
ENDCHAR
STARTCHAR 029
ENCODING 29
SWIDTH 72 0
DWIDTH 1 0
BBX 0 0 0 0
BITMAP
ENDCHAR
STARTCHAR 030
ENCODING 30
SWIDTH 72 0
DWIDTH 1 0
BBX 0 0 0 0
BITMAP
ENDCHAR
STARTCHAR 031
ENCODING 31
SWIDTH 72 0
DWIDTH 1 0
BBX 0 0 0 0
BITMAP
ENDCHAR
STARTCHAR 032
ENCODING 32
SWIDTH 648 0
DWIDTH 9 0
BBX 0 0 0 0
BITMAP
ENDCHAR
STARTCHAR 033
ENCODING 33
SWIDTH 720 0
DWIDTH 10 0
BBX 4 25 3 0
BITMAP
60
F0
F0
F0
F0
F0
F0
60
60
60
60
60
60
60
60
60
60
60
00
00
00
60
F0
F0
60
ENDCHAR
STARTCHAR 034
ENCODING 34
SWIDTH 936 0
DWIDTH 13 0
BBX 9 8 2 17
BITMAP
E380
E380
E380
E380
4100
4100
4100
4100
ENDCHAR
STARTCHAR 035
ENCODING 35
SWIDTH 1368 0
DWIDTH 19 0
BBX 16 23 2 0
BITMAP
030C
030C
030C
071C
0618
0618
0618
7FFF
7FFF
0618
0E38
0C38
0C30
FFFE
FFFE
0C30
0C30
1C70
1C70
1860
1860
1860
1860
ENDCHAR
STARTCHAR 036
ENCODING 36
SWIDTH 1296 0
DWIDTH 18 0
BBX 14 31 2 -4
BITMAP
0200
0200
0200
0FC0
3FF0
7270
E238
C278
C278
C230
C200
E200
FA00
7F00
3FC0
1FF0
03F8
027C
023C
621C
F20C
F20C
E21C
C218
E278
7FF0
1FC0
0200
0200
0200
0200
ENDCHAR
STARTCHAR 037
ENCODING 37
SWIDTH 1944 0
DWIDTH 27 0
BBX 24 25 1 -1
BITMAP
038020
0FC0E0
1CE3C0
387FC0
386180
706180
706300
F06300
E06600
E0C400
E0CC00
E1881C
73187E
3E10E3
0031C3
0063C3
006383
00C783
00C703
018706
018706
03070C
020398
0601F0
040000
ENDCHAR
STARTCHAR 038
ENCODING 38
SWIDTH 1944 0
DWIDTH 27 0
BBX 22 25 2 0
BITMAP
01F800
07BC00
061C00
0E0E00
0E0E00
0E0E00
0E0C00
0E1C00
0F3800
0F7000
07E000
078000
0FC7FC
3BC1F0
71E0E0
71F0C0
E0F0C0
E0F980
E07D80
F03F04
F01E04
F80F0C
7E3FF8
3FF3F8
1FC1E0
ENDCHAR
STARTCHAR 039
ENCODING 39
SWIDTH 504 0
DWIDTH 7 0
BBX 3 8 2 17
BITMAP
E0
E0
E0
E0
40
40
40
40
ENDCHAR
STARTCHAR 040
ENCODING 40
SWIDTH 792 0
DWIDTH 11 0
BBX 8 29 2 -4
BITMAP
01
07
06
0C
18
30
30
30
60
60
60
60
E0
E0
E0
E0
E0
60
60
60
60
30
30
10
18
0C
06
07
03
ENDCHAR
STARTCHAR 041
ENCODING 41
SWIDTH 792 0
DWIDTH 11 0
BBX 8 29 2 -4
BITMAP
C0
E0
60
30
18
08
0C
0C
06
06
06
06
07
07
07
07
07
06
06
06
06
0C
0C
1C
18
30
60
C0
C0
ENDCHAR
STARTCHAR 042
ENCODING 42
SWIDTH 1224 0
DWIDTH 17 0
BBX 12 14 2 11
BITMAP
0600
0600
0600
C670
E670
7FE0
1F80
1F00
7FC0
E670
C670
0600
0600
0600
ENDCHAR
STARTCHAR 043
ENCODING 43
SWIDTH 1440 0
DWIDTH 20 0
BBX 16 17 2 -1
BITMAP
0180
0180
0180
0180
0180
0180
0180
FFFF
FFFF
0180
0180
0180
0180
0180
0180
0180
0180
ENDCHAR
STARTCHAR 044
ENCODING 44
SWIDTH 648 0
DWIDTH 9 0
BBX 5 10 2 -6
BITMAP
70
F8
F8
78
18
18
30
60
E0
80
ENDCHAR
STARTCHAR 045
ENCODING 45
SWIDTH 792 0
DWIDTH 11 0
BBX 8 3 1 7
BITMAP
FF
FF
FF
ENDCHAR
STARTCHAR 046
ENCODING 46
SWIDTH 648 0
DWIDTH 9 0
BBX 4 4 2 0
BITMAP
60
F0
F0
60
ENDCHAR
STARTCHAR 047
ENCODING 47
SWIDTH 648 0
DWIDTH 9 0
BBX 9 25 0 0
BITMAP
0180
0180
0180
0300
0300
0300
0600
0600
0600
0C00
0C00
0C00
1800
1800
1800
3000
3000
3000
6000
6000
6000
C000
C000
C000
8000
ENDCHAR
STARTCHAR 048
ENCODING 48
SWIDTH 1296 0
DWIDTH 18 0
BBX 16 24 2 0
BITMAP
03C0
0FF0
1C38
1818
381C
781E
700E
F00F
F00F
F00F
F00F
F00F
F00F
F00F
F00F
F00F
F00F
700E
781E
381C
1818
1C38
0FF0
03C0
ENDCHAR
STARTCHAR 049
ENCODING 49
SWIDTH 1296 0
DWIDTH 18 0
BBX 13 24 3 0
BITMAP
0300
0700
FF00
0700
0700
0700
0700
0700
0700
0700
0700
0700
0700
0700
0700
0700
0700
0700
0700
0700
0700
0700
0F80
FFF8
ENDCHAR
STARTCHAR 050
ENCODING 50
SWIDTH 1296 0
DWIDTH 18 0
BBX 15 24 1 0
BITMAP
07E0
1FF8
381C
601E
700E
780E
780E
780E
301E
001C
001C
0038
0078
0070
00E0
01C0
0380
0702
0E02
1C06
3806
7FFE
FFFE
FFFE
ENDCHAR
STARTCHAR 051
ENCODING 51
SWIDTH 1296 0
DWIDTH 18 0
BBX 15 24 1 0
BITMAP
07E0
1FF8
3838
701C
781C
781C
301C
001C
0038
0070
01E0
0FF0
00F8
003C
001C
001E
600E
F00E
F00E
F01E
E01C
787C
3FF0
0FC0
ENDCHAR
STARTCHAR 052
ENCODING 52
SWIDTH 1296 0
DWIDTH 18 0
BBX 16 24 1 0
BITMAP
0030
0030
0070
00F0
01F0
01F0
0370
0670
0670
0C70
1870
1870
3070
6070
6070
C070
FFFF
FFFF
0070
0070
0070
0070
00F8
03FE
ENDCHAR
STARTCHAR 053
ENCODING 53
SWIDTH 1296 0
DWIDTH 18 0
BBX 14 24 2 0
BITMAP
3808
3FF8
3FF0
3FE0
3000
3000
2000
6000
63C0
6FF0
7C78
7038
603C
001C
001C
001C
601C
F01C
F01C
F03C
E038
7078
7FF0
1F80
ENDCHAR
STARTCHAR 054
ENCODING 54
SWIDTH 1296 0
DWIDTH 18 0
BBX 15 24 1 0
BITMAP
03F0
0FFC
1C3E
381E
381E
300C
7000
7000
7000
F1E0
F7F8
FE3C
FC1C
F81E
F00E
F00E
F00E
700E
700E
701E
381C
383C
1FF0
07C0
ENDCHAR
STARTCHAR 055
ENCODING 55
SWIDTH 1296 0
DWIDTH 18 0
BBX 13 24 3 0
BITMAP
FFF8
FFF8
FFF8
C010
C030
8020
8060
8040
00C0
00C0
0180
0180
0180
0300
0300
0300
0700
0700
0700
0F00
0F00
0F00
0F00
0600
ENDCHAR
STARTCHAR 056
ENCODING 56
SWIDTH 1296 0
DWIDTH 18 0
BBX 15 24 1 0
BITMAP
07E0
1FF8
3C38
381C
701C
700C
700C
7818
3C38
3F70
1FE0
07F0
07F8
1DFC
387C
701E
701E
E00E
E00E
E00E
701C
783C
3FF8
0FE0
ENDCHAR
STARTCHAR 057
ENCODING 57
SWIDTH 1296 0
DWIDTH 18 0
BBX 15 24 1 0
BITMAP
0FC0
3FF0
7878
7038
F03C
E01C
E01C
E01E
E01E
F01E
F03E
787E
787E
3FDE
1F9E
001E
001C
001C
6038
F038
F070
F1E0
7FC0
3F00
ENDCHAR
STARTCHAR 058
ENCODING 58
SWIDTH 648 0
DWIDTH 9 0
BBX 4 16 3 0
BITMAP
60
F0
F0
60
00
00
00
00
00
00
00
00
60
F0
F0
60
ENDCHAR
STARTCHAR 059
ENCODING 59
SWIDTH 648 0
DWIDTH 9 0
BBX 5 21 1 -5
BITMAP
30
78
78
30
00
00
00
00
00
00
00
00
30
78
78
38
18
10
30
60
C0
ENDCHAR
STARTCHAR 060
ENCODING 60
SWIDTH 1440 0
DWIDTH 20 0
BBX 16 18 2 -1
BITMAP
0001
0007
001F
007C
01F0
07C0
1F00
7C00
F000
F000
7C00
1F00
07C0
01F0
007C
001F
0007
0001
ENDCHAR
STARTCHAR 061
ENCODING 61
SWIDTH 1440 0
DWIDTH 20 0
BBX 16 8 2 4
BITMAP
FFFF
FFFF
0000
0000
0000
0000
FFFF
FFFF
ENDCHAR
STARTCHAR 062
ENCODING 62
SWIDTH 1440 0
DWIDTH 20 0
BBX 16 18 2 -1
BITMAP
8000
E000
F800
3E00
0F80
03E0
00F8
003E
000F
000F
003E
00F8
03E0
0F80
3E00
F800
E000
8000
ENDCHAR
STARTCHAR 063
ENCODING 63
SWIDTH 1008 0
DWIDTH 14 0
BBX 12 25 1 0
BITMAP
3F80
73E0
C0E0
C0F0
E070
E070
E070
00F0
00F0
01E0
01C0
0380
0300
0600
0400
0400
0C00
0C00
0000
0000
0000
0C00
1E00
1E00
0C00
ENDCHAR
STARTCHAR 064
ENCODING 64
SWIDTH 1800 0
DWIDTH 25 0
BBX 22 25 1 0
BITMAP
00FE00
03FF80
0F87C0
1E00E0
1C0070
300038
300018
60FB98
61CF8C
E38F8C
C7878C
C7070C
CF070C
CF0F08
CE0F18
CE0E18
CE1E30
663E60
677EC0
33E798
380038
1C0070
0F81E0
07FF80
00FE00
ENDCHAR
STARTCHAR 065
ENCODING 65
SWIDTH 1656 0
DWIDTH 23 0
BBX 23 25 0 0
BITMAP
001000
003800
003800
007800
007C00
007C00
00DC00
00DE00
019E00
018E00
018F00
030700
030780
030780
060380
07FFC0
07FFC0
0C01C0
0C01E0
0C01E0
1800F0
1800F0
3800F8
7C01FC
FE03FE
ENDCHAR
STARTCHAR 066
ENCODING 66
SWIDTH 1656 0
DWIDTH 23 0
BBX 20 25 1 0
BITMAP
FFFE00
3FFF80
0E07C0
0E01C0
0E01E0
0E01E0
0E01E0
0E01E0
0E01C0
0E01C0
0E0380
0FFF00
0FFC00
0E0F80
0E03C0
0E01E0
0E00F0
0E00F0
0E00F0
0E00F0
0E00F0
0E01E0
0E03E0
3FFFC0
FFFF00
ENDCHAR
STARTCHAR 067
ENCODING 67
SWIDTH 1584 0
DWIDTH 22 0
BBX 20 25 1 0
BITMAP
01FC60
07FF60
0E03E0
1C01E0
3C00E0
3800E0
780060
780060
F00020
F00020
F00000
F00000
F00000
F00000
F00000
F00000
F00030
780030
780030
780060
3C0060
1C00C0
0F0380
07FF00
01FC00
ENDCHAR
STARTCHAR 068
ENCODING 68
SWIDTH 1800 0
DWIDTH 25 0
BBX 22 25 1 0
BITMAP
FFFE00
3FFFC0
0E03E0
0E00F0
0E0070
0E0078
0E0078
0E003C
0E003C
0E003C
0E003C
0E003C
0E003C
0E003C
0E003C
0E003C
0E003C
0E003C
0E0038
0E0078
0E0070
0E00E0
0E03E0
3FFFC0
FFFE00
ENDCHAR
STARTCHAR 069
ENCODING 69
SWIDTH 1728 0
DWIDTH 24 0
BBX 20 25 1 0
BITMAP
FFFFF0
3FFFF0
0E01F0
0E0070
0E0070
0E0030
0E0430
0E0410
0E0410
0E0C00
0E3C00
0FFC00
0FFC00
0E3C00
0E0C00
0E0C00
0E0410
0E0410
0E0010
0E0030
0E0030
0E0070
0E01F0
3FFFF0
FFFFF0
ENDCHAR
STARTCHAR 070
ENCODING 70
SWIDTH 1584 0
DWIDTH 22 0
BBX 20 25 1 0
BITMAP
FFFFF0
3FFFF0
0E01F0
0E0070
0E0030
0E0030
0E0010
0E0410
0E0410
0E0C00
0E0C00
0E3C00
0FFC00
0FFC00
0E1C00
0E0C00
0E0400
0E0400
0E0400
0E0000
0E0000
0E0000
0E0000
3F8000
FFE000
ENDCHAR
STARTCHAR 071
ENCODING 71
SWIDTH 1800 0
DWIDTH 25 0
BBX 24 25 1 0
BITMAP
01FE30
07FFB0
0F03F0
1E00F0
3C0070
380070
780030
700030
700010
F00010
F00000
F00000
F00000
F00000
F007FF
F000F8
F00070
700070
700070
780070
3800F0
1C00F0
0F01B0
07FF30
01FE10
ENDCHAR
STARTCHAR 072
ENCODING 72
SWIDTH 1944 0
DWIDTH 27 0
BBX 25 25 1 0
BITMAP
FFE3FF80
3F80FE00
0E003800
0E003800
0E003800
0E003800
0E003800
0E003800
0E003800
0E003800
0E003800
0FFFF800
0FFFF800
0E003800
0E003800
0E003800
0E003800
0E003800
0E003800
0E003800
0E003800
0E003800
0E003800
3F80FE00
FFE3FF80
ENDCHAR
STARTCHAR 073
ENCODING 73
SWIDTH 936 0
DWIDTH 13 0
BBX 11 25 1 0
BITMAP
FFE0
3F80
0E00
0E00
0E00
0E00
0E00
0E00
0E00
0E00
0E00
0E00
0E00
0E00
0E00
0E00
0E00
0E00
0E00
0E00
0E00
0E00
0E00
3F80
FFE0
ENDCHAR
STARTCHAR 074
ENCODING 74
SWIDTH 1296 0
DWIDTH 18 0
BBX 17 25 0 0
BITMAP
03FF80
007C00
003800
003800
003800
003800
003800
003800
003800
003800
003800
003800
003800
003800
003800
003800
703800
F83800
F83800
F83800
F03800
C07800
E07000
7FF000
1FC000
ENDCHAR
STARTCHAR 075
ENCODING 75
SWIDTH 1872 0
DWIDTH 26 0
BBX 25 25 1 0
BITMAP
FFE3FF00
3F81FC00
0E00F000
0E00E000
0E01C000
0E018000
0E030000
0E060000
0E0E0000
0E1C0000
0E380000
0E7C0000
0EFE0000
0FDE0000
0F8F0000
0F078000
0E07C000
0E03C000
0E01E000
0E01F000
0E00F000
0E007800
0E007C00
3F003E00
FFC0FF80
ENDCHAR
STARTCHAR 076
ENCODING 76
SWIDTH 1584 0
DWIDTH 22 0
BBX 20 25 1 0
BITMAP
FFE000
3F8000
0E0000
0E0000
0E0000
0E0000
0E0000
0E0000
0E0000
0E0000
0E0000
0E0000
0E0000
0E0000
0E0000
0E0000
0E0010
0E0010
0E0010
0E0030
0E0030
0E0070
0E01F0
3FFFE0
FFFFE0
ENDCHAR
STARTCHAR 077
ENCODING 77
SWIDTH 2160 0
DWIDTH 30 0
BBX 29 25 0 0
BITMAP
7F800FF8
1F800FC0
0F800F80
0FC00F80
0DC01B80
0DC01B80
0DE01380
0CE03380
0CE03380
0CF02380
0C706380
0C706380
0C786380
0C38C380
0C38C380
0C3CC380
0C1C8380
0C1D8380
0C1F8380
0C1F0380
0C0F0380
0C0F0380
0C0E0380
3F060FE0
FFC63FF8
ENDCHAR
STARTCHAR 078
ENCODING 78
SWIDTH 2016 0
DWIDTH 28 0
BBX 26 25 1 0
BITMAP
FF00FFC0
1F003F00
0F800C00
0FC00C00
0FC00C00
0DE00C00
0DF00C00
0CF80C00
0C780C00
0C7C0C00
0C3E0C00
0C1E0C00
0C1F0C00
0C0F8C00
0C078C00
0C07CC00
0C03CC00
0C01EC00
0C00EC00
0C00FC00
0C007C00
0C003C00
0C003C00
3F001C00
FFC00C00
ENDCHAR
STARTCHAR 079
ENCODING 79
SWIDTH 1728 0
DWIDTH 24 0
BBX 22 25 1 0
BITMAP
01FE00
07FF80
0F03C0
1C00E0
3C00F0
380070
780078
700038
F0003C
F0003C
E0001C
E0001C
E0001C
E0001C
E0001C
F0003C
F00038
700038
780078
380070
3C00F0
1C00E0
0F03C0
07FF80
01FE00
ENDCHAR
STARTCHAR 080
ENCODING 80
SWIDTH 1584 0
DWIDTH 22 0
BBX 20 25 1 0
BITMAP
FFFE00
3FFF80
0E07C0
0E01E0
0E00F0
0E00F0
0E0070
0E0070
0E00F0
0E00F0
0E01E0
0E07C0
0FFF80
0FFE00
0E0000
0E0000
0E0000
0E0000
0E0000
0E0000
0E0000
0E0000
0E0000
3F8000
FFE000
ENDCHAR
STARTCHAR 081
ENCODING 81
SWIDTH 1728 0
DWIDTH 24 0
BBX 23 31 1 -6
BITMAP
00FE00
03FF80
0F01E0
1E00F0
3C0078
380038
78003C
70001C
F0001E
F0001E
E0000E
E0000E
E0000E
E0000E
F0001E
F0001E
707C1C
79DE3C
798738
3D0370
1D0370
1F03E0
0F83C0
03FF80
00FFC0
0003C6
0001C6
0001E4
0001FC
0000F8
000070
ENDCHAR
STARTCHAR 082
ENCODING 82
SWIDTH 1656 0
DWIDTH 23 0
BBX 21 25 1 0
BITMAP
FFFE00
3FFF80
0E07C0
0E01C0
0E01E0
0E00E0
0E00E0
0E01E0
0E01E0
0E01C0
0E03C0
0E0F00
0FFC00
0FFE00
0E0F00
0E0700
0E0780
0E0380
0E0380
0E0388
0E0388
0E0388
0E03D8
3F81F0
FFE1E0
ENDCHAR
STARTCHAR 083
ENCODING 83
SWIDTH 1440 0
DWIDTH 20 0
BBX 17 25 2 0
BITMAP
0FF100
3FFB00
701F00
600700
E00700
E00300
E00100
F00100
F00000
7E0000
7FE000
1FFC00
07FE00
007F00
000F80
800780
800380
C00380
C00380
C00380
E00780
F00700
F80E00
DFFC00
87F000
ENDCHAR
STARTCHAR 084
ENCODING 84
SWIDTH 1512 0
DWIDTH 21 0
BBX 19 25 1 0
BITMAP
FFFFE0
FFFFE0
F0E3E0
E0E0E0
C0E060
C0E060
80E020
80E020
80E020
00E000
00E000
00E000
00E000
00E000
00E000
00E000
00E000
00E000
00E000
00E000
00E000
00E000
00E000
03F800
0FFE00
ENDCHAR
STARTCHAR 085
ENCODING 85
SWIDTH 1872 0
DWIDTH 26 0
BBX 26 25 0 0
BITMAP
FFE0FFC0
3F803F00
0E000C00
0E000C00
0E000C00
0E000C00
0E000C00
0E000C00
0E000C00
0E000C00
0E000C00
0E000C00
0E000C00
0E000C00
0E000C00
0E000C00
0E000C00
0E000C00
0E000C00
0F001800
07001800
07803000
03E0F000
01FFC000
007F0000
ENDCHAR
STARTCHAR 086
ENCODING 86
SWIDTH 1656 0
DWIDTH 23 0
BBX 23 25 0 0
BITMAP
FFC3FE
3E00F8
1E0070
1E0070
0E0060
0F0060
0F0040
0700C0
0780C0
078080
038180
03C180
03C100
01C300
01E300
01E200
00E600
00F600
00F400
007C00
007C00
003800
003800
003800
001000
ENDCHAR
STARTCHAR 087
ENCODING 87
SWIDTH 2232 0
DWIDTH 31 0
BBX 31 25 0 0
BITMAP
FF1FF1FE
7E07C07C
3C038038
1C038030
1E03C030
1E03C060
0E03C060
0E03E060
0F03E060
0706E0C0
0706E0C0
0784F0C0
078C70C0
038C7180
038C7980
03C83980
01D83900
01F83F00
01F81F00
00F01F00
00F01E00
00F01E00
00E00E00
00600C00
00600C00
ENDCHAR
STARTCHAR 088
ENCODING 88
SWIDTH 1656 0
DWIDTH 23 0
BBX 23 25 0 0
BITMAP
FFC7FC
3F01F0
1F00E0
0F01C0
0F8180
078380
03C300
03E600
01EE00
00FC00
00F800
007800
007C00
007C00
00FE00
01DF00
018F00
038780
030780
0603C0
0E03E0
0C01E0
1C00F0
3E00F8
FF87FE
ENDCHAR
STARTCHAR 089
ENCODING 89
SWIDTH 1656 0
DWIDTH 23 0
BBX 23 25 0 0
BITMAP
FF83FE
7E00F8
3E0070
1E0060
0F00E0
0F00C0
078180
07C180
03C300
03E300
01E600
00F600
00FC00
007C00
007800
003800
003800
003800
003800
003800
003800
003800
003800
00FE00
03FF80
ENDCHAR
STARTCHAR 090
ENCODING 90
SWIDTH 1368 0
DWIDTH 19 0
BBX 17 25 1 0
BITMAP
7FFF80
7FFF80
780F00
700F00
601E00
603E00
603C00
407C00
407800
00F000
00F000
01E000
03E000
03C000
078000
078080
0F0080
1F0080
1E0180
3E0180
3C0180
780380
780780
FFFF80
FFFF80
ENDCHAR
STARTCHAR 091
ENCODING 91
SWIDTH 792 0
DWIDTH 11 0
BBX 7 29 3 -4
BITMAP
FE
C0
C0
C0
C0
C0
C0
C0
C0
C0
C0
C0
C0
C0
C0
C0
C0
C0
C0
C0
C0
C0
C0
C0
C0
C0
C0
C0
FE
ENDCHAR
STARTCHAR 092
ENCODING 92
SWIDTH 1440 0
DWIDTH 20 0
BBX 15 25 2 0
BITMAP
E000
7000
7000
3800
3800
1C00
1C00
0E00
0E00
0700
0700
0380
0380
0380
01C0
01C0
00E0
00E0
0070
0070
0038
0038
001C
001C
000E
ENDCHAR
STARTCHAR 093
ENCODING 93
SWIDTH 792 0
DWIDTH 11 0
BBX 7 29 1 -4
BITMAP
FE
06
06
06
06
06
06
06
06
06
06
06
06
06
06
06
06
06
06
06
06
06
06
06
06
06
06
06
FE
ENDCHAR
STARTCHAR 094
ENCODING 94
SWIDTH 1440 0
DWIDTH 20 0
BBX 16 13 2 12
BITMAP
03C0
03C0
07E0
07E0
0E70
0E70
1C38
1C38
381C
381C
700E
700E
E007
ENDCHAR
STARTCHAR 095
ENCODING 95
SWIDTH 1152 0
DWIDTH 16 0
BBX 16 2 0 -4
BITMAP
FFFF
FFFF
ENDCHAR
STARTCHAR 096
ENCODING 96
SWIDTH 792 0
DWIDTH 11 0
BBX 7 6 1 17
BITMAP
C0
E0
70
38
0C
06
ENDCHAR
STARTCHAR 097
ENCODING 97
SWIDTH 1224 0
DWIDTH 17 0
BBX 16 16 1 0
BITMAP
0FC0
3FF0
7878
7038
6038
0038
01F8
0FF8
3C38
7038
E038
E038
E078
F1FD
7F9F
3E0E
ENDCHAR
STARTCHAR 098
ENCODING 98
SWIDTH 1224 0
DWIDTH 17 0
BBX 15 25 0 0
BITMAP
1800
F800
3800
3800
3800
3800
3800
3800
3800
39E0
3BF8
3E1C
3C1C
3C0E
380E
380E
380E
380E
380E
380E
3C0E
3C1C
3E1C
37F8
21E0
ENDCHAR
STARTCHAR 099
ENCODING 99
SWIDTH 1008 0
DWIDTH 14 0
BBX 12 16 1 0
BITMAP
0780
1FE0
3870
70F0
70F0
E060
E000
E000
E000
E000
E000
7010
7030
3860
3FC0
0F80
ENDCHAR
STARTCHAR 100
ENCODING 100
SWIDTH 1296 0
DWIDTH 18 0
BBX 16 25 1 0
BITMAP
000C
007C
001C
001C
001C
001C
001C
001C
001C
079C
1FDC
387C
703C
703C
E01C
E01C
E01C
E01C
E01C
E01C
F03C
703C
787C
1FDC
079F
ENDCHAR
STARTCHAR 101
ENCODING 101
SWIDTH 1152 0
DWIDTH 16 0
BBX 14 16 1 0
BITMAP
07C0
1FF0
3878
7038
601C
E01C
E01C
FFFC
E000
E000
E000
F004
700C
7838
3FF0
0FC0
ENDCHAR
STARTCHAR 102
ENCODING 102
SWIDTH 1008 0
DWIDTH 14 0
BBX 14 25 0 0
BITMAP
01F8
071C
0E1C
0C1C
1C08
1C00
1C00
1C00
1C00
FFC0
1C00
1C00
1C00
1C00
1C00
1C00
1C00
1C00
1C00
1C00
1C00
1C00
1C00
1C00
FFC0
ENDCHAR
STARTCHAR 103
ENCODING 103
SWIDTH 1224 0
DWIDTH 17 0
BBX 16 23 1 -7
BITMAP
079F
1FFB
3873
7038
7038
7038
7038
7038
3870
1FE0
3780
6000
6000
7FE0
7FF8
3FFC
303E
600E
E00E
E00E
F83C
7FF8
0FC0
ENDCHAR
STARTCHAR 104
ENCODING 104
SWIDTH 1440 0
DWIDTH 20 0
BBX 19 25 0 0
BITMAP
0C0000
FC0000
1C0000
1C0000
1C0000
1C0000
1C0000
1C0000
1C0000
1C7000
1DFC00
1F1E00
1E0E00
1C0700
1C0700
1C0700
1C0700
1C0700
1C0700
1C0700
1C0700
1C0700
1C0700
1C0700
FF3FE0
ENDCHAR
STARTCHAR 105
ENCODING 105
SWIDTH 720 0
DWIDTH 10 0
BBX 9 24 1 0
BITMAP
1800
3C00
3C00
1800
0000
0000
0000
0000
1C00
FC00
1C00
1C00
1C00
1C00
1C00
1C00
1C00
1C00
1C00
1C00
1C00
1C00
1C00
FF80
ENDCHAR
STARTCHAR 106
ENCODING 106
SWIDTH 720 0
DWIDTH 10 0
BBX 7 31 0 -7
BITMAP
0C
1E
1E
0C
00
00
00
00
0E
7E
0E
0E
0E
0E
0E
0E
0E
0E
0E
0E
0E
0E
0E
0E
0E
0E
0E
8C
8C
98
F0
ENDCHAR
STARTCHAR 107
ENCODING 107
SWIDTH 1440 0
DWIDTH 20 0
BBX 19 25 0 0
BITMAP
0C0000
FC0000
1C0000
1C0000
1C0000
1C0000
1C0000
1C0000
1C0000
1C7F80
1C1E00
1C1800
1C3000
1C6000
1CC000
1DC000
1FE000
1EF000
1C7800
1C3C00
1C1C00
1C0E00
1C0F00
1C0780
FF1FE0
ENDCHAR
STARTCHAR 108
ENCODING 108
SWIDTH 792 0
DWIDTH 11 0
BBX 9 25 1 0
BITMAP
0C00
1C00
FC00
1C00
1C00
1C00
1C00
1C00
1C00
1C00
1C00
1C00
1C00
1C00
1C00
1C00
1C00
1C00
1C00
1C00
1C00
1C00
1C00
1C00
FF80
ENDCHAR
STARTCHAR 109
ENCODING 109
SWIDTH 1944 0
DWIDTH 27 0
BBX 27 16 0 0
BITMAP
1CF07800
FDFCFE00
1F1D8E00
1E0F0700
1E0F0700
1C0E0700
1C0E0700
1C0E0700
1C0E0700
1C0E0700
1C0E0700
1C0E0700
1C0E0700
1C0E0700
1C0E0700
FF3F9FE0
ENDCHAR
STARTCHAR 110
ENCODING 110
SWIDTH 1368 0
DWIDTH 19 0
BBX 19 16 0 0
BITMAP
1C7800
FDFE00
1F8E00
1E0700
1E0700
1C0700
1C0700
1C0700
1C0700
1C0700
1C0700
1C0700
1C0700
1C0700
1C0700
FF1FE0
ENDCHAR
STARTCHAR 111
ENCODING 111
SWIDTH 1152 0
DWIDTH 16 0
BBX 14 16 1 0
BITMAP
0780
1FE0
3870
7038
7038
E01C
E01C
E01C
E01C
E01C
E01C
7038
7038
3870
1FE0
0780
ENDCHAR
STARTCHAR 112
ENCODING 112
SWIDTH 1368 0
DWIDTH 19 0
BBX 16 23 1 -7
BITMAP
19F0
FBFC
3E1E
3C0E
3C07
3807
3807
3807
3807
3807
3807
3C0E
3C0E
3E1C
3BFC
39F0
3800
3800
3800
3800
3800
7C00
FF00
ENDCHAR
STARTCHAR 113
ENCODING 113
SWIDTH 1224 0
DWIDTH 17 0
BBX 16 23 1 -7
BITMAP
07C4
1FEC
383C
703C
701C
E01C
E01C
E01C
E01C
E01C
E01C
F03C
703C
387C
3FDC
0F9C
001C
001C
001C
001C
001C
003E
00FF
ENDCHAR
STARTCHAR 114
ENCODING 114
SWIDTH 1080 0
DWIDTH 15 0
BBX 14 16 0 0
BITMAP
1C78
FDFC
1F3C
1E3C
1E18
1C00
1C00
1C00
1C00
1C00
1C00
1C00
1C00
1C00
1C00
FF80
ENDCHAR
STARTCHAR 115
ENCODING 115
SWIDTH 1080 0
DWIDTH 15 0
BBX 11 16 2 0
BITMAP
1EC0
7FC0
E1C0
C0C0
C0C0
F040
FE00
7F80
3FC0
07E0
80E0
C060
C060
E0E0
FFC0
9F00
ENDCHAR
STARTCHAR 116
ENCODING 116
SWIDTH 936 0
DWIDTH 13 0
BBX 12 23 0 0
BITMAP
0400
0400
0C00
0C00
1C00
1C00
3C00
FFE0
1C00
1C00
1C00
1C00
1C00
1C00
1C00
1C00
1C10
1C10
1C30
1C30
1E60
0FE0
07C0
ENDCHAR
STARTCHAR 117
ENCODING 117
SWIDTH 1440 0
DWIDTH 20 0
BBX 18 16 0 0
BITMAP
1C0700
FC3F00
1C0700
1C0700
1C0700
1C0700
1C0700
1C0700
1C0700
1C0700
1C0700
1C0F00
1C0F00
1E3F00
0FF7C0
07C700
ENDCHAR
STARTCHAR 118
ENCODING 118
SWIDTH 1224 0
DWIDTH 17 0
BBX 17 16 0 0
BITMAP
FF1F80
7C0700
3C0600
1E0600
1E0C00
0E0C00
0F0800
071800
071800
07B000
03B000
03E000
01E000
01E000
00C000
00C000
ENDCHAR
STARTCHAR 119
ENCODING 119
SWIDTH 1728 0
DWIDTH 24 0
BBX 24 16 0 0
BITMAP
FE7F3F
783C0E
381C0C
3C1C1C
1C1E18
1C1E18
0E3610
0E2730
0F6730
076760
074360
03C3C0
03C3C0
0381C0
018180
018180
ENDCHAR
STARTCHAR 120
ENCODING 120
SWIDTH 1368 0
DWIDTH 19 0
BBX 16 16 1 0
BITMAP
FF7F
3C1C
1E18
0E30
0F30
0760
03C0
03C0
01E0
03E0
0670
0C78
1C38
383C
781E
FE7F
ENDCHAR
STARTCHAR 121
ENCODING 121
SWIDTH 1440 0
DWIDTH 20 0
BBX 18 23 1 -7
BITMAP
FF1FC0
3C0700
3C0600
1C0600
1E0C00
0E0C00
0F0800
071800
071800
07B000
03B000
03E000
01E000
01E000
00C000
00C000
018000
018000
630000
F30000
E60000
FC0000
700000
ENDCHAR
STARTCHAR 122
ENCODING 122
SWIDTH 1080 0
DWIDTH 15 0
BBX 13 16 1 0
BITMAP
7FF8
7878
60F0
60E0
41E0
43C0
0380
0780
0F00
0E00
1E08
3C08
3818
7838
F0F8
FFF8
ENDCHAR
STARTCHAR 123
ENCODING 123
SWIDTH 792 0
DWIDTH 11 0
BBX 6 30 3 -4
BITMAP
0C
1C
38
30
30
30
30
30
30
30
30
30
30
70
E0
E0
70
30
30
30
30
30
30
30
30
30
30
38
1C
0C
ENDCHAR
STARTCHAR 124
ENCODING 124
SWIDTH 1440 0
DWIDTH 20 0
BBX 2 25 9 0
BITMAP
C0
C0
C0
C0
C0
C0
C0
C0
C0
C0
C0
C0
C0
C0
C0
C0
C0
C0
C0
C0
C0
C0
C0
C0
C0
ENDCHAR
STARTCHAR 125
ENCODING 125
SWIDTH 792 0
DWIDTH 11 0
BBX 6 30 2 -4
BITMAP
C0
E0
70
30
30
30
30
30
30
30
30
30
30
38
1C
1C
38
30
30
30
30
30
30
30
30
30
30
70
E0
C0
ENDCHAR
STARTCHAR 126
ENCODING 126
SWIDTH 1440 0
DWIDTH 20 0
BBX 16 4 2 6
BITMAP
1E03
7F87
E1FE
C078
ENDCHAR
STARTCHAR 127
ENCODING 127
SWIDTH 72 0
DWIDTH 1 0
BBX 0 0 0 0
BITMAP
ENDCHAR
STARTCHAR 128
ENCODING 128
SWIDTH 72 0
DWIDTH 1 0
BBX 0 0 0 0
BITMAP
ENDCHAR
STARTCHAR 129
ENCODING 129
SWIDTH 72 0
DWIDTH 1 0
BBX 0 0 0 0
BITMAP
ENDCHAR
STARTCHAR 130
ENCODING 130
SWIDTH 72 0
DWIDTH 1 0
BBX 0 0 0 0
BITMAP
ENDCHAR
STARTCHAR 131
ENCODING 131
SWIDTH 72 0
DWIDTH 1 0
BBX 0 0 0 0
BITMAP
ENDCHAR
STARTCHAR 132
ENCODING 132
SWIDTH 72 0
DWIDTH 1 0
BBX 0 0 0 0
BITMAP
ENDCHAR
STARTCHAR 133
ENCODING 133
SWIDTH 72 0
DWIDTH 1 0
BBX 0 0 0 0
BITMAP
ENDCHAR
STARTCHAR 134
ENCODING 134
SWIDTH 1656 0
DWIDTH 23 0
BBX 23 28 0 0
BITMAP
020000
030000
030000
011000
003800
003800
007800
007C00
007C00
00DC00
00DE00
019E00
018E00
018F00
030700
030780
030780
060380
07FFC0
07FFC0
0C01C0
0C01E0
0C01E0
1800F0
1800F0
3800F8
7C01FC
FE03FE
ENDCHAR
STARTCHAR 135
ENCODING 135
SWIDTH 72 0
DWIDTH 1 0
BBX 0 0 0 0
BITMAP
ENDCHAR
STARTCHAR 136
ENCODING 136
SWIDTH 1728 0
DWIDTH 24 0
BBX 21 29 0 0
BITMAP
800000
C00000
400000
000000
7FFFF8
1FFFF8
0700F8
070038
070038
070018
070218
070208
070208
070600
071E00
07FE00
07FE00
071E00
070600
070600
070208
070208
070008
070018
070018
070038
0700F8
1FFFF8
7FFFF8
ENDCHAR
STARTCHAR 137
ENCODING 137
SWIDTH 1944 0
DWIDTH 27 0
BBX 26 29 0 0
BITMAP
80000000
C0000000
40000000
00000000
7FF1FFC0
1FC07F00
07001C00
07001C00
07001C00
07001C00
07001C00
07001C00
07001C00
07001C00
07001C00
07FFFC00
07FFFC00
07001C00
07001C00
07001C00
07001C00
07001C00
07001C00
07001C00
07001C00
07001C00
07001C00
1FC07F00
7FF1FFC0
ENDCHAR
STARTCHAR 138
ENCODING 138
SWIDTH 936 0
DWIDTH 13 0
BBX 12 29 0 0
BITMAP
8000
C000
4000
0000
7FF0
1FC0
0700
0700
0700
0700
0700
0700
0700
0700
0700
0700
0700
0700
0700
0700
0700
0700
0700
0700
0700
0700
0700
1FC0
7FF0
ENDCHAR
STARTCHAR 139
ENCODING 139
SWIDTH 72 0
DWIDTH 1 0
BBX 0 0 0 0
BITMAP
ENDCHAR
STARTCHAR 140
ENCODING 140
SWIDTH 1728 0
DWIDTH 24 0
BBX 23 29 0 0
BITMAP
800000
C00000
600000
200000
00FF00
03FFC0
0781E0
0E0070
1E0078
1C0038
3C003C
38001C
78001E
78001E
70000E
70000E
70000E
70000E
70000E
78001E
78001C
38001C
3C003C
1C0038
1E0078
0E0070
0781E0
03FFC0
00FF00
ENDCHAR
STARTCHAR 141
ENCODING 141
SWIDTH 72 0
DWIDTH 1 0
BBX 0 0 0 0
BITMAP
ENDCHAR
STARTCHAR 142
ENCODING 142
SWIDTH 1656 0
DWIDTH 23 0
BBX 23 29 0 0
BITMAP
800000
C00000
400000
000000
FF83FE
7E00F8
3E0070
1E0060
0F00E0
0F00C0
078180
07C180
03C300
03E300
01E600
00F600
00FC00
007C00
007800
003800
003800
003800
003800
003800
003800
003800
003800
00FE00
03FF80
ENDCHAR
STARTCHAR 143
ENCODING 143
SWIDTH 1800 0
DWIDTH 25 0
BBX 24 28 0 1
BITMAP
800000
C00000
600000
207F00
01FFC0
07FFF0
0F80F8
1F007C
1E003C
3C001E
38000E
78000F
700007
700007
700007
700007
700007
78000F
78000F
3C001E
1F007C
0F80F8
03C1E0
21C1C2
31C1C6
33C1E6
3FC1FE
3FC1FE
ENDCHAR
STARTCHAR 144
ENCODING 144
SWIDTH 864 0
DWIDTH 12 0
BBX 10 25 1 2
BITMAP
0300
0600
CCC0
D8C0
C0C0
0000
0000
FE00
FC00
3800
3800
3800
3800
3800
3800
3800
3800
3800
3800
3800
3800
3C00
1F80
0F80
0700
ENDCHAR
STARTCHAR 145
ENCODING 145
SWIDTH 1656 0
DWIDTH 23 0
BBX 23 25 0 0
BITMAP
001000
003800
003800
007800
007C00
007C00
00DC00
00DE00
019E00
018E00
018F00
030700
030780
030780
060380
07FFC0
07FFC0
0C01C0
0C01E0
0C01E0
1800F0
1800F0
3800F8
7C01FC
FE03FE
ENDCHAR
STARTCHAR 146
ENCODING 146
SWIDTH 1656 0
DWIDTH 23 0
BBX 20 25 1 0
BITMAP
FFFE00
3FFF80
0E07C0
0E01C0
0E01E0
0E01E0
0E01E0
0E01E0
0E01C0
0E01C0
0E0380
0FFF00
0FFC00
0E0F80
0E03C0
0E01E0
0E00F0
0E00F0
0E00F0
0E00F0
0E00F0
0E01E0
0E03E0
3FFFC0
FFFF00
ENDCHAR
STARTCHAR 147
ENCODING 147
SWIDTH 1584 0
DWIDTH 22 0
BBX 20 25 1 0
BITMAP
FFFFE0
3FFFE0
0E01F0
0E0070
0E0030
0E0030
0E0010
0E0010
0E0010
0E0000
0E0000
0E0000
0E0000
0E0000
0E0000
0E0000
0E0000
0E0000
0E0000
0E0000
0E0000
0E0000
0E0000
3F8000
FFE000
ENDCHAR
STARTCHAR 148
ENCODING 148
SWIDTH 1656 0
DWIDTH 23 0
BBX 23 25 0 0
BITMAP
001000
003800
003800
003800
007C00
007C00
005E00
00DE00
00CE00
008F00
018F00
018700
010780
030780
030380
0203C0
0603C0
0601C0
0401E0
0C01E0
0C00E0
1800F0
1800F0
3FFFF8
FFFFFE
ENDCHAR
STARTCHAR 149
ENCODING 149
SWIDTH 1728 0
DWIDTH 24 0
BBX 20 25 1 0
BITMAP
FFFFF0
3FFFF0
0E01F0
0E0070
0E0070
0E0030
0E0430
0E0410
0E0410
0E0C00
0E3C00
0FFC00
0FFC00
0E3C00
0E0C00
0E0C00
0E0410
0E0410
0E0010
0E0030
0E0030
0E0070
0E01F0
3FFFF0
FFFFF0
ENDCHAR
STARTCHAR 150
ENCODING 150
SWIDTH 1368 0
DWIDTH 19 0
BBX 17 25 1 0
BITMAP
7FFF80
7FFF80
780F00
700F00
601E00
603E00
603C00
407C00
407800
00F000
00F000
01E000
03E000
03C000
078000
078080
0F0080
1F0080
1E0180
3E0180
3C0180
780380
780780
FFFF80
FFFF80
ENDCHAR
STARTCHAR 151
ENCODING 151
SWIDTH 1944 0
DWIDTH 27 0
BBX 25 25 1 0
BITMAP
FFE3FF80
3F80FE00
0E003800
0E003800
0E003800
0E003800
0E003800
0E003800
0E003800
0E003800
0E003800
0FFFF800
0FFFF800
0E003800
0E003800
0E003800
0E003800
0E003800
0E003800
0E003800
0E003800
0E003800
0E003800
3F80FE00
FFE3FF80
ENDCHAR
STARTCHAR 152
ENCODING 152
SWIDTH 1728 0
DWIDTH 24 0
BBX 22 25 1 0
BITMAP
01FE00
07FF80
0F03C0
1C00E0
3C00F0
380070
780078
700038
F0003C
F0003C
E0001C
FFFFFC
FFFFFC
E0001C
E0001C
F0003C
F00038
700038
780078
380070
3C00F0
1C00E0
0F03C0
07FF80
01FE00
ENDCHAR
STARTCHAR 153
ENCODING 153
SWIDTH 936 0
DWIDTH 13 0
BBX 11 25 1 0
BITMAP
FFE0
3F80
0E00
0E00
0E00
0E00
0E00
0E00
0E00
0E00
0E00
0E00
0E00
0E00
0E00
0E00
0E00
0E00
0E00
0E00
0E00
0E00
0E00
3F80
FFE0
ENDCHAR
STARTCHAR 154
ENCODING 154
SWIDTH 1872 0
DWIDTH 26 0
BBX 25 25 1 0
BITMAP
FFE3FF00
3F81FC00
0E00F000
0E00E000
0E01C000
0E018000
0E030000
0E060000
0E0E0000
0E1C0000
0E380000
0E7C0000
0EFE0000
0FDE0000
0F8F0000
0F078000
0E07C000
0E03C000
0E01E000
0E01F000
0E00F000
0E007800
0E007C00
3F003E00
FFC0FF80
ENDCHAR
STARTCHAR 155
ENCODING 155
SWIDTH 1656 0
DWIDTH 23 0
BBX 23 25 0 0
BITMAP
001000
003800
003800
003800
007C00
007C00
005E00
00DE00
00CE00
008F00
018F00
018700
010780
030780
030380
0203C0
0603C0
0601C0
0401E0
0C01E0
0C00E0
1C00F0
1C00F0
3E00F8
FF87FE
ENDCHAR
STARTCHAR 156
ENCODING 156
SWIDTH 2160 0
DWIDTH 30 0
BBX 29 25 0 0
BITMAP
7F800FF8
1F800FC0
0F800F80
0FC00F80
0DC01B80
0DC01B80
0DE01380
0CE03380
0CE03380
0CF02380
0C706380
0C706380
0C786380
0C38C380
0C38C380
0C3CC380
0C1C8380
0C1D8380
0C1F8380
0C1F0380
0C0F0380
0C0F0380
0C0E0380
3F060FE0
FFC63FF8
ENDCHAR
STARTCHAR 157
ENCODING 157
SWIDTH 2016 0
DWIDTH 28 0
BBX 26 25 1 0
BITMAP
FF00FFC0
1F003F00
0F800C00
0FC00C00
0FC00C00
0DE00C00
0DF00C00
0CF80C00
0C780C00
0C7C0C00
0C3E0C00
0C1E0C00
0C1F0C00
0C0F8C00
0C078C00
0C07CC00
0C03CC00
0C01EC00
0C00EC00
0C00FC00
0C007C00
0C003C00
0C003C00
3F001C00
FFC00C00
ENDCHAR
STARTCHAR 158
ENCODING 158
SWIDTH 1368 0
DWIDTH 19 0
BBX 16 25 2 0
BITMAP
FFFF
FFFF
F00F
E007
C003
C003
C003
8001
8001
0000
0000
07E0
07E0
07E0
0000
8001
8001
8001
C003
C003
C003
E007
F00F
FFFF
FFFF
ENDCHAR
STARTCHAR 159
ENCODING 159
SWIDTH 1728 0
DWIDTH 24 0
BBX 22 25 1 0
BITMAP
01FE00
07FF80
0F03C0
1C00E0
3C00F0
380070
780078
700038
F0003C
F0003C
E0001C
E0001C
E0001C
E0001C
E0001C
F0003C
F00038
700038
780078
380070
3C00F0
1C00E0
0F03C0
07FF80
01FE00
ENDCHAR
STARTCHAR 160
ENCODING 160
SWIDTH 1944 0
DWIDTH 27 0
BBX 25 25 1 0
BITMAP
FFFFFF80
3FFFFE00
1FFFFC00
0E003800
0E003800
0E003800
0E003800
0E003800
0E003800
0E003800
0E003800
0E003800
0E003800
0E003800
0E003800
0E003800
0E003800
0E003800
0E003800
0E003800
0E003800
0E003800
0E003800
3F80FE00
FFE3FF80
ENDCHAR
STARTCHAR 161
ENCODING 161
SWIDTH 1584 0
DWIDTH 22 0
BBX 20 25 1 0
BITMAP
FFFE00
3FFF80
0E07C0
0E01E0
0E00F0
0E00F0
0E0070
0E0070
0E00F0
0E00F0
0E01E0
0E07C0
0FFF80
0FFE00
0E0000
0E0000
0E0000
0E0000
0E0000
0E0000
0E0000
0E0000
0E0000
3F8000
FFE000
ENDCHAR
STARTCHAR 162
ENCODING 162
SWIDTH 936 0
DWIDTH 13 0
BBX 9 9 2 14
BITMAP
3E00
7700
C180
C180
8080
C180
C180
7700
3E00
ENDCHAR
STARTCHAR 163
ENCODING 163
SWIDTH 1440 0
DWIDTH 20 0
BBX 16 25 2 1
BITMAP
FFFF
FFFF
FFFF
E003
7001
3800
1C00
0E00
0700
0380
01C0
00E0
0060
00E0
01C0
0380
0700
0E00
1C00
3800
7001
E003
FFFF
FFFF
FFFF
ENDCHAR
STARTCHAR 164
ENCODING 164
SWIDTH 1512 0
DWIDTH 21 0
BBX 19 25 1 0
BITMAP
FFFFE0
FFFFE0
F0E3E0
E0E0E0
C0E060
C0E060
80E020
80E020
80E020
00E000
00E000
00E000
00E000
00E000
00E000
00E000
00E000
00E000
00E000
00E000
00E000
00E000
00E000
03F800
0FFE00
ENDCHAR
STARTCHAR 165
ENCODING 165
SWIDTH 1656 0
DWIDTH 23 0
BBX 23 25 0 0
BITMAP
FF83FE
7E00F8
3E0070
1E0060
0F00E0
0F00C0
078180
07C180
03C300
03E300
01E600
00F600
00FC00
007C00
007800
003800
003800
003800
003800
003800
003800
003800
003800
00FE00
03FF80
ENDCHAR
STARTCHAR 166
ENCODING 166
SWIDTH 1728 0
DWIDTH 24 0
BBX 19 27 3 0
BITMAP
03F800
00E000
00E000
03F800
1FFF00
3FFF80
7CE7C0
78E3C0
F0E1E0
E0E0E0
E0E0E0
E0E0E0
E0E0E0
E0E0E0
E0E0E0
E0E0E0
E0E0E0
F0E1E0
78E3C0
7CE7C0
3FFF80
1FFF00
03F800
00E000
00E000
00E000
07FC00
ENDCHAR
STARTCHAR 167
ENCODING 167
SWIDTH 1656 0
DWIDTH 23 0
BBX 23 25 0 0
BITMAP
FFC7FC
3F01F0
1F00E0
0F01C0
0F8180
078380
03C300
03E600
01EE00
00FC00
00F800
007800
007C00
007C00
00FE00
01DF00
018F00
038780
030780
0603C0
0E03E0
0C01E0
1C00F0
3E00F8
FF87FE
ENDCHAR
STARTCHAR 168
ENCODING 168
SWIDTH 1728 0
DWIDTH 24 0
BBX 21 25 2 0
BITMAP
F800F8
700070
707070
707070
707070
707070
707070
707070
707070
707070
707070
7870F0
3C71E0
3E73E0
1FFFC0
0FFF80
01FC00
007000
007000
007000
007000
007000
007000
01FC00
03FE00
ENDCHAR
STARTCHAR 169
ENCODING 169
SWIDTH 1800 0
DWIDTH 25 0
BBX 23 25 1 1
BITMAP
00FE00
03FF80
0FFFE0
1F01F0
3E00F8
3C0078
78003C
70001C
F0001E
E0000E
E0000E
E0000E
E0000E
E0000E
F0001E
F0001E
78003C
3E00F8
1F01F0
0783C0
438384
63838C
6783CC
7F83FC
7F83FC
ENDCHAR
STARTCHAR 170
ENCODING 170
SWIDTH 936 0
DWIDTH 13 0
BBX 11 29 1 0
BITMAP
60C0
60C0
0000
0000
FFE0
3F80
0E00
0E00
0E00
0E00
0E00
0E00
0E00
0E00
0E00
0E00
0E00
0E00
0E00
0E00
0E00
0E00
0E00
0E00
0E00
0E00
0E00
3F80
FFE0
ENDCHAR
STARTCHAR 171
ENCODING 171
SWIDTH 1656 0
DWIDTH 23 0
BBX 23 29 0 0
BITMAP
300060
300060
000000
000000
FF83FE
7E00F8
3E0070
1E0060
0F00E0
0F00C0
078180
07C180
03C300
03E300
01E600
00F600
00FC00
007C00
007800
003800
003800
003800
003800
003800
003800
003800
003800
00FE00
03FF80
ENDCHAR
STARTCHAR 172
ENCODING 172
SWIDTH 1296 0
DWIDTH 18 0
BBX 17 24 1 1
BITMAP
006000
00C000
018000
030000
000000
000000
000000
000000
0FE380
3FF780
703E00
E01E00
E01E00
E00E00
E00E00
E00E00
E00E00
E00E00
E00E00
E00E00
E01E00
703E00
3FF780
0FE380
ENDCHAR
STARTCHAR 173
ENCODING 173
SWIDTH 1296 0
DWIDTH 18 0
BBX 14 24 3 1
BITMAP
0180
0300
0600
0C00
0000
0000
0000
1FE0
7FF0
FFF8
E038
E01C
E000
7800
3C00
1C00
3C00
7800
E000
E01C
E038
FFF8
7FF0
1FE0
ENDCHAR
STARTCHAR 174
ENCODING 174
SWIDTH 1296 0
DWIDTH 18 0
BBX 17 27 1 -2
BITMAP
006000
00C000
018000
030000
000000
000000
000000
F8F000
FBFC00
3FFE00
3E0F00
3C0700
3C0700
380700
380700
380700
380700
380700
380700
380700
380700
380700
380700
000700
000700
000F80
000F80
ENDCHAR
STARTCHAR 175
ENCODING 175
SWIDTH 864 0
DWIDTH 12 0
BBX 9 24 2 0
BITMAP
0600
0C00
1800
3000
0000
0000
0000
FE00
7C00
3800
3800
3800
3800
3800
3800
3800
3800
3800
3800
3800
3C00
1F80
0F80
0700
ENDCHAR
STARTCHAR 176
ENCODING 176
SWIDTH 1296 0
DWIDTH 18 0
BBX 15 25 2 0
BITMAP
0060
00C0
E19C
E31C
0000
0000
0000
0000
F83E
F83E
3838
3838
3838
3838
3838
3838
3838
3838
3838
3838
3838
3C78
1FF0
1FF0
07C0
ENDCHAR
STARTCHAR 177
ENCODING 177
SWIDTH 1296 0
DWIDTH 18 0
BBX 17 16 1 1
BITMAP
0FE380
3FF780
703E00
E01E00
E01E00
E00E00
E00E00
E00E00
E00E00
E00E00
E00E00
E00E00
E01E00
703E00
3FF780
0FE380
ENDCHAR
STARTCHAR 178
ENCODING 178
SWIDTH 1512 0
DWIDTH 21 0
BBX 17 29 2 -3
BITMAP
0FF800
1FFE00
3FFF00
381F00
700780
700780
700380
700380
700780
700700
71FF00
71FE00
71FE00
700700
700780
700380
700380
700380
780780
7C1F80
7FFF00
7FFE00
77FC00
700000
700000
700000
700000
F80000
F80000
ENDCHAR
STARTCHAR 179
ENCODING 179
SWIDTH 1224 0
DWIDTH 17 0
BBX 16 21 1 -4
BITMAP
F00F
F81F
381C
381C
3838
1C38
1C38
1C70
1E70
0E70
0EE0
0FE0
07E0
07C0
07C0
0380
0380
0380
0380
0380
0380
ENDCHAR
STARTCHAR 180
ENCODING 180
SWIDTH 1296 0
DWIDTH 18 0
BBX 15 24 2 1
BITMAP
07C0
1FF0
3FF8
783C
701C
701C
7000
7000
7800
3C00
1FC0
1FE0
3FF8
783C
701C
E00E
E00E
E00E
E00E
F01C
783C
3FF8
1FF0
07C0
ENDCHAR
STARTCHAR 181
ENCODING 181
SWIDTH 1296 0
DWIDTH 18 0
BBX 14 17 3 1
BITMAP
1FE0
7FF0
FFF8
E038
E01C
E000
7800
3C00
1C00
3C00
7800
E000
E01C
E038
FFF8
7FF0
1FE0
ENDCHAR
STARTCHAR 182
ENCODING 182
SWIDTH 1080 0
DWIDTH 15 0
BBX 10 25 3 -1
BITMAP
FFC0
FFC0
FFC0
03C0
0780
0F00
1E00
3C00
7800
F000
E000
E000
E000
E000
7800
3C00
1E00
0F00
0700
0700
0700
0F00
7E00
7C00
7800
ENDCHAR
STARTCHAR 183
ENCODING 183
SWIDTH 1296 0
DWIDTH 18 0
BBX 17 20 1 -2
BITMAP
F8F000
FBFC00
3FFE00
3E0F00
3C0700
3C0700
380700
380700
380700
380700
380700
380700
380700
380700
380700
380700
000700
000700
000F80
000F80
ENDCHAR
STARTCHAR 184
ENCODING 184
SWIDTH 1512 0
DWIDTH 21 0
BBX 14 23 4 0
BITMAP
1FE0
3FF0
7FF8
7038
E01C
E01C
E01C
E01C
E01C
E01C
FFFC
FFFC
FFFC
E01C
E01C
E01C
E01C
E01C
E01C
7038
7FF8
3FF0
1FE0
ENDCHAR
STARTCHAR 185
ENCODING 185
SWIDTH 864 0
DWIDTH 12 0
BBX 9 17 2 0
BITMAP
FE00
7C00
3800
3800
3800
3800
3800
3800
3800
3800
3800
3800
3800
3C00
1F80
0F80
0700
ENDCHAR
STARTCHAR 186
ENCODING 186
SWIDTH 1152 0
DWIDTH 16 0
BBX 14 16 1 1
BITMAP
F83C
F87C
7078
70F0
71E0
73C0
7780
7F00
7F00
7F00
7F80
73C0
71E0
70F0
F878
F8FC
ENDCHAR
STARTCHAR 187
ENCODING 187
SWIDTH 1296 0
DWIDTH 18 0
BBX 14 22 2 1
BITMAP
7F80
7FC0
7FE0
60F0
6070
0070
0070
0070
1FF0
3FF0
7FF0
7070
7070
7070
7070
7070
7070
7070
7070
7070
F07C
F07C
ENDCHAR
STARTCHAR 188
ENCODING 188
SWIDTH 1440 0
DWIDTH 20 0
BBX 17 22 2 -5
BITMAP
F83E00
380E00
380E00
380E00
380E00
380E00
380E00
380E00
380E00
380E00
380E00
381E00
381E00
3C7E00
3FEF80
3BC780
380000
380000
380000
380000
380000
380000
ENDCHAR
STARTCHAR 189
ENCODING 189
SWIDTH 1224 0
DWIDTH 17 0
BBX 15 17 1 0
BITMAP
E00E
E00E
F01E
701C
701C
3838
3838
3838
1C70
1C70
1C70
0EE0
0EE0
0EE0
07C0
07C0
0380
ENDCHAR
STARTCHAR 190
ENCODING 190
SWIDTH 1080 0
DWIDTH 15 0
BBX 10 25 3 -1
BITMAP
FFC0
FFC0
7FC0
0E00
1C00
3800
3000
6000
6000
7000
3E00
3E00
7000
6000
6000
7000
3C00
3E00
1F00
0300
0300
0F00
7F00
7E00
7C00
ENDCHAR
STARTCHAR 191
ENCODING 191
SWIDTH 1296 0
DWIDTH 18 0
BBX 15 17 2 0
BITMAP
0FE0
1FF0
3838
701C
701C
E00E
E00E
E00E
E00E
E00E
E00E
E00E
701C
701C
3838
1FF0
07C0
ENDCHAR
STARTCHAR 192
ENCODING 192
SWIDTH 1224 0
DWIDTH 17 0
BBX 14 16 2 1
BITMAP
FFFC
FFFC
7FF8
7038
7038
7038
7038
7038
7038
7038
7038
7038
7038
7038
7038
F87C
ENDCHAR
STARTCHAR 193
ENCODING 193
SWIDTH 1296 0
DWIDTH 18 0
BBX 16 22 1 -4
BITMAP
03E0
0FF8
1FFC
3C1E
380E
780F
7007
7007
7007
7007
7007
780F
780F
7C1E
7FFC
77F8
73E0
7000
7000
7000
F800
F800
ENDCHAR
STARTCHAR 194
ENCODING 194
SWIDTH 1224 0
DWIDTH 17 0
BBX 11 22 3 -4
BITMAP
1F00
3F80
7FE0
71E0
E0E0
C060
C000
C000
C000
C000
C000
E000
FF00
7F80
3FC0
00E0
0060
0060
0060
0FE0
0FC0
0FC0
ENDCHAR
STARTCHAR 195
ENCODING 195
SWIDTH 1440 0
DWIDTH 20 0
BBX 18 18 1 0
BITMAP
03FFC0
0FFFC0
1FFFC0
3FF800
783C00
701C00
F01E00
E00E00
E00E00
E00E00
E00E00
E00E00
F01E00
F01E00
783C00
3FF800
1FF000
07C000
ENDCHAR
STARTCHAR 196
ENCODING 196
SWIDTH 1224 0
DWIDTH 17 0
BBX 13 17 2 1
BITMAP
FFF8
FFF8
FFF8
0700
0700
0700
0700
0700
0700
0700
0700
0700
0700
0700
07F0
03F0
01F0
ENDCHAR
STARTCHAR 197
ENCODING 197
SWIDTH 1296 0
DWIDTH 18 0
BBX 15 17 2 0
BITMAP
F83E
F83E
3838
3838
3838
3838
3838
3838
3838
3838
3838
3838
3838
3C78
1FF0
1FF0
07C0
ENDCHAR
STARTCHAR 198
ENCODING 198
SWIDTH 1440 0
DWIDTH 20 0
BBX 15 21 3 -3
BITMAP
1FF0
3FF8
7FFC
F39E
E38E
E38E
E38E
E38E
E38E
E38E
E38E
E38E
E38E
F39E
7FFC
3FF8
0FE0
0380
0380
0380
0FE0
ENDCHAR
STARTCHAR 199
ENCODING 199
SWIDTH 1152 0
DWIDTH 16 0
BBX 15 18 1 -1
BITMAP
F01E
781C
3838
3C70
1C70
0EE0
0FE0
07C0
0380
07C0
07C0
0FE0
1EE0
1C70
3878
3838
701C
F01E
ENDCHAR
STARTCHAR 200
ENCODING 200
SWIDTH 1584 0
DWIDTH 22 0
BBX 17 21 3 -2
BITMAP
F00780
F00780
700700
700700
71C700
71C700
71C700
71C700
71C700
71C700
71C700
71C700
79CF00
3FFE00
1FFC00
07F000
01C000
01C000
01C000
07F000
07F000
ENDCHAR
STARTCHAR 201
ENCODING 201
SWIDTH 1440 0
DWIDTH 20 0
BBX 15 18 3 0
BITMAP
3018
301C
701C
F01E
E00E
E00E
E00E
E00E
E00E
E38E
E38E
E38E
E38E
E38E
F39E
7FFC
3EF8
1C70
ENDCHAR
STARTCHAR 202
ENCODING 202
SWIDTH 864 0
DWIDTH 12 0
BBX 9 22 2 0
BITMAP
C600
C600
0000
0000
0000
FE00
7C00
3800
3800
3800
3800
3800
3800
3800
3800
3800
3800
3800
3C00
1F80
0F80
0700
ENDCHAR
STARTCHAR 203
ENCODING 203
SWIDTH 1296 0
DWIDTH 18 0
BBX 15 23 2 0
BITMAP
E01C
E01C
0000
0000
0000
0000
F83E
F83E
3838
3838
3838
3838
3838
3838
3838
3838
3838
3838
3838
3C78
1FF0
1FF0
07C0
ENDCHAR
STARTCHAR 204
ENCODING 204
SWIDTH 1296 0
DWIDTH 18 0
BBX 15 24 2 0
BITMAP
00C0
0180
0300
0600
0000
0000
0000
0FE0
1FF0
3838
701C
701C
E00E
E00E
E00E
E00E
E00E
E00E
E00E
701C
701C
3838
1FF0
07C0
ENDCHAR
STARTCHAR 205
ENCODING 205
SWIDTH 1296 0
DWIDTH 18 0
BBX 15 24 2 0
BITMAP
00C0
0180
0300
0000
0000
0000
0000
F83E
F83E
3838
3838
3838
3838
3838
3838
3838
3838
3838
3838
3838
3C78
1FF0
1FF0
07C0
ENDCHAR
STARTCHAR 206
ENCODING 206
SWIDTH 1440 0
DWIDTH 20 0
BBX 15 25 3 0
BITMAP
0030
0060
00C0
0000
0000
0000
0000
3018
301C
701C
F01E
E00E
E00E
E00E
E00E
E00E
E38E
E38E
E38E
E38E
E38E
F39E
7FFC
3EF8
1C70
ENDCHAR
STARTCHAR 207
ENCODING 207
SWIDTH 936 0
DWIDTH 13 0
BBX 11 29 1 0
BITMAP
7BC0
3180
0000
0000
FFE0
3F80
0E00
0E00
0E00
0E00
0E00
0E00
0E00
0E00
0E00
0E00
0E00
0E00
0E00
0E00
0E00
0E00
0E00
0E00
0E00
0E00
0E00
3F80
FFE0
ENDCHAR
STARTCHAR 208
ENCODING 208
SWIDTH 1296 0
DWIDTH 18 0
BBX 0 0 0 0
BITMAP
ENDCHAR
STARTCHAR 209
ENCODING 209
SWIDTH 1152 0
DWIDTH 16 0
BBX 0 0 0 0
BITMAP
ENDCHAR
STARTCHAR 210
ENCODING 210
SWIDTH 1440 0
DWIDTH 20 0
BBX 0 0 0 0
BITMAP
ENDCHAR
STARTCHAR 211
ENCODING 211
SWIDTH 1224 0
DWIDTH 17 0
BBX 0 0 0 0
BITMAP
ENDCHAR
STARTCHAR 212
ENCODING 212
SWIDTH 1728 0
DWIDTH 24 0
BBX 22 29 1 0
BITMAP
00FC00
018600
030300
000000
01FE00
07FF80
0F03C0
1C00E0
3C00F0
380070
780078
780078
F0003C
F0003C
F0003C
F0003C
F0003C
F0003C
F0003C
F0003C
F00038
780078
780078
380070
3C00F0
1C00E0
0F03C0
07FF80
01FE00
ENDCHAR
STARTCHAR 213
ENCODING 213
SWIDTH 1728 0
DWIDTH 24 0
BBX 22 29 1 0
BITMAP
01FF00
031E00
000000
000000
01FE00
07FF80
0F03C0
1C00E0
3C00F0
380070
780078
780078
F0003C
F0003C
F0003C
F0003C
F0003C
F0003C
F0003C
F0003C
F00038
780078
780078
380070
3C00F0
1C00E0
0F03C0
07FF80
01FE00
ENDCHAR
STARTCHAR 214
ENCODING 214
SWIDTH 1728 0
DWIDTH 24 0
BBX 22 29 1 0
BITMAP
01EF00
00C600
000000
000000
01FE00
07FF80
0F03C0
1C00E0
3C00F0
380070
780078
780078
F0003C
F0003C
F0003C
F0003C
F0003C
F0003C
F0003C
F0003C
F00038
780078
780078
380070
3C00F0
1C00E0
0F03C0
07FF80
01FE00
ENDCHAR
STARTCHAR 215
ENCODING 215
SWIDTH 1440 0
DWIDTH 20 0
BBX 17 15 2 1
BITMAP
E00380
700700
380E00
1C1C00
0E3800
077000
03E000
01C000
03E000
077000
0E3800
1C1C00
380E00
700700
E00380
ENDCHAR
STARTCHAR 216
ENCODING 216
SWIDTH 1728 0
DWIDTH 24 0
BBX 22 28 1 -2
BITMAP
000018
01FE30
07FFB0
0E03E0
1C00E0
3C01F0
3801F0
780378
780678
F0063C
F00C3C
F0183C
F0383C
F0303C
F0603C
F0E03C
F0C03C
718038
7B0078
7B0078
3E0070
3C00F0
1E01E0
1F03C0
37FF80
71FE00
600000
C00000
ENDCHAR
STARTCHAR 217
ENCODING 217
SWIDTH 1872 0
DWIDTH 26 0
BBX 26 29 0 0
BITMAP
000E0000
00030000
00018000
00000000
FFE0FFC0
3F803F00
0E000C00
0E000C00
0E000C00
0E000C00
0E000C00
0E000C00
0E000C00
0E000C00
0E000C00
0E000C00
0E000C00
0E000C00
0E000C00
0E000C00
0E000C00
0E000C00
0E000C00
0F001800
07001800
07803000
03E0F000
01FFC000
007F0000
ENDCHAR
STARTCHAR 218
ENCODING 218
SWIDTH 1872 0
DWIDTH 26 0
BBX 26 29 0 0
BITMAP
0001C000
00030000
00060000
00000000
FFE0FFC0
3F803F00
0E000C00
0E000C00
0E000C00
0E000C00
0E000C00
0E000C00
0E000C00
0E000C00
0E000C00
0E000C00
0E000C00
0E000C00
0E000C00
0E000C00
0E000C00
0E000C00
0E000C00
0F001800
07001800
07803000
03E0F000
01FFC000
007F0000
ENDCHAR
STARTCHAR 219
ENCODING 219
SWIDTH 1872 0
DWIDTH 26 0
BBX 26 29 0 0
BITMAP
001F8000
0030C000
00606000
00000000
FFE0FFC0
3F803F00
0E000C00
0E000C00
0E000C00
0E000C00
0E000C00
0E000C00
0E000C00
0E000C00
0E000C00
0E000C00
0E000C00
0E000C00
0E000C00
0E000C00
0E000C00
0E000C00
0E000C00
0F001800
07001800
07803000
03E0F000
01FFC000
007F0000
ENDCHAR
STARTCHAR 220
ENCODING 220
SWIDTH 1872 0
DWIDTH 26 0
BBX 26 29 0 0
BITMAP
0079E000
0030C000
00000000
00000000
FFE0FFC0
3F803F00
0E000C00
0E000C00
0E000C00
0E000C00
0E000C00
0E000C00
0E000C00
0E000C00
0E000C00
0E000C00
0E000C00
0E000C00
0E000C00
0E000C00
0E000C00
0E000C00
0E000C00
0F001800
07001800
07803000
03E0F000
01FFC000
007F0000
ENDCHAR
STARTCHAR 221
ENCODING 221
SWIDTH 1656 0
DWIDTH 23 0
BBX 23 29 0 0
BITMAP
000E00
001800
003000
000000
FF83FE
7E00F8
3E0070
1E0060
0F00E0
0F00C0
078180
07C180
03C300
03E300
01E600
00F600
00FC00
007C00
007800
003800
003800
003800
003800
003800
003800
003800
003800
00FE00
03FF80
ENDCHAR
STARTCHAR 222
ENCODING 222
SWIDTH 1584 0
DWIDTH 22 0
BBX 20 25 1 0
BITMAP
FFE000
1F0000
0E0000
0E0000
0E0000
0E0000
0FFE00
0FFF80
0E03C0
0E01E0
0E00F0
0E00F0
0E00F0
0E00F0
0E00F0
0E01E0
0E03E0
0FFFC0
0FFF00
0E0000
0E0000
0E0000
0E0000
1F0000
FFE000
ENDCHAR
STARTCHAR 223
ENCODING 223
SWIDTH 1368 0
DWIDTH 19 0
BBX 17 26 0 -1
BITMAP
03F800
079C00
0E0E00
0E0F00
1C0700
1C0700
1C0700
1C0700
1C0E00
1C0E00
1CF800
1CF800
1C0E00
1C0700
1C0700
1C0780
1C0380
1C0380
1C0380
1C0380
1C0380
1CE780
1CE700
3CE700
FCFE00
003800
ENDCHAR
STARTCHAR 224
ENCODING 224
SWIDTH 1224 0
DWIDTH 17 0
BBX 16 23 1 0
BITMAP
0C00
0E00
0700
0380
00C0
0060
0000
07C0
1FF0
7878
7038
7038
7038
01F8
0FF8
3C38
7038
E038
E038
E078
F0FD
7F9F
3F0E
ENDCHAR
STARTCHAR 225
ENCODING 225
SWIDTH 1224 0
DWIDTH 17 0
BBX 16 23 1 0
BITMAP
0030
0070
00E0
01C0
0300
0600
0000
07C0
1FF0
7878
7038
7038
7038
01F8
0FF8
3C38
7038
E038
E038
E078
F0FD
7F9F
3F0E
ENDCHAR
STARTCHAR 226
ENCODING 226
SWIDTH 1224 0
DWIDTH 17 0
BBX 16 22 1 0
BITMAP
0300
0780
0FC0
1860
3030
0000
07C0
1FF0
7878
7038
7038
7038
01F8
0FF8
3C38
7038
E038
E038
E078
F0FD
7F9F
3E0E
ENDCHAR
STARTCHAR 227
ENCODING 227
SWIDTH 1224 0
DWIDTH 17 0
BBX 16 21 1 0
BITMAP
0F18
1FF0
31E0
0000
0000
07C0
1FF0
7878
7038
7038
7038
01F8
0FF8
3C38
7038
E038
E038
E078
F0FD
7F9F
3E0E
ENDCHAR
STARTCHAR 228
ENCODING 228
SWIDTH 1224 0
DWIDTH 17 0
BBX 16 21 1 0
BITMAP
0C60
1EF0
0C60
0000
0000
07C0
1FF0
7878
7038
7038
7038
01F8
0FF8
3C38
7038
E038
E038
E078
F0FD
7F9F
3E0E
ENDCHAR
STARTCHAR 229
ENCODING 229
SWIDTH 1224 0
DWIDTH 17 0
BBX 16 23 1 0
BITMAP
0780
0CC0
0840
0840
0CC0
0780
0000
07C0
1FF0
7878
7038
7038
7038
01F8
0FF8
3C38
7038
E038
E038
E078
F0FD
7F9F
3E0E
ENDCHAR
STARTCHAR 230
ENCODING 230
SWIDTH 1800 0
DWIDTH 25 0
BBX 23 16 1 0
BITMAP
0FC3E0
3FE7F8
707C1C
703C0C
70380E
70380E
01F80E
0FFFFE
3C3800
703800
F03800
E03C02
E07C06
F0FE1C
7FCFF8
3F03F0
ENDCHAR
STARTCHAR 231
ENCODING 231
SWIDTH 1008 0
DWIDTH 14 0
BBX 12 23 1 -7
BITMAP
0780
1FE0
3870
70F0
70F0
E060
E000
E000
E000
E000
F000
F010
7830
7C60
3FC0
0F00
0200
0400
0F00
0180
0180
1180
0F00
ENDCHAR
STARTCHAR 232
ENCODING 232
SWIDTH 1152 0
DWIDTH 16 0
BBX 14 23 1 0
BITMAP
1800
1C00
0E00
0700
0180
00C0
0000
07C0
1FF0
3838
7018
701C
F01C
F01C
FFFC
E000
E000
F000
F004
780C
3C38
1FF0
07C0
ENDCHAR
STARTCHAR 233
ENCODING 233
SWIDTH 1152 0
DWIDTH 16 0
BBX 14 23 1 0
BITMAP
0018
0038
0070
00E0
0180
0300
0000
07C0
1FF0
3878
7038
601C
E01C
E01C
FFFC
E000
E000
F000
F004
780C
3C38
1FF0
07C0
ENDCHAR
STARTCHAR 234
ENCODING 234
SWIDTH 1152 0
DWIDTH 16 0
BBX 14 22 1 0
BITMAP
0300
0780
0FC0
1860
3030
0000
07C0
1FF0
3838
7018
701C
F01C
F01C
FFFC
E000
E000
F000
F004
780C
3C38
1FF0
07C0
ENDCHAR
STARTCHAR 235
ENCODING 235
SWIDTH 1152 0
DWIDTH 16 0
BBX 14 21 1 0
BITMAP
0C60
1EF0
0C60
0000
0000
07C0
1FF0
3838
7018
701C
F01C
F01C
FFFC
E000
E000
F000
F004
780C
3C18
1FF0
07C0
ENDCHAR
STARTCHAR 236
ENCODING 236
SWIDTH 792 0
DWIDTH 11 0
BBX 9 23 1 0
BITMAP
C000
E000
7000
3800
0C00
0600
0000
FC00
1C00
1C00
1C00
1C00
1C00
1C00
1C00
1C00
1C00
1C00
1C00
1C00
1C00
1C00
FF80
ENDCHAR
STARTCHAR 237
ENCODING 237
SWIDTH 792 0
DWIDTH 11 0
BBX 9 23 1 0
BITMAP
0180
0380
0700
0E00
1800
3000
0000
FC00
1C00
1C00
1C00
1C00
1C00
1C00
1C00
1C00
1C00
1C00
1C00
1C00
1C00
1C00
FF80
ENDCHAR
STARTCHAR 238
ENCODING 238
SWIDTH 792 0
DWIDTH 11 0
BBX 10 22 0 0
BITMAP
0C00
1E00
3F00
6180
C0C0
0000
7E00
0E00
0E00
0E00
0E00
0E00
0E00
0E00
0E00
0E00
0E00
0E00
0E00
0E00
0E00
7FC0
ENDCHAR
STARTCHAR 239
ENCODING 239
SWIDTH 792 0
DWIDTH 11 0
BBX 9 21 1 0
BITMAP
6300
F780
6300
0000
0000
FC00
1C00
1C00
1C00
1C00
1C00
1C00
1C00
1C00
1C00
1C00
1C00
1C00
1C00
1C00
FF80
ENDCHAR
STARTCHAR 240
ENCODING 240
SWIDTH 1224 0
DWIDTH 17 0
BBX 14 25 1 0
BITMAP
3000
3C00
0EE0
07C0
0F80
0DC0
00E0
00F0
0070
07F8
1FF8
3878
703C
703C
E01C
E01C
E01C
E01C
E01C
E01C
F03C
7038
7878
3FF0
0FC0
ENDCHAR
STARTCHAR 241
ENCODING 241
SWIDTH 1368 0
DWIDTH 19 0
BBX 19 21 0 0
BITMAP
03C600
07FC00
0C7800
000000
000000
1C7800
FDFE00
1F9E00
1E0F00
1E0700
1C0700
1C0700
1C0700
1C0700
1C0700
1C0700
1C0700
1C0700
1C0700
1C0700
FF1FE0
ENDCHAR
STARTCHAR 242
ENCODING 242
SWIDTH 1152 0
DWIDTH 16 0
BBX 14 23 1 0
BITMAP
3000
3800
1C00
0E00
0300
0180
0000
0780
1FE0
3870
7038
7038
E01C
E01C
E01C
E01C
E01C
E01C
F03C
7038
7878
1FE0
0780
ENDCHAR
STARTCHAR 243
ENCODING 243
SWIDTH 1152 0
DWIDTH 16 0
BBX 14 23 1 0
BITMAP
0018
0038
0070
00E0
0180
0300
0000
0780
1FE0
3870
7038
7038
E01C
E01C
E01C
E01C
E01C
E01C
F03C
7038
7878
1FE0
0780
ENDCHAR
STARTCHAR 244
ENCODING 244
SWIDTH 1152 0
DWIDTH 16 0
BBX 14 22 1 0
BITMAP
0300
0780
0FC0
1860
3030
0000
0780
1FE0
3870
7038
7038
E01C
E01C
E01C
E01C
E01C
E01C
7038
7038
3870
1FE0
0780
ENDCHAR
STARTCHAR 245
ENCODING 245
SWIDTH 1152 0
DWIDTH 16 0
BBX 14 21 1 0
BITMAP
0F18
1FF0
31E0
0000
0000
0780
1FE0
3870
7038
7038
E01C
E01C
E01C
E01C
E01C
E01C
7038
7038
3870
1FE0
0780
ENDCHAR
STARTCHAR 246
ENCODING 246
SWIDTH 1152 0
DWIDTH 16 0
BBX 14 21 1 0
BITMAP
18C0
3DE0
18C0
0000
0000
0780
1FE0
3870
7038
7038
E01C
E01C
E01C
E01C
E01C
E01C
7038
7038
3870
1FE0
0780
ENDCHAR
STARTCHAR 247
ENCODING 247
SWIDTH 1440 0
DWIDTH 20 0
BBX 16 16 2 0
BITMAP
0180
03C0
03C0
0180
0000
0000
0000
FFFF
FFFF
0000
0000
0000
0180
03C0
03C0
0180
ENDCHAR
STARTCHAR 248
ENCODING 248
SWIDTH 1152 0
DWIDTH 16 0
BBX 14 22 1 -3
BITMAP
0018
0018
0030
07F0
1FF0
3870
70F8
70D8
E19C
E19C
E31C
E31C
E61C
E61C
EC38
7C38
7870
3FE0
3F80
3000
6000
6000
ENDCHAR
STARTCHAR 249
ENCODING 249
SWIDTH 1440 0
DWIDTH 20 0
BBX 18 23 0 0
BITMAP
060000
070000
038000
01C000
006000
003000
000000
1C0700
FC3F00
1C0700
1C0700
1C0700
1C0700
1C0700
1C0700
1C0700
1C0700
1C0700
1C0F00
1C0F00
0E3F00
0FF7C0
07C700
ENDCHAR
STARTCHAR 250
ENCODING 250
SWIDTH 1440 0
DWIDTH 20 0
BBX 18 23 0 0
BITMAP
000C00
001C00
003800
007000
00C000
018000
000000
1C0700
FC3F00
1C0700
1C0700
1C0700
1C0700
1C0700
1C0700
1C0700
1C0700
1C0700
1C0F00
1C0F00
0E3F00
0FF7C0
07C700
ENDCHAR
STARTCHAR 251
ENCODING 251
SWIDTH 1440 0
DWIDTH 20 0
BBX 18 22 0 0
BITMAP
00C000
01E000
03F000
061800
0C0C00
000000
1C0700
FC3F00
1C0700
1C0700
1C0700
1C0700
1C0700
1C0700
1C0700
1C0700
1C0700
1C0F00
1C0F00
0E3F00
0FF7C0
07C700
ENDCHAR
STARTCHAR 252
ENCODING 252
SWIDTH 1440 0
DWIDTH 20 0
BBX 18 21 0 0
BITMAP
031800
07BC00
031800
000000
000000
1C0700
FC3F00
1C0700
1C0700
1C0700
1C0700
1C0700
1C0700
1C0700
1C0700
1C0700
1C0F00
1C0F00
0E3F00
0FF7C0
07C700
ENDCHAR
STARTCHAR 253
ENCODING 253
SWIDTH 1368 0
DWIDTH 19 0
BBX 17 30 1 -7
BITMAP
000C00
001C00
003800
007000
00C000
018000
000000
FF1F80
7C0700
3C0600
1C0600
1E0C00
0E0C00
0F0800
071800
071800
07B000
03B000
03E000
01E000
01E000
00C000
00C000
018000
018000
630000
E30000
E60000
FC0000
700000
ENDCHAR
STARTCHAR 254
ENCODING 254
SWIDTH 1368 0
DWIDTH 19 0
BBX 16 29 1 -7
BITMAP
3800
F800
3800
3800
3800
3800
38F0
3BFC
3F1E
3C0E
3C0F
3807
3807
3807
3807
3807
3807
3C0F
3C0E
3E1E
3BFC
39F0
3800
3800
3800
3800
3800
3800
FF00
ENDCHAR
STARTCHAR 255
ENCODING 255
SWIDTH 1440 0
DWIDTH 20 0
BBX 18 28 1 -7
BITMAP
031800
07BC00
031800
000000
000000
FF1FC0
7C0700
3C0600
1C0600
1E0C00
0E0C00
0F0800
071800
071800
07B000
03B000
03E000
01E000
01E000
00C000
00C000
018000
018000
630000
E30000
E60000
FC0000
700000
ENDCHAR
ENDFONT
