STARTFONT 2.1
COMMENT Exported by Fony v1.4.7
FONT Helvetica
SIZE 27 100 100
FONTBOUNDINGBOX 28 26 0 -3
STARTPROPERTIES 6
COPYRIGHT "Copyright (c) 1984, 1987 Adobe Systems Incorporated. All Rights Reserved. Copyright (c) 1988, 1991 Digital Equipment Corporation. All Rights Reserved."
RESOLUTION_X 100
RESOLUTION_Y 100
FONT_ASCENT 24
FONT_DESCENT 3
DEFAULT_CHAR 0
ENDPROPERTIES
CHARS 256
STARTCHAR 000
ENCODING 0
SWIDTH 1296 0
DWIDTH 18 0
BBX 13 19 2 2
BITMAP
AAA8
0000
8008
0000
8008
0000
8008
0000
8008
0000
8008
0000
8008
0000
8008
0000
8008
0000
AAA8
ENDCHAR
STARTCHAR 001
ENCODING 1
SWIDTH 72 0
DWIDTH 1 0
BBX 0 0 0 0
BITMAP
ENDCHAR
STARTCHAR 002
ENCODING 2
SWIDTH 72 0
DWIDTH 1 0
BBX 0 0 0 0
BITMAP
ENDCHAR
STARTCHAR 003
ENCODING 3
SWIDTH 72 0
DWIDTH 1 0
BBX 0 0 0 0
BITMAP
ENDCHAR
STARTCHAR 004
ENCODING 4
SWIDTH 72 0
DWIDTH 1 0
BBX 0 0 0 0
BITMAP
ENDCHAR
STARTCHAR 005
ENCODING 5
SWIDTH 72 0
DWIDTH 1 0
BBX 0 0 0 0
BITMAP
ENDCHAR
STARTCHAR 006
ENCODING 6
SWIDTH 72 0
DWIDTH 1 0
BBX 0 0 0 0
BITMAP
ENDCHAR
STARTCHAR 007
ENCODING 7
SWIDTH 72 0
DWIDTH 1 0
BBX 0 0 0 0
BITMAP
ENDCHAR
STARTCHAR 008
ENCODING 8
SWIDTH 72 0
DWIDTH 1 0
BBX 0 0 0 0
BITMAP
ENDCHAR
STARTCHAR 009
ENCODING 9
SWIDTH 72 0
DWIDTH 1 0
BBX 0 0 0 0
BITMAP
ENDCHAR
STARTCHAR 010
ENCODING 10
SWIDTH 72 0
DWIDTH 1 0
BBX 0 0 0 0
BITMAP
ENDCHAR
STARTCHAR 011
ENCODING 11
SWIDTH 72 0
DWIDTH 1 0
BBX 0 0 0 0
BITMAP
ENDCHAR
STARTCHAR 012
ENCODING 12
SWIDTH 72 0
DWIDTH 1 0
BBX 0 0 0 0
BITMAP
ENDCHAR
STARTCHAR 013
ENCODING 13
SWIDTH 72 0
DWIDTH 1 0
BBX 0 0 0 0
BITMAP
ENDCHAR
STARTCHAR 014
ENCODING 14
SWIDTH 72 0
DWIDTH 1 0
BBX 0 0 0 0
BITMAP
ENDCHAR
STARTCHAR 015
ENCODING 15
SWIDTH 72 0
DWIDTH 1 0
BBX 0 0 0 0
BITMAP
ENDCHAR
STARTCHAR 016
ENCODING 16
SWIDTH 72 0
DWIDTH 1 0
BBX 0 0 0 0
BITMAP
ENDCHAR
STARTCHAR 017
ENCODING 17
SWIDTH 72 0
DWIDTH 1 0
BBX 0 0 0 0
BITMAP
ENDCHAR
STARTCHAR 018
ENCODING 18
SWIDTH 72 0
DWIDTH 1 0
BBX 0 0 0 0
BITMAP
ENDCHAR
STARTCHAR 019
ENCODING 19
SWIDTH 72 0
DWIDTH 1 0
BBX 0 0 0 0
BITMAP
ENDCHAR
STARTCHAR 020
ENCODING 20
SWIDTH 72 0
DWIDTH 1 0
BBX 0 0 0 0
BITMAP
ENDCHAR
STARTCHAR 021
ENCODING 21
SWIDTH 72 0
DWIDTH 1 0
BBX 0 0 0 0
BITMAP
ENDCHAR
STARTCHAR 022
ENCODING 22
SWIDTH 72 0
DWIDTH 1 0
BBX 0 0 0 0
BITMAP
ENDCHAR
STARTCHAR 023
ENCODING 23
SWIDTH 72 0
DWIDTH 1 0
BBX 0 0 0 0
BITMAP
ENDCHAR
STARTCHAR 024
ENCODING 24
SWIDTH 72 0
DWIDTH 1 0
BBX 0 0 0 0
BITMAP
ENDCHAR
STARTCHAR 025
ENCODING 25
SWIDTH 72 0
DWIDTH 1 0
BBX 0 0 0 0
BITMAP
ENDCHAR
STARTCHAR 026
ENCODING 26
SWIDTH 72 0
DWIDTH 1 0
BBX 0 0 0 0
BITMAP
ENDCHAR
STARTCHAR 027
ENCODING 27
SWIDTH 72 0
DWIDTH 1 0
BBX 0 0 0 0
BITMAP
ENDCHAR
STARTCHAR 028
ENCODING 28
SWIDTH 72 0
DWIDTH 1 0
BBX 0 0 0 0
BITMAP
ENDCHAR
STARTCHAR 029
ENCODING 29
SWIDTH 72 0
DWIDTH 1 0
BBX 0 0 0 0
BITMAP
ENDCHAR
STARTCHAR 030
ENCODING 30
SWIDTH 72 0
DWIDTH 1 0
BBX 0 0 0 0
BITMAP
ENDCHAR
STARTCHAR 031
ENCODING 31
SWIDTH 72 0
DWIDTH 1 0
BBX 0 0 0 0
BITMAP
ENDCHAR
STARTCHAR 032
ENCODING 32
SWIDTH 432 0
DWIDTH 6 0
BBX 0 0 0 0
BITMAP
ENDCHAR
STARTCHAR 033
ENCODING 33
SWIDTH 432 0
DWIDTH 6 0
BBX 2 19 2 2
BITMAP
C0
C0
C0
C0
C0
C0
C0
C0
C0
C0
C0
C0
80
80
00
00
C0
C0
C0
ENDCHAR
STARTCHAR 034
ENCODING 34
SWIDTH 576 0
DWIDTH 8 0
BBX 6 6 1 15
BITMAP
CC
CC
CC
CC
CC
44
ENDCHAR
STARTCHAR 035
ENCODING 35
SWIDTH 1008 0
DWIDTH 14 0
BBX 11 17 2 2
BITMAP
0CC0
0CC0
0CC0
1980
FFE0
FFE0
1980
1980
3300
3300
FFE0
FFE0
3300
3300
6600
6600
6600
ENDCHAR
STARTCHAR 036
ENCODING 36
SWIDTH 936 0
DWIDTH 13 0
BBX 11 22 1 0
BITMAP
0600
0600
1F80
3FC0
76E0
6660
6660
6600
7600
3E00
3E00
0F80
07C0
06E0
0660
C660
C660
E6E0
7FC0
3F80
0600
0600
ENDCHAR
STARTCHAR 037
ENCODING 37
SWIDTH 1584 0
DWIDTH 22 0
BBX 19 18 1 2
BITMAP
000600
3C0C00
7E0C00
C31800
C31800
C33000
C33000
7E6000
3C6000
00C000
00C780
018FC0
019860
031860
031860
061860
060FC0
040780
ENDCHAR
STARTCHAR 038
ENCODING 38
SWIDTH 1224 0
DWIDTH 17 0
BBX 14 18 2 2
BITMAP
0F00
1F80
39C0
30C0
30C0
30C0
1980
0F00
1E00
3F18
7398
61D8
C0F0
C060
C0F0
E1D8
7F9C
1E00
ENDCHAR
STARTCHAR 039
ENCODING 39
SWIDTH 432 0
DWIDTH 6 0
BBX 2 6 2 15
BITMAP
C0
C0
C0
C0
C0
40
ENDCHAR
STARTCHAR 040
ENCODING 40
SWIDTH 576 0
DWIDTH 8 0
BBX 5 24 2 -3
BITMAP
18
18
30
30
60
60
60
C0
C0
C0
C0
C0
C0
C0
C0
C0
C0
60
60
60
30
30
18
18
ENDCHAR
STARTCHAR 041
ENCODING 41
SWIDTH 576 0
DWIDTH 8 0
BBX 5 24 1 -3
BITMAP
C0
C0
60
60
30
30
30
18
18
18
18
18
18
18
18
18
18
30
30
30
60
60
C0
C0
ENDCHAR
STARTCHAR 042
ENCODING 42
SWIDTH 720 0
DWIDTH 10 0
BBX 7 7 1 14
BITMAP
10
10
D6
7C
38
6C
44
ENDCHAR
STARTCHAR 043
ENCODING 43
SWIDTH 1008 0
DWIDTH 14 0
BBX 12 12 1 3
BITMAP
0600
0600
0600
0600
0600
FFF0
FFF0
0600
0600
0600
0600
0600
ENDCHAR
STARTCHAR 044
ENCODING 44
SWIDTH 432 0
DWIDTH 6 0
BBX 2 6 2 -1
BITMAP
C0
C0
C0
40
40
80
ENDCHAR
STARTCHAR 045
ENCODING 45
SWIDTH 576 0
DWIDTH 8 0
BBX 6 2 1 8
BITMAP
FC
FC
ENDCHAR
STARTCHAR 046
ENCODING 46
SWIDTH 432 0
DWIDTH 6 0
BBX 2 3 2 2
BITMAP
C0
C0
C0
ENDCHAR
STARTCHAR 047
ENCODING 47
SWIDTH 504 0
DWIDTH 7 0
BBX 7 19 0 2
BITMAP
06
04
0C
0C
08
18
18
10
10
30
30
20
60
60
40
C0
C0
80
80
ENDCHAR
STARTCHAR 048
ENCODING 48
SWIDTH 936 0
DWIDTH 13 0
BBX 11 18 1 2
BITMAP
1F00
3F80
71C0
60C0
60C0
E0E0
C060
C060
C060
C060
C060
C060
E0E0
60C0
60C0
71C0
3F80
1F00
ENDCHAR
STARTCHAR 049
ENCODING 49
SWIDTH 936 0
DWIDTH 13 0
BBX 6 18 2 2
BITMAP
0C
0C
1C
FC
FC
0C
0C
0C
0C
0C
0C
0C
0C
0C
0C
0C
0C
0C
ENDCHAR
STARTCHAR 050
ENCODING 50
SWIDTH 936 0
DWIDTH 13 0
BBX 11 18 1 2
BITMAP
1E00
7F80
61C0
C0C0
C060
C060
00E0
00C0
01C0
0380
0F00
1C00
3800
7000
E000
C000
FFE0
FFE0
ENDCHAR
STARTCHAR 051
ENCODING 51
SWIDTH 936 0
DWIDTH 13 0
BBX 11 18 1 2
BITMAP
1F00
7F80
6180
C0C0
C0C0
C0C0
00C0
0180
0F00
0FC0
00C0
0060
0060
C060
C0C0
61C0
7F80
1F00
ENDCHAR
STARTCHAR 052
ENCODING 52
SWIDTH 936 0
DWIDTH 13 0
BBX 11 18 1 2
BITMAP
0180
0380
0380
0780
0F80
0D80
1980
3980
3180
6180
E180
C180
FFE0
FFE0
0180
0180
0180
0180
ENDCHAR
STARTCHAR 053
ENCODING 53
SWIDTH 936 0
DWIDTH 13 0
BBX 11 18 1 2
BITMAP
7FC0
7FC0
6000
6000
6000
6000
7E00
7F80
71C0
00C0
00E0
0060
0060
C0E0
C0C0
E1C0
7F80
1E00
ENDCHAR
STARTCHAR 054
ENCODING 54
SWIDTH 936 0
DWIDTH 13 0
BBX 11 18 1 2
BITMAP
0F00
3FC0
70C0
6060
E060
C000
C000
CF00
DF80
F1C0
E0C0
C060
C060
C060
E0E0
71C0
7FC0
1F00
ENDCHAR
STARTCHAR 055
ENCODING 55
SWIDTH 936 0
DWIDTH 13 0
BBX 11 18 1 2
BITMAP
FFE0
FFE0
00E0
00C0
0180
0180
0300
0300
0600
0600
0C00
0C00
1C00
1800
1800
3800
3000
3000
ENDCHAR
STARTCHAR 056
ENCODING 56
SWIDTH 936 0
DWIDTH 13 0
BBX 11 18 1 2
BITMAP
0E00
3F80
3180
60C0
60C0
60C0
3180
1F00
3F80
71C0
60C0
C060
C060
C060
C060
60C0
7FC0
1F00
ENDCHAR
STARTCHAR 057
ENCODING 57
SWIDTH 936 0
DWIDTH 13 0
BBX 11 18 1 2
BITMAP
1F00
7FC0
71C0
E0C0
C060
C060
C060
C060
E0E0
71E0
7F60
1E60
0060
00E0
C0C0
E1C0
7F80
1E00
ENDCHAR
STARTCHAR 058
ENCODING 58
SWIDTH 432 0
DWIDTH 6 0
BBX 2 14 2 2
BITMAP
C0
C0
C0
00
00
00
00
00
00
00
00
C0
C0
C0
ENDCHAR
STARTCHAR 059
ENCODING 59
SWIDTH 432 0
DWIDTH 6 0
BBX 2 17 2 -1
BITMAP
C0
C0
C0
00
00
00
00
00
00
00
00
C0
C0
C0
40
40
80
ENDCHAR
STARTCHAR 060
ENCODING 60
SWIDTH 1080 0
DWIDTH 15 0
BBX 12 12 1 3
BITMAP
0030
00F0
03C0
0F00
3C00
E000
E000
3C00
0F00
03C0
00F0
0030
ENDCHAR
STARTCHAR 061
ENCODING 61
SWIDTH 1080 0
DWIDTH 15 0
BBX 10 5 2 7
BITMAP
FFC0
FFC0
0000
FFC0
FFC0
ENDCHAR
STARTCHAR 062
ENCODING 62
SWIDTH 1080 0
DWIDTH 15 0
BBX 12 12 1 3
BITMAP
C000
F000
3C00
0F00
03C0
0070
0070
03C0
0F00
3C00
F000
C000
ENDCHAR
STARTCHAR 063
ENCODING 63
SWIDTH 864 0
DWIDTH 12 0
BBX 10 19 1 2
BITMAP
1F00
7F80
71C0
E0C0
C0C0
C1C0
0180
0380
0700
0600
0C00
0C00
0C00
0C00
0000
0000
0C00
0C00
0C00
ENDCHAR
STARTCHAR 064
ENCODING 64
SWIDTH 1800 0
DWIDTH 25 0
BBX 22 23 2 -2
BITMAP
00FF00
03FFC0
0F01E0
1C0070
380018
300018
60730C
60FB0C
C1C70C
C3860C
C3060C
C6060C
C60C1C
C60C18
C60C38
E71C70
63F7E0
71E380
380000
1C0000
0F0300
07FF00
00FC00
ENDCHAR
STARTCHAR 065
ENCODING 65
SWIDTH 1224 0
DWIDTH 17 0
BBX 15 19 1 2
BITMAP
0380
0380
06C0
06C0
0C40
0C60
0C60
1830
1830
1830
3018
3FF8
3FF8
600C
600C
600C
C006
C006
C006
ENDCHAR
STARTCHAR 066
ENCODING 66
SWIDTH 1224 0
DWIDTH 17 0
BBX 14 19 2 2
BITMAP
FFC0
FFF0
C070
C018
C018
C018
C018
C030
FFE0
FFF0
C018
C00C
C00C
C00C
C00C
C01C
C078
FFF0
FFC0
ENDCHAR
STARTCHAR 067
ENCODING 67
SWIDTH 1296 0
DWIDTH 18 0
BBX 15 19 1 2
BITMAP
07E0
1FF8
3C3C
700E
6006
E006
C000
C000
C000
C000
C000
C000
C000
E006
6006
700E
3C3C
1FF8
07E0
ENDCHAR
STARTCHAR 068
ENCODING 68
SWIDTH 1296 0
DWIDTH 18 0
BBX 15 19 2 2
BITMAP
FFC0
FFF0
C078
C01C
C00C
C00E
C006
C006
C006
C006
C006
C006
C006
C00E
C00C
C01C
C078
FFF0
FFC0
ENDCHAR
STARTCHAR 069
ENCODING 69
SWIDTH 1152 0
DWIDTH 16 0
BBX 12 19 2 2
BITMAP
FFF0
FFF0
C000
C000
C000
C000
C000
C000
FFE0
FFE0
C000
C000
C000
C000
C000
C000
C000
FFF0
FFF0
ENDCHAR
STARTCHAR 070
ENCODING 70
SWIDTH 1008 0
DWIDTH 14 0
BBX 11 19 2 2
BITMAP
FFE0
FFE0
C000
C000
C000
C000
C000
C000
FFC0
FFC0
C000
C000
C000
C000
C000
C000
C000
C000
C000
ENDCHAR
STARTCHAR 071
ENCODING 71
SWIDTH 1368 0
DWIDTH 19 0
BBX 16 19 1 2
BITMAP
07E0
1FF8
3C3C
700E
6006
E006
C000
C000
C000
C07F
C07F
C003
C003
E003
6007
700F
3C3F
1FFB
07E3
ENDCHAR
STARTCHAR 072
ENCODING 72
SWIDTH 1296 0
DWIDTH 18 0
BBX 14 19 2 2
BITMAP
C00C
C00C
C00C
C00C
C00C
C00C
C00C
C00C
FFFC
FFFC
C00C
C00C
C00C
C00C
C00C
C00C
C00C
C00C
C00C
ENDCHAR
STARTCHAR 073
ENCODING 73
SWIDTH 576 0
DWIDTH 8 0
BBX 2 19 3 2
BITMAP
C0
C0
C0
C0
C0
C0
C0
C0
C0
C0
C0
C0
C0
C0
C0
C0
C0
C0
C0
ENDCHAR
STARTCHAR 074
ENCODING 74
SWIDTH 936 0
DWIDTH 13 0
BBX 10 19 1 2
BITMAP
00C0
00C0
00C0
00C0
00C0
00C0
00C0
00C0
00C0
00C0
00C0
00C0
C0C0
C0C0
C0C0
C0C0
6180
7F80
3F00
ENDCHAR
STARTCHAR 075
ENCODING 75
SWIDTH 1296 0
DWIDTH 18 0
BBX 13 19 3 2
BITMAP
C038
C070
C0E0
C1C0
C380
C700
CE00
DC00
FC00
FE00
E700
C380
C180
C1C0
C0E0
C060
C070
C038
C018
ENDCHAR
STARTCHAR 076
ENCODING 76
SWIDTH 1008 0
DWIDTH 14 0
BBX 11 19 2 2
BITMAP
C000
C000
C000
C000
C000
C000
C000
C000
C000
C000
C000
C000
C000
C000
C000
C000
C000
FFE0
FFE0
ENDCHAR
STARTCHAR 077
ENCODING 77
SWIDTH 1512 0
DWIDTH 21 0
BBX 17 19 2 2
BITMAP
C00180
E00380
E00380
F00780
F00780
D80D80
D80D80
D80D80
CC1980
CC1980
CC1980
C63180
C63180
C63180
C36180
C36180
C36180
C1C180
C1C180
ENDCHAR
STARTCHAR 078
ENCODING 78
SWIDTH 1296 0
DWIDTH 18 0
BBX 14 19 2 2
BITMAP
E00C
F00C
F00C
D80C
DC0C
CC0C
CE0C
C60C
C70C
C30C
C38C
C18C
C1CC
C0CC
C0EC
C06C
C03C
C03C
C01C
ENDCHAR
STARTCHAR 079
ENCODING 79
SWIDTH 1296 0
DWIDTH 18 0
BBX 16 19 1 2
BITMAP
07E0
1FF8
3C3C
700E
6006
E007
C003
C003
C003
C003
C003
C003
C003
E007
6006
700E
3C3C
1FF8
07E0
ENDCHAR
STARTCHAR 080
ENCODING 80
SWIDTH 1152 0
DWIDTH 16 0
BBX 13 19 2 2
BITMAP
FFE0
FFF0
C030
C018
C018
C018
C018
C030
FFF0
FFE0
C000
C000
C000
C000
C000
C000
C000
C000
C000
ENDCHAR
STARTCHAR 081
ENCODING 81
SWIDTH 1296 0
DWIDTH 18 0
BBX 16 19 1 2
BITMAP
07E0
1FF8
3C3C
700E
6006
E007
C003
C003
C003
C003
C003
C003
C003
E007
60E6
707E
3C1C
1FFE
07E7
ENDCHAR
STARTCHAR 082
ENCODING 82
SWIDTH 1224 0
DWIDTH 17 0
BBX 13 19 2 2
BITMAP
FFE0
FFF0
C030
C018
C018
C018
C018
C030
FFF0
FFE0
C070
C030
C018
C018
C018
C018
C018
C018
C018
ENDCHAR
STARTCHAR 083
ENCODING 83
SWIDTH 1152 0
DWIDTH 16 0
BBX 13 19 2 2
BITMAP
0F80
3FE0
6060
C030
C030
C000
E000
7C00
3F80
07E0
00F0
0038
0018
0018
C018
C038
F070
7FE0
1F80
ENDCHAR
STARTCHAR 084
ENCODING 84
SWIDTH 1152 0
DWIDTH 16 0
BBX 14 19 1 2
BITMAP
FFFC
FFFC
0300
0300
0300
0300
0300
0300
0300
0300
0300
0300
0300
0300
0300
0300
0300
0300
0300
ENDCHAR
STARTCHAR 085
ENCODING 85
SWIDTH 1296 0
DWIDTH 18 0
BBX 14 19 2 2
BITMAP
C00C
C00C
C00C
C00C
C00C
C00C
C00C
C00C
C00C
C00C
C00C
C00C
C00C
C00C
C00C
6018
7038
3FF0
0FC0
ENDCHAR
STARTCHAR 086
ENCODING 86
SWIDTH 1224 0
DWIDTH 17 0
BBX 15 19 1 2
BITMAP
C006
C006
E00E
600C
701C
3018
3018
3838
1830
1830
1C70
0C60
0C60
0EE0
06C0
06C0
0380
0380
0380
ENDCHAR
STARTCHAR 087
ENCODING 87
SWIDTH 1584 0
DWIDTH 22 0
BBX 20 19 1 2
BITMAP
C06030
C06030
C06030
C0F030
60F060
619860
619860
619860
619860
3198C0
330CC0
330CC0
330CC0
1B0D80
1B0D80
1E0780
0E0700
0C0300
0C0300
ENDCHAR
STARTCHAR 088
ENCODING 88
SWIDTH 1224 0
DWIDTH 17 0
BBX 15 19 1 2
BITMAP
C006
E00E
701C
3018
1830
1C70
0EE0
07C0
0380
0380
07C0
0EE0
0C60
1C70
3838
3018
600C
E00E
C006
ENDCHAR
STARTCHAR 089
ENCODING 89
SWIDTH 1152 0
DWIDTH 16 0
BBX 14 19 1 2
BITMAP
C00C
E01C
6018
7038
3030
3870
1860
1CE0
0CC0
0FC0
0780
0780
0300
0300
0300
0300
0300
0300
0300
ENDCHAR
STARTCHAR 090
ENCODING 90
SWIDTH 1080 0
DWIDTH 15 0
BBX 13 19 1 2
BITMAP
FFF8
FFF8
0038
0070
00E0
01C0
01C0
0380
0700
0700
0E00
1C00
1C00
3800
7000
7000
E000
FFF8
FFF8
ENDCHAR
STARTCHAR 091
ENCODING 91
SWIDTH 504 0
DWIDTH 7 0
BBX 4 24 2 -3
BITMAP
F0
F0
C0
C0
C0
C0
C0
C0
C0
C0
C0
C0
C0
C0
C0
C0
C0
C0
C0
C0
C0
C0
F0
F0
ENDCHAR
STARTCHAR 092
ENCODING 92
SWIDTH 576 0
DWIDTH 8 0
BBX 8 19 0 2
BITMAP
C0
40
40
60
20
20
30
10
10
10
18
08
08
0C
04
04
06
02
03
ENDCHAR
STARTCHAR 093
ENCODING 93
SWIDTH 504 0
DWIDTH 7 0
BBX 4 24 1 -3
BITMAP
F0
F0
30
30
30
30
30
30
30
30
30
30
30
30
30
30
30
30
30
30
30
30
F0
F0
ENDCHAR
STARTCHAR 094
ENCODING 94
SWIDTH 864 0
DWIDTH 12 0
BBX 10 9 1 12
BITMAP
0C00
0C00
1E00
1200
3300
6180
6180
C0C0
C0C0
ENDCHAR
STARTCHAR 095
ENCODING 95
SWIDTH 1008 0
DWIDTH 14 0
BBX 14 2 0 -3
BITMAP
FFFC
FFFC
ENDCHAR
STARTCHAR 096
ENCODING 96
SWIDTH 504 0
DWIDTH 7 0
BBX 5 4 1 17
BITMAP
C0
60
30
18
ENDCHAR
STARTCHAR 097
ENCODING 97
SWIDTH 936 0
DWIDTH 13 0
BBX 11 14 1 2
BITMAP
1F00
3F80
61C0
60C0
00C0
07C0
3FC0
78C0
E0C0
C0C0
C1C0
E3C0
7EE0
3C60
ENDCHAR
STARTCHAR 098
ENCODING 98
SWIDTH 1008 0
DWIDTH 14 0
BBX 11 19 2 2
BITMAP
C000
C000
C000
C000
C000
CF00
DF80
F1C0
E0C0
C0E0
C060
C060
C060
C060
C0E0
E0C0
F1C0
DF80
CF00
ENDCHAR
STARTCHAR 099
ENCODING 99
SWIDTH 864 0
DWIDTH 12 0
BBX 10 14 1 2
BITMAP
1F00
3F80
71C0
60C0
E000
C000
C000
C000
C000
E000
60C0
71C0
3F80
1F00
ENDCHAR
STARTCHAR 100
ENCODING 100
SWIDTH 1008 0
DWIDTH 14 0
BBX 11 19 1 2
BITMAP
0060
0060
0060
0060
0060
1E60
3F60
71E0
60E0
E060
C060
C060
C060
C060
E060
60E0
71E0
3F60
1E60
ENDCHAR
STARTCHAR 101
ENCODING 101
SWIDTH 936 0
DWIDTH 13 0
BBX 11 14 1 2
BITMAP
0E00
3F80
71C0
60C0
C060
C060
FFE0
FFE0
C000
C000
6060
70E0
3FC0
0F00
ENDCHAR
STARTCHAR 102
ENCODING 102
SWIDTH 576 0
DWIDTH 8 0
BBX 6 19 1 2
BITMAP
1C
3C
30
30
30
FC
FC
30
30
30
30
30
30
30
30
30
30
30
30
ENDCHAR
STARTCHAR 103
ENCODING 103
SWIDTH 1008 0
DWIDTH 14 0
BBX 11 19 1 -3
BITMAP
1E60
3F60
71E0
60E0
E060
C060
C060
C060
C060
E060
60E0
71E0
3F60
1E60
0060
C060
E0C0
7FC0
1F00
ENDCHAR
STARTCHAR 104
ENCODING 104
SWIDTH 936 0
DWIDTH 13 0
BBX 10 19 2 2
BITMAP
C000
C000
C000
C000
C000
CE00
DF80
F180
E0C0
C0C0
C0C0
C0C0
C0C0
C0C0
C0C0
C0C0
C0C0
C0C0
C0C0
ENDCHAR
STARTCHAR 105
ENCODING 105
SWIDTH 432 0
DWIDTH 6 0
BBX 2 19 2 2
BITMAP
C0
C0
C0
00
00
C0
C0
C0
C0
C0
C0
C0
C0
C0
C0
C0
C0
C0
C0
ENDCHAR
STARTCHAR 106
ENCODING 106
SWIDTH 432 0
DWIDTH 6 0
BBX 4 24 0 -3
BITMAP
30
30
30
00
00
30
30
30
30
30
30
30
30
30
30
30
30
30
30
30
30
30
F0
E0
ENDCHAR
STARTCHAR 107
ENCODING 107
SWIDTH 864 0
DWIDTH 12 0
BBX 10 19 2 2
BITMAP
C000
C000
C000
C000
C000
C180
C380
C700
CE00
DC00
F800
FC00
CE00
C600
C700
C380
C180
C1C0
C0C0
ENDCHAR
STARTCHAR 108
ENCODING 108
SWIDTH 432 0
DWIDTH 6 0
BBX 2 19 2 2
BITMAP
C0
C0
C0
C0
C0
C0
C0
C0
C0
C0
C0
C0
C0
C0
C0
C0
C0
C0
C0
ENDCHAR
STARTCHAR 109
ENCODING 109
SWIDTH 1440 0
DWIDTH 20 0
BBX 16 14 2 2
BITMAP
CE3C
FF7E
E3C7
C183
C183
C183
C183
C183
C183
C183
C183
C183
C183
C183
ENDCHAR
STARTCHAR 110
ENCODING 110
SWIDTH 1008 0
DWIDTH 14 0
BBX 10 14 2 2
BITMAP
CE00
DF80
F180
E0C0
C0C0
C0C0
C0C0
C0C0
C0C0
C0C0
C0C0
C0C0
C0C0
C0C0
ENDCHAR
STARTCHAR 111
ENCODING 111
SWIDTH 936 0
DWIDTH 13 0
BBX 11 14 1 2
BITMAP
1F00
3F80
71C0
60C0
E0E0
C060
C060
C060
C060
E0E0
60C0
71C0
3F80
1F00
ENDCHAR
STARTCHAR 112
ENCODING 112
SWIDTH 1008 0
DWIDTH 14 0
BBX 11 19 2 -3
BITMAP
CF00
DF80
F1C0
E0C0
C0E0
C060
C060
C060
C060
C0E0
E0C0
F1C0
DF80
CF00
C000
C000
C000
C000
C000
ENDCHAR
STARTCHAR 113
ENCODING 113
SWIDTH 1008 0
DWIDTH 14 0
BBX 11 19 1 -3
BITMAP
1E60
3F60
71E0
60E0
E060
C060
C060
C060
C060
E060
60E0
71E0
3F60
1E60
0060
0060
0060
0060
0060
ENDCHAR
STARTCHAR 114
ENCODING 114
SWIDTH 648 0
DWIDTH 9 0
BBX 6 14 2 2
BITMAP
CC
DC
F8
F0
E0
C0
C0
C0
C0
C0
C0
C0
C0
C0
ENDCHAR
STARTCHAR 115
ENCODING 115
SWIDTH 864 0
DWIDTH 12 0
BBX 10 14 1 2
BITMAP
3F00
7F80
E1C0
C0C0
C000
F800
7F00
0F80
01C0
C0C0
C0C0
E1C0
7F80
3F00
ENDCHAR
STARTCHAR 116
ENCODING 116
SWIDTH 576 0
DWIDTH 8 0
BBX 6 18 1 2
BITMAP
30
30
30
30
FC
FC
30
30
30
30
30
30
30
30
30
30
3C
1C
ENDCHAR
STARTCHAR 117
ENCODING 117
SWIDTH 1008 0
DWIDTH 14 0
BBX 10 14 2 2
BITMAP
C0C0
C0C0
C0C0
C0C0
C0C0
C0C0
C0C0
C0C0
C0C0
C0C0
C1C0
63C0
7EC0
1CC0
ENDCHAR
STARTCHAR 118
ENCODING 118
SWIDTH 936 0
DWIDTH 13 0
BBX 11 14 1 2
BITMAP
C060
C060
C060
60C0
60C0
71C0
3180
3180
1B00
1B00
1B00
0E00
0E00
0E00
ENDCHAR
STARTCHAR 119
ENCODING 119
SWIDTH 1296 0
DWIDTH 18 0
BBX 18 14 0 2
BITMAP
C0C0C0
C0C0C0
61E180
61E180
61E180
312300
333300
333300
1B3600
1A1600
1E1E00
0E1C00
0C0C00
0C0C00
ENDCHAR
STARTCHAR 120
ENCODING 120
SWIDTH 864 0
DWIDTH 12 0
BBX 10 14 1 2
BITMAP
C0C0
E1C0
6180
3300
1E00
1E00
0C00
1E00
1E00
3300
7380
6180
C0C0
C0C0
ENDCHAR
STARTCHAR 121
ENCODING 121
SWIDTH 936 0
DWIDTH 13 0
BBX 12 19 0 -3
BITMAP
C030
C030
6030
7060
3060
38E0
18C0
18C0
0D80
0D80
0780
0700
0300
0300
0600
0600
0C00
3C00
3800
ENDCHAR
STARTCHAR 122
ENCODING 122
SWIDTH 864 0
DWIDTH 12 0
BBX 10 14 1 2
BITMAP
FFC0
FFC0
0180
0300
0700
0E00
0C00
1C00
3800
3000
6000
E000
FFC0
FFC0
ENDCHAR
STARTCHAR 123
ENCODING 123
SWIDTH 576 0
DWIDTH 8 0
BBX 6 24 1 -3
BITMAP
0C
18
30
30
30
30
30
30
30
30
60
C0
C0
60
30
30
30
30
30
30
30
30
18
0C
ENDCHAR
STARTCHAR 124
ENCODING 124
SWIDTH 432 0
DWIDTH 6 0
BBX 1 24 2 -3
BITMAP
80
80
80
80
80
80
80
80
80
80
80
80
80
80
80
80
80
80
80
80
80
80
80
80
ENDCHAR
STARTCHAR 125
ENCODING 125
SWIDTH 576 0
DWIDTH 8 0
BBX 6 24 1 -3
BITMAP
C0
60
30
30
30
30
30
30
30
30
18
0C
0C
18
30
30
30
30
30
30
30
30
60
C0
ENDCHAR
STARTCHAR 126
ENCODING 126
SWIDTH 1008 0
DWIDTH 14 0
BBX 10 4 2 7
BITMAP
70C0
FCC0
CFC0
C380
ENDCHAR
STARTCHAR 127
ENCODING 127
SWIDTH 72 0
DWIDTH 1 0
BBX 0 0 0 0
BITMAP
ENDCHAR
STARTCHAR 128
ENCODING 128
SWIDTH 72 0
DWIDTH 1 0
BBX 0 0 0 0
BITMAP
ENDCHAR
STARTCHAR 129
ENCODING 129
SWIDTH 72 0
DWIDTH 1 0
BBX 0 0 0 0
BITMAP
ENDCHAR
STARTCHAR 130
ENCODING 130
SWIDTH 72 0
DWIDTH 1 0
BBX 0 0 0 0
BITMAP
ENDCHAR
STARTCHAR 131
ENCODING 131
SWIDTH 72 0
DWIDTH 1 0
BBX 0 0 0 0
BITMAP
ENDCHAR
STARTCHAR 132
ENCODING 132
SWIDTH 72 0
DWIDTH 1 0
BBX 0 0 0 0
BITMAP
ENDCHAR
STARTCHAR 133
ENCODING 133
SWIDTH 1224 0
DWIDTH 17 0
BBX 0 0 0 0
BITMAP
ENDCHAR
STARTCHAR 134
ENCODING 134
SWIDTH 1224 0
DWIDTH 17 0
BBX 16 22 0 2
BITMAP
8000
8000
8000
81C0
81C0
0360
0360
0620
0630
0630
0C18
0C18
0C18
180C
1FFC
1FFC
3006
3006
3006
6003
6003
6003
ENDCHAR
STARTCHAR 135
ENCODING 135
SWIDTH 1152 0
DWIDTH 16 0
BBX 0 0 0 0
BITMAP
ENDCHAR
STARTCHAR 136
ENCODING 136
SWIDTH 1152 0
DWIDTH 16 0
BBX 14 22 0 2
BITMAP
8000
8000
8000
BFFC
BFFC
3000
3000
3000
3000
3000
3000
3FF8
3FF8
3000
3000
3000
3000
3000
3000
3000
3FFC
3FFC
ENDCHAR
STARTCHAR 137
ENCODING 137
SWIDTH 1296 0
DWIDTH 18 0
BBX 16 22 0 2
BITMAP
8000
8000
8000
B003
B003
3003
3003
3003
3003
3003
3003
3FFF
3FFF
3003
3003
3003
3003
3003
3003
3003
3003
3003
ENDCHAR
STARTCHAR 138
ENCODING 138
SWIDTH 648 0
DWIDTH 9 0
BBX 6 22 0 2
BITMAP
80
80
80
8C
8C
0C
0C
0C
0C
0C
0C
0C
0C
0C
0C
0C
0C
0C
0C
0C
0C
0C
ENDCHAR
STARTCHAR 139
ENCODING 139
SWIDTH 1296 0
DWIDTH 18 0
BBX 0 0 0 0
BITMAP
ENDCHAR
STARTCHAR 140
ENCODING 140
SWIDTH 1296 0
DWIDTH 18 0
BBX 17 22 0 2
BITMAP
800000
400000
400000
23F000
0FFC00
1E1E00
380700
300300
700380
600180
600180
600180
600180
600180
600180
600180
700380
300300
380700
1E1E00
0FFC00
03F000
ENDCHAR
STARTCHAR 141
ENCODING 141
SWIDTH 1152 0
DWIDTH 16 0
BBX 0 0 0 0
BITMAP
ENDCHAR
STARTCHAR 142
ENCODING 142
SWIDTH 1152 0
DWIDTH 16 0
BBX 16 22 0 2
BITMAP
8000
8000
8000
B003
B807
1806
1C0E
0C0C
0E1C
0618
0738
0330
03F0
01E0
01E0
00C0
00C0
00C0
00C0
00C0
00C0
00C0
ENDCHAR
STARTCHAR 143
ENCODING 143
SWIDTH 1224 0
DWIDTH 17 0
BBX 16 22 0 2
BITMAP
8000
4000
4000
23E0
07F0
0C18
180C
3006
3006
6003
6003
6003
6003
6003
6003
3006
3006
180C
0C18
0630
3E3E
3E3E
ENDCHAR
STARTCHAR 144
ENCODING 144
SWIDTH 1224 0
DWIDTH 17 0
BBX 0 0 0 0
BITMAP
ENDCHAR
STARTCHAR 145
ENCODING 145
SWIDTH 1224 0
DWIDTH 17 0
BBX 15 19 1 2
BITMAP
0380
0380
06C0
06C0
0C40
0C60
0C60
1830
1830
1830
3018
3FF8
3FF8
600C
600C
600C
C006
C006
C006
ENDCHAR
STARTCHAR 146
ENCODING 146
SWIDTH 1224 0
DWIDTH 17 0
BBX 14 19 2 2
BITMAP
FFC0
FFF0
C070
C018
C018
C018
C018
C030
FFE0
FFF0
C018
C00C
C00C
C00C
C00C
C01C
C078
FFF0
FFC0
ENDCHAR
STARTCHAR 147
ENCODING 147
SWIDTH 1008 0
DWIDTH 14 0
BBX 10 19 2 2
BITMAP
FFC0
FFC0
C000
C000
C000
C000
C000
C000
C000
C000
C000
C000
C000
C000
C000
C000
C000
C000
C000
ENDCHAR
STARTCHAR 148
ENCODING 148
SWIDTH 1296 0
DWIDTH 18 0
BBX 15 19 1 2
BITMAP
0100
0380
06C0
0440
0C60
0C60
0820
1830
1830
1010
3018
3018
2008
600C
600C
600C
E00E
FFFE
FFFE
ENDCHAR
STARTCHAR 149
ENCODING 149
SWIDTH 1152 0
DWIDTH 16 0
BBX 12 19 2 2
BITMAP
FFF0
FFF0
C000
C000
C000
C000
C000
C000
FFE0
FFE0
C000
C000
C000
C000
C000
C000
C000
FFF0
FFF0
ENDCHAR
STARTCHAR 150
ENCODING 150
SWIDTH 1080 0
DWIDTH 15 0
BBX 13 19 1 2
BITMAP
FFF8
FFF8
0038
0070
00E0
01C0
01C0
0380
0700
0700
0E00
1C00
1C00
3800
7000
7000
E000
FFF8
FFF8
ENDCHAR
STARTCHAR 151
ENCODING 151
SWIDTH 1296 0
DWIDTH 18 0
BBX 14 19 2 2
BITMAP
C00C
C00C
C00C
C00C
C00C
C00C
C00C
C00C
FFFC
FFFC
C00C
C00C
C00C
C00C
C00C
C00C
C00C
C00C
C00C
ENDCHAR
STARTCHAR 152
ENCODING 152
SWIDTH 936 0
DWIDTH 13 0
BBX 11 18 1 2
BITMAP
3F80
7FC0
C060
C060
C060
C060
C060
C060
FFE0
FFE0
C060
C060
C060
C060
C060
C060
7FC0
7FC0
ENDCHAR
STARTCHAR 153
ENCODING 153
SWIDTH 576 0
DWIDTH 8 0
BBX 2 19 3 2
BITMAP
C0
C0
C0
C0
C0
C0
C0
C0
C0
C0
C0
C0
C0
C0
C0
C0
C0
C0
C0
ENDCHAR
STARTCHAR 154
ENCODING 154
SWIDTH 1296 0
DWIDTH 18 0
BBX 13 19 3 2
BITMAP
C038
C070
C0E0
C1C0
C380
C700
CE00
DC00
FC00
FE00
E700
C380
C180
C1C0
C0E0
C060
C070
C038
C018
ENDCHAR
STARTCHAR 155
ENCODING 155
SWIDTH 1296 0
DWIDTH 18 0
BBX 15 19 1 2
BITMAP
0100
0380
06C0
0440
0C60
0C60
0820
1830
1830
1010
3018
3018
2008
200C
600C
600C
E00E
C006
C006
ENDCHAR
STARTCHAR 156
ENCODING 156
SWIDTH 1512 0
DWIDTH 21 0
BBX 17 19 2 2
BITMAP
C00180
E00380
E00380
F00780
F00780
D80D80
D80D80
D80D80
CC1980
CC1980
CC1980
C63180
C63180
C63180
C36180
C36180
C36180
C1C180
C1C180
ENDCHAR
STARTCHAR 157
ENCODING 157
SWIDTH 1296 0
DWIDTH 18 0
BBX 14 19 2 2
BITMAP
E00C
F00C
F00C
D80C
DC0C
CC0C
CE0C
C60C
C70C
C30C
C38C
C18C
C1CC
C0CC
C0EC
C06C
C03C
C03C
C01C
ENDCHAR
STARTCHAR 158
ENCODING 158
SWIDTH 1008 0
DWIDTH 14 0
BBX 14 19 0 2
BITMAP
FFFC
FFFC
FFFC
0000
0000
0000
0000
0000
0FC0
0FC0
0FC0
0000
0000
0000
0000
0000
FFF8
FFF8
FFFC
ENDCHAR
STARTCHAR 159
ENCODING 159
SWIDTH 1296 0
DWIDTH 18 0
BBX 16 19 1 2
BITMAP
07E0
1FF8
3C3C
700E
6006
E007
C003
C003
C003
C003
C003
C003
C003
E007
6006
700E
3C3C
1FF8
07E0
ENDCHAR
STARTCHAR 160
ENCODING 160
SWIDTH 1152 0
DWIDTH 16 0
BBX 12 19 2 2
BITMAP
FFF0
FFF0
FFF0
C030
C030
C030
C030
C030
C030
C030
C030
C030
C030
C030
C030
C030
C030
C030
C030
ENDCHAR
STARTCHAR 161
ENCODING 161
SWIDTH 1152 0
DWIDTH 16 0
BBX 13 19 2 2
BITMAP
FFE0
FFF0
C030
C018
C018
C018
C018
C030
FFF0
FFE0
C000
C000
C000
C000
C000
C000
C000
C000
C000
ENDCHAR
STARTCHAR 162
ENCODING 162
SWIDTH 648 0
DWIDTH 9 0
BBX 8 7 0 13
BITMAP
3C
66
C3
C3
C3
66
3C
ENDCHAR
STARTCHAR 163
ENCODING 163
SWIDTH 1080 0
DWIDTH 15 0
BBX 12 19 1 2
BITMAP
FFF0
FFF0
C000
C000
6000
3000
1800
0C00
0600
0300
0600
0C00
1800
3000
6000
C000
C000
FFF0
FFF0
ENDCHAR
STARTCHAR 164
ENCODING 164
SWIDTH 1152 0
DWIDTH 16 0
BBX 14 19 1 2
BITMAP
FFFC
FFFC
0300
0300
0300
0300
0300
0300
0300
0300
0300
0300
0300
0300
0300
0300
0300
0300
0300
ENDCHAR
STARTCHAR 165
ENCODING 165
SWIDTH 1152 0
DWIDTH 16 0
BBX 14 19 2 2
BITMAP
C00C
E01C
6018
7038
3030
3870
1860
1CE0
0CC0
0FC0
0780
0780
0300
0300
0300
0300
0300
0300
0300
ENDCHAR
STARTCHAR 166
ENCODING 166
SWIDTH 1080 0
DWIDTH 15 0
BBX 10 19 2 2
BITMAP
0C00
0C00
0C00
3F00
7F80
EDC0
CCC0
CCC0
CCC0
CCC0
CCC0
CCC0
CCC0
EDC0
7F80
3F00
0C00
0C00
0C00
ENDCHAR
STARTCHAR 167
ENCODING 167
SWIDTH 1224 0
DWIDTH 17 0
BBX 15 19 1 2
BITMAP
C006
E00E
701C
3018
1830
1C70
0EE0
07C0
0380
0380
07C0
0EE0
0C60
1C70
3838
3018
600C
E00E
C006
ENDCHAR
STARTCHAR 168
ENCODING 168
SWIDTH 1152 0
DWIDTH 16 0
BBX 14 19 1 2
BITMAP
C30C
C30C
C30C
C30C
C30C
C30C
C30C
C30C
C30C
7FF8
3FF0
0780
0300
0300
0300
0300
0300
0300
0300
ENDCHAR
STARTCHAR 169
ENCODING 169
SWIDTH 1224 0
DWIDTH 17 0
BBX 15 19 1 2
BITMAP
07C0
0FE0
1830
3018
600C
600C
C006
C006
C006
C006
C006
C006
600C
600C
3018
1830
0C60
7C7C
7C7C
ENDCHAR
STARTCHAR 170
ENCODING 170
SWIDTH 648 0
DWIDTH 9 0
BBX 7 12 1 9
BITMAP
78
CC
CC
1C
6C
CC
CC
DC
76
00
FE
FE
ENDCHAR
STARTCHAR 171
ENCODING 171
SWIDTH 1008 0
DWIDTH 14 0
BBX 9 8 2 5
BITMAP
1980
3300
6600
CC00
CC00
6600
3300
1980
ENDCHAR
STARTCHAR 172
ENCODING 172
SWIDTH 936 0
DWIDTH 13 0
BBX 11 19 1 2
BITMAP
0100
0200
0400
0800
0000
1F00
3F80
61C0
60C0
00C0
07C0
3FC0
78C0
E0C0
C0C0
C1C0
E3C0
7EE0
3C60
ENDCHAR
STARTCHAR 173
ENCODING 173
SWIDTH 936 0
DWIDTH 13 0
BBX 10 19 1 2
BITMAP
0100
0200
0400
0800
0000
3E00
7F80
E0C0
C0C0
E000
6000
3800
1C00
7800
E000
E0C0
E0C0
7F80
3F00
ENDCHAR
STARTCHAR 174
ENCODING 174
SWIDTH 1008 0
DWIDTH 14 0
BBX 10 19 2 2
BITMAP
0200
0400
0800
1000
0000
CE00
DF80
F180
E0C0
C0C0
C0C0
C0C0
C0C0
C0C0
C0C0
C0C0
00C0
00C0
00C0
ENDCHAR
STARTCHAR 175
ENCODING 175
SWIDTH 648 0
DWIDTH 9 0
BBX 4 20 2 2
BITMAP
10
20
40
80
00
00
C0
C0
C0
C0
C0
C0
C0
C0
C0
C0
C0
E0
70
30
ENDCHAR
STARTCHAR 176
ENCODING 176
SWIDTH 648 0
DWIDTH 9 0
BBX 8 7 0 13
BITMAP
3C
66
C3
C3
C3
66
3C
ENDCHAR
STARTCHAR 177
ENCODING 177
SWIDTH 936 0
DWIDTH 13 0
BBX 10 14 1 2
BITMAP
1CC0
7FC0
7380
E180
E180
C180
C180
C180
C180
E180
6180
7380
3FC0
1CC0
ENDCHAR
STARTCHAR 178
ENCODING 178
SWIDTH 1008 0
DWIDTH 14 0
BBX 11 20 2 0
BITMAP
1F00
3F80
71C0
60E0
E060
C060
C0E0
C1C0
C7C0
C700
C1C0
C0E0
C060
C060
C1E0
FFC0
FF00
C000
C000
C000
ENDCHAR
STARTCHAR 179
ENCODING 179
SWIDTH 936 0
DWIDTH 13 0
BBX 9 15 2 2
BITMAP
C180
C180
C180
E380
6300
6300
3600
3E00
1C00
0C00
0C00
0C00
0C00
0C00
0C00
ENDCHAR
STARTCHAR 180
ENCODING 180
SWIDTH 936 0
DWIDTH 13 0
BBX 10 18 1 2
BITMAP
3F00
7F80
C1C0
C0C0
C0C0
E000
7000
3000
3C00
7F00
E380
C1C0
C0C0
C0C0
C1C0
E1C0
7F80
3F00
ENDCHAR
STARTCHAR 181
ENCODING 181
SWIDTH 936 0
DWIDTH 13 0
BBX 10 14 1 2
BITMAP
3E00
7F80
E0C0
C0C0
E000
6000
3800
1C00
7800
E000
E0C0
E0C0
7F80
3F00
ENDCHAR
STARTCHAR 182
ENCODING 182
SWIDTH 1008 0
DWIDTH 14 0
BBX 7 22 2 -1
BITMAP
FE
FE
0E
1C
18
38
70
E0
C0
C0
C0
C0
E0
7C
3E
06
06
06
0E
3E
70
70
ENDCHAR
STARTCHAR 183
ENCODING 183
SWIDTH 1008 0
DWIDTH 14 0
BBX 10 14 2 2
BITMAP
CE00
DF80
F180
E0C0
C0C0
C0C0
C0C0
C0C0
C0C0
C0C0
C0C0
00C0
00C0
00C0
ENDCHAR
STARTCHAR 184
ENCODING 184
SWIDTH 936 0
DWIDTH 13 0
BBX 11 16 1 3
BITMAP
3F80
7FC0
E0E0
E0E0
C060
E0E0
FFE0
FFE0
E0E0
E0E0
C060
C060
C0E0
E1C0
7F80
3F00
ENDCHAR
STARTCHAR 185
ENCODING 185
SWIDTH 576 0
DWIDTH 8 0
BBX 4 14 1 2
BITMAP
C0
C0
C0
C0
C0
C0
C0
C0
C0
C0
C0
E0
70
30
ENDCHAR
STARTCHAR 186
ENCODING 186
SWIDTH 864 0
DWIDTH 12 0
BBX 9 13 1 2
BITMAP
C180
C380
C700
CE00
DC00
F800
F800
DC00
CE00
C600
C700
C380
C180
ENDCHAR
STARTCHAR 187
ENCODING 187
SWIDTH 936 0
DWIDTH 13 0
BBX 9 14 1 2
BITMAP
FF00
FF80
0380
0180
0180
0180
3F80
7F80
E180
E180
E180
E180
E180
E180
ENDCHAR
STARTCHAR 188
ENCODING 188
SWIDTH 1008 0
DWIDTH 14 0
BBX 10 13 2 1
BITMAP
C180
C180
C180
C180
C180
C180
C180
C180
E380
FFC0
FCC0
C000
C000
ENDCHAR
STARTCHAR 189
ENCODING 189
SWIDTH 936 0
DWIDTH 13 0
BBX 11 13 1 2
BITMAP
C060
E060
60C0
61C0
7180
3180
3180
1B00
1B00
1F00
0E00
0E00
0400
ENDCHAR
STARTCHAR 190
ENCODING 190
SWIDTH 1008 0
DWIDTH 14 0
BBX 7 21 2 0
BITMAP
FE
FE
30
E0
80
C0
E0
60
F8
F8
C0
C0
60
78
3C
3E
06
06
1E
7E
78
ENDCHAR
STARTCHAR 191
ENCODING 191
SWIDTH 936 0
DWIDTH 13 0
BBX 9 12 2 2
BITMAP
3E00
7F00
6300
E380
C180
C180
C180
C180
C180
E380
7F00
3E00
ENDCHAR
STARTCHAR 192
ENCODING 192
SWIDTH 1008 0
DWIDTH 14 0
BBX 9 11 2 5
BITMAP
FF80
FF80
C180
C180
C180
C180
C180
C180
C180
C180
C180
ENDCHAR
STARTCHAR 193
ENCODING 193
SWIDTH 936 0
DWIDTH 13 0
BBX 9 12 2 2
BITMAP
7E00
FF00
E380
C180
C180
C180
E380
FF00
FE00
C000
C000
C000
ENDCHAR
STARTCHAR 194
ENCODING 194
SWIDTH 864 0
DWIDTH 12 0
BBX 10 14 1 2
BITMAP
1F00
3F80
71C0
60C0
E000
C000
C000
C000
E000
7E00
3F80
01C0
0FC0
0780
ENDCHAR
STARTCHAR 195
ENCODING 195
SWIDTH 936 0
DWIDTH 13 0
BBX 10 11 2 3
BITMAP
3FC0
7FC0
E700
C300
C300
C300
C300
C300
E700
7E00
3C00
ENDCHAR
STARTCHAR 196
ENCODING 196
SWIDTH 648 0
DWIDTH 9 0
BBX 7 10 1 3
BITMAP
FE
FE
30
30
30
30
30
30
3C
1C
ENDCHAR
STARTCHAR 197
ENCODING 197
SWIDTH 1008 0
DWIDTH 14 0
BBX 10 11 2 2
BITMAP
C0C0
C0C0
C0C0
C0C0
C0C0
C0C0
C0C0
E1C0
7380
3F00
1E00
ENDCHAR
STARTCHAR 198
ENCODING 198
SWIDTH 1080 0
DWIDTH 15 0
BBX 10 13 2 2
BITMAP
1E00
7F80
FFC0
CCC0
CCC0
CCC0
CCC0
CCC0
7F80
3F00
0C00
0C00
0C00
ENDCHAR
STARTCHAR 199
ENCODING 199
SWIDTH 864 0
DWIDTH 12 0
BBX 10 14 1 2
BITMAP
C0C0
E1C0
6180
3300
1E00
1E00
0C00
1E00
1E00
3300
7380
6180
C0C0
C0C0
ENDCHAR
STARTCHAR 200
ENCODING 200
SWIDTH 1080 0
DWIDTH 15 0
BBX 10 12 2 2
BITMAP
CCC0
CCC0
CCC0
CCC0
CCC0
CCC0
EDC0
7F80
3F00
0C00
0C00
0C00
ENDCHAR
STARTCHAR 201
ENCODING 201
SWIDTH 1296 0
DWIDTH 18 0
BBX 15 12 1 2
BITMAP
701E
E00E
C006
C006
C006
C186
E18E
619C
79B8
3FF8
1DB0
0C30
ENDCHAR
STARTCHAR 202
ENCODING 202
SWIDTH 648 0
DWIDTH 9 0
BBX 6 15 1 2
BITMAP
CC
CC
00
60
60
60
60
60
60
60
60
60
70
38
18
ENDCHAR
STARTCHAR 203
ENCODING 203
SWIDTH 1008 0
DWIDTH 14 0
BBX 10 15 2 2
BITMAP
C0C0
C0C0
0000
C0C0
C0C0
C0C0
C0C0
C0C0
C0C0
C0C0
C0C0
E1C0
7380
3F00
1E00
ENDCHAR
STARTCHAR 204
ENCODING 204
SWIDTH 936 0
DWIDTH 13 0
BBX 9 18 2 2
BITMAP
0080
0100
0200
0400
0000
0000
3E00
7F00
6300
E380
C180
C180
C180
C180
C180
E380
7F00
3E00
ENDCHAR
STARTCHAR 205
ENCODING 205
SWIDTH 1008 0
DWIDTH 14 0
BBX 10 17 2 2
BITMAP
0200
0400
0800
1000
0000
0000
C0C0
C0C0
C0C0
C0C0
C0C0
C0C0
C0C0
E1C0
7380
3F00
1E00
ENDCHAR
STARTCHAR 206
ENCODING 206
SWIDTH 1296 0
DWIDTH 18 0
BBX 15 18 1 2
BITMAP
0040
0080
0100
0200
0000
0000
701E
E00E
C006
C006
C006
C186
E18E
619C
79B8
3FF8
1DB0
0C30
ENDCHAR
STARTCHAR 207
ENCODING 207
SWIDTH 576 0
DWIDTH 8 0
BBX 6 22 1 2
BITMAP
CC
00
00
30
30
30
30
30
30
30
30
30
30
30
30
30
30
30
30
30
30
30
ENDCHAR
STARTCHAR 208
ENCODING 208
SWIDTH 1296 0
DWIDTH 18 0
BBX 17 19 0 2
BITMAP
3FF000
3FFC00
301E00
300700
300300
300380
300180
300180
FF0180
FF0180
300180
300180
300180
300380
300300
300700
301E00
3FFC00
3FF000
ENDCHAR
STARTCHAR 209
ENCODING 209
SWIDTH 1296 0
DWIDTH 18 0
BBX 14 22 2 2
BITMAP
1B60
11C0
0000
E00C
F00C
F00C
D80C
DC0C
CC0C
CE0C
C60C
C70C
C30C
C38C
C18C
C1CC
C0CC
C0EC
C06C
C03C
C03C
C01C
ENDCHAR
STARTCHAR 210
ENCODING 210
SWIDTH 1296 0
DWIDTH 18 0
BBX 16 22 1 2
BITMAP
0300
0180
0000
07E0
1FF8
3C3C
700E
6006
E007
C003
C003
C003
C003
C003
C003
C003
E007
6006
700E
3C3C
1FF8
07E0
ENDCHAR
STARTCHAR 211
ENCODING 211
SWIDTH 1296 0
DWIDTH 18 0
BBX 16 22 1 2
BITMAP
00C0
0180
0000
07E0
1FF8
3C3C
700E
6006
E007
C003
C003
C003
C003
C003
C003
C003
E007
6006
700E
3C3C
1FF8
07E0
ENDCHAR
STARTCHAR 212
ENCODING 212
SWIDTH 1296 0
DWIDTH 18 0
BBX 16 22 1 2
BITMAP
0330
0618
0000
07E0
1FF8
3C3C
700E
6006
E007
C003
C003
C003
C003
C003
C003
C003
E007
6006
700E
3C3C
1FF8
07E0
ENDCHAR
STARTCHAR 213
ENCODING 213
SWIDTH 1296 0
DWIDTH 18 0
BBX 16 22 1 2
BITMAP
06D8
0470
0000
07E0
1FF8
3C3C
700E
6006
E007
C003
C003
C003
C003
C003
C003
C003
E007
6006
700E
3C3C
1FF8
07E0
ENDCHAR
STARTCHAR 214
ENCODING 214
SWIDTH 1296 0
DWIDTH 18 0
BBX 16 22 1 2
BITMAP
0630
0000
0000
07E0
1FF8
3C3C
700E
6006
E007
C003
C003
C003
C003
C003
C003
C003
E007
6006
700E
3C3C
1FF8
07E0
ENDCHAR
STARTCHAR 215
ENCODING 215
SWIDTH 1008 0
DWIDTH 14 0
BBX 13 12 0 3
BITMAP
C018
6030
3060
18C0
0D80
0700
0700
0D80
18C0
3060
6030
C018
ENDCHAR
STARTCHAR 216
ENCODING 216
SWIDTH 1296 0
DWIDTH 18 0
BBX 18 19 0 2
BITMAP
03F0C0
0FFDC0
1E1F80
380700
300F00
701D80
603980
607180
60E180
61C180
638180
670180
6E0180
7C0380
380300
380700
7E1E00
EFFC00
C3F000
ENDCHAR
STARTCHAR 217
ENCODING 217
SWIDTH 1296 0
DWIDTH 18 0
BBX 14 22 2 2
BITMAP
0600
0300
0000
C00C
C00C
C00C
C00C
C00C
C00C
C00C
C00C
C00C
C00C
C00C
C00C
C00C
C00C
C00C
6018
7038
3FF0
0FC0
ENDCHAR
STARTCHAR 218
ENCODING 218
SWIDTH 1296 0
DWIDTH 18 0
BBX 14 22 2 2
BITMAP
0180
0300
0000
C00C
C00C
C00C
C00C
C00C
C00C
C00C
C00C
C00C
C00C
C00C
C00C
C00C
C00C
C00C
6018
7038
3FF0
0FC0
ENDCHAR
STARTCHAR 219
ENCODING 219
SWIDTH 1296 0
DWIDTH 18 0
BBX 14 22 2 2
BITMAP
0CC0
1860
0000
C00C
C00C
C00C
C00C
C00C
C00C
C00C
C00C
C00C
C00C
C00C
C00C
C00C
C00C
C00C
6018
7038
3FF0
0FC0
ENDCHAR
STARTCHAR 220
ENCODING 220
SWIDTH 1296 0
DWIDTH 18 0
BBX 14 22 2 2
BITMAP
18C0
0000
0000
C00C
C00C
C00C
C00C
C00C
C00C
C00C
C00C
C00C
C00C
C00C
C00C
C00C
C00C
C00C
6018
7038
3FF0
0FC0
ENDCHAR
STARTCHAR 221
ENCODING 221
SWIDTH 1152 0
DWIDTH 16 0
BBX 14 22 1 2
BITMAP
0180
0300
0000
C00C
E01C
6018
7038
3030
3870
1860
1CE0
0CC0
0FC0
0780
0780
0300
0300
0300
0300
0300
0300
0300
ENDCHAR
STARTCHAR 222
ENCODING 222
SWIDTH 1152 0
DWIDTH 16 0
BBX 13 19 2 2
BITMAP
C000
C000
C000
C000
FFE0
FFF0
C030
C018
C018
C018
C018
C030
FFF0
FFE0
C000
C000
C000
C000
C000
ENDCHAR
STARTCHAR 223
ENCODING 223
SWIDTH 1080 0
DWIDTH 15 0
BBX 10 19 3 2
BITMAP
1C00
7F00
E300
C180
C180
C180
C300
C700
CE00
CF00
C380
C180
C0C0
C0C0
C0C0
C180
C380
CF00
CE00
ENDCHAR
STARTCHAR 224
ENCODING 224
SWIDTH 936 0
DWIDTH 13 0
BBX 11 19 1 2
BITMAP
1800
0C00
0600
0300
0000
1F00
3F80
61C0
60C0
00C0
07C0
3FC0
78C0
E0C0
C0C0
C1C0
E3C0
7EE0
3C60
ENDCHAR
STARTCHAR 225
ENCODING 225
SWIDTH 936 0
DWIDTH 13 0
BBX 11 19 1 2
BITMAP
0180
0300
0600
0C00
0000
1F00
3F80
61C0
60C0
00C0
07C0
3FC0
78C0
E0C0
C0C0
C1C0
E3C0
7EE0
3C60
ENDCHAR
STARTCHAR 226
ENCODING 226
SWIDTH 936 0
DWIDTH 13 0
BBX 11 19 1 2
BITMAP
0C00
1E00
3300
6180
0000
1F00
3F80
61C0
60C0
00C0
07C0
3FC0
78C0
E0C0
C0C0
C1C0
E3C0
7EE0
3C60
ENDCHAR
STARTCHAR 227
ENCODING 227
SWIDTH 936 0
DWIDTH 13 0
BBX 11 18 1 2
BITMAP
1C40
36C0
2380
0000
1F00
3F80
61C0
60C0
00C0
07C0
3FC0
78C0
E0C0
C0C0
C1C0
E3C0
7EE0
3C60
ENDCHAR
STARTCHAR 228
ENCODING 228
SWIDTH 936 0
DWIDTH 13 0
BBX 11 18 1 2
BITMAP
3300
3300
0000
0000
1F00
3F80
61C0
60C0
00C0
07C0
3FC0
78C0
E0C0
C0C0
C1C0
E3C0
7EE0
3C60
ENDCHAR
STARTCHAR 229
ENCODING 229
SWIDTH 936 0
DWIDTH 13 0
BBX 11 19 1 2
BITMAP
0600
0900
0900
0600
0000
1F00
3F80
61C0
60C0
00C0
07C0
3FC0
78C0
E0C0
C0C0
C1C0
E3C0
7EE0
3C60
ENDCHAR
STARTCHAR 230
ENCODING 230
SWIDTH 1512 0
DWIDTH 21 0
BBX 19 14 1 2
BITMAP
1F0E00
3FBF80
61F1C0
60E0C0
00C060
07C060
3FFFE0
78FFE0
E0C000
C0C000
C1E060
E3F0E0
7E3FC0
3C0F00
ENDCHAR
STARTCHAR 231
ENCODING 231
SWIDTH 864 0
DWIDTH 12 0
BBX 10 19 1 -3
BITMAP
1F00
3F80
71C0
60C0
E000
C000
C000
C000
C000
E000
60C0
71C0
3F80
1F00
0C00
0600
0600
3E00
1C00
ENDCHAR
STARTCHAR 232
ENCODING 232
SWIDTH 936 0
DWIDTH 13 0
BBX 11 19 1 2
BITMAP
1800
0C00
0600
0300
0000
0E00
3F80
71C0
60C0
C060
C060
FFE0
FFE0
C000
C000
6060
70E0
3FC0
0F00
ENDCHAR
STARTCHAR 233
ENCODING 233
SWIDTH 936 0
DWIDTH 13 0
BBX 11 19 1 2
BITMAP
0300
0600
0C00
1800
0000
0E00
3F80
71C0
60C0
C060
C060
FFE0
FFE0
C000
C000
6060
70E0
3FC0
0F00
ENDCHAR
STARTCHAR 234
ENCODING 234
SWIDTH 936 0
DWIDTH 13 0
BBX 11 19 1 2
BITMAP
0C00
1E00
3300
6180
0000
0E00
3F80
71C0
60C0
C060
C060
FFE0
FFE0
C000
C000
6060
70E0
3FC0
0F00
ENDCHAR
STARTCHAR 235
ENCODING 235
SWIDTH 936 0
DWIDTH 13 0
BBX 11 18 1 2
BITMAP
3300
3300
0000
0000
0E00
3F80
71C0
60C0
C060
C060
FFE0
FFE0
C000
C000
6060
70E0
3FC0
0F00
ENDCHAR
STARTCHAR 236
ENCODING 236
SWIDTH 432 0
DWIDTH 6 0
BBX 5 19 0 2
BITMAP
C0
60
30
18
00
30
30
30
30
30
30
30
30
30
30
30
30
30
30
ENDCHAR
STARTCHAR 237
ENCODING 237
SWIDTH 432 0
DWIDTH 6 0
BBX 5 19 1 2
BITMAP
18
30
60
C0
00
60
60
60
60
60
60
60
60
60
60
60
60
60
60
ENDCHAR
STARTCHAR 238
ENCODING 238
SWIDTH 504 0
DWIDTH 7 0
BBX 7 19 0 2
BITMAP
30
78
CC
86
00
30
30
30
30
30
30
30
30
30
30
30
30
30
30
ENDCHAR
STARTCHAR 239
ENCODING 239
SWIDTH 432 0
DWIDTH 6 0
BBX 6 18 0 2
BITMAP
CC
CC
00
00
30
30
30
30
30
30
30
30
30
30
30
30
30
30
ENDCHAR
STARTCHAR 240
ENCODING 240
SWIDTH 936 0
DWIDTH 13 0
BBX 11 19 1 2
BITMAP
6000
3980
0E00
1E00
6300
1F80
3F80
71C0
60C0
E0E0
C060
C060
C060
C060
E0E0
60C0
71C0
3F80
1F00
ENDCHAR
STARTCHAR 241
ENCODING 241
SWIDTH 1008 0
DWIDTH 14 0
BBX 10 18 2 2
BITMAP
3880
6D80
4700
0000
CE00
DF80
F180
E0C0
C0C0
C0C0
C0C0
C0C0
C0C0
C0C0
C0C0
C0C0
C0C0
C0C0
ENDCHAR
STARTCHAR 242
ENCODING 242
SWIDTH 936 0
DWIDTH 13 0
BBX 11 19 1 2
BITMAP
1800
0C00
0600
0300
0000
1F00
3F80
71C0
60C0
E0E0
C060
C060
C060
C060
E0E0
60C0
71C0
3F80
1F00
ENDCHAR
STARTCHAR 243
ENCODING 243
SWIDTH 936 0
DWIDTH 13 0
BBX 11 19 1 2
BITMAP
0300
0600
0C00
1800
0000
1F00
3F80
71C0
60C0
E0E0
C060
C060
C060
C060
E0E0
60C0
71C0
3F80
1F00
ENDCHAR
STARTCHAR 244
ENCODING 244
SWIDTH 936 0
DWIDTH 13 0
BBX 11 19 1 2
BITMAP
0C00
1E00
3300
6180
0000
1F00
3F80
71C0
60C0
E0E0
C060
C060
C060
C060
E0E0
60C0
71C0
3F80
1F00
ENDCHAR
STARTCHAR 245
ENCODING 245
SWIDTH 936 0
DWIDTH 13 0
BBX 11 18 1 2
BITMAP
1C40
36C0
2380
0000
1F00
3F80
71C0
60C0
E0E0
C060
C060
C060
C060
E0E0
60C0
71C0
3F80
1F00
ENDCHAR
STARTCHAR 246
ENCODING 246
SWIDTH 936 0
DWIDTH 13 0
BBX 11 18 1 2
BITMAP
3300
3300
0000
0000
1F00
3F80
71C0
60C0
E0E0
C060
C060
C060
C060
E0E0
60C0
71C0
3F80
1F00
ENDCHAR
STARTCHAR 247
ENCODING 247
SWIDTH 1008 0
DWIDTH 14 0
BBX 12 12 1 3
BITMAP
0600
0600
0600
0000
0000
FFF0
FFF0
0000
0000
0600
0600
0600
ENDCHAR
STARTCHAR 248
ENCODING 248
SWIDTH 936 0
DWIDTH 13 0
BBX 13 14 0 2
BITMAP
0F98
1FF8
3870
30E0
71F0
63B0
6330
6630
6C30
7C70
3860
70E0
FFC0
CF80
ENDCHAR
STARTCHAR 249
ENCODING 249
SWIDTH 1008 0
DWIDTH 14 0
BBX 10 19 2 2
BITMAP
3000
1800
0C00
0600
0000
C0C0
C0C0
C0C0
C0C0
C0C0
C0C0
C0C0
C0C0
C0C0
C0C0
C1C0
63C0
7EC0
1CC0
ENDCHAR
STARTCHAR 250
ENCODING 250
SWIDTH 1008 0
DWIDTH 14 0
BBX 10 19 2 2
BITMAP
0300
0600
0C00
1800
0000
C0C0
C0C0
C0C0
C0C0
C0C0
C0C0
C0C0
C0C0
C0C0
C0C0
C1C0
63C0
7EC0
1CC0
ENDCHAR
STARTCHAR 251
ENCODING 251
SWIDTH 1008 0
DWIDTH 14 0
BBX 10 19 2 2
BITMAP
0C00
1E00
3300
6180
0000
C0C0
C0C0
C0C0
C0C0
C0C0
C0C0
C0C0
C0C0
C0C0
C0C0
C1C0
63C0
7EC0
1CC0
ENDCHAR
STARTCHAR 252
ENCODING 252
SWIDTH 1008 0
DWIDTH 14 0
BBX 10 18 2 2
BITMAP
3300
3300
0000
0000
C0C0
C0C0
C0C0
C0C0
C0C0
C0C0
C0C0
C0C0
C0C0
C0C0
C1C0
63C0
7EC0
1CC0
ENDCHAR
STARTCHAR 253
ENCODING 253
SWIDTH 936 0
DWIDTH 13 0
BBX 12 24 0 -3
BITMAP
00C0
0180
0300
0600
0000
C030
C030
6030
7060
3060
38E0
18C0
18C0
0D80
0D80
0780
0700
0300
0300
0600
0600
0C00
3C00
3800
ENDCHAR
STARTCHAR 254
ENCODING 254
SWIDTH 1008 0
DWIDTH 14 0
BBX 11 24 2 -3
BITMAP
C000
C000
C000
C000
C000
CF00
DF80
F1C0
E0C0
C0E0
C060
C060
C060
C060
C0E0
E0C0
F1C0
DF80
CF00
C000
C000
C000
C000
C000
ENDCHAR
STARTCHAR 255
ENCODING 255
SWIDTH 936 0
DWIDTH 13 0
BBX 12 23 0 -3
BITMAP
1980
1980
0000
0000
C030
C030
6030
7060
3060
38E0
18C0
18C0
0D80
0D80
0780
0700
0300
0300
0600
0600
0C00
3C00
3800
ENDCHAR
ENDFONT
