STARTFONT 2.1
COMMENT Exported by Fony v1.4.7
FONT Ne
SIZE 20 100 100
FONTBOUNDINGBOX 19 19 0 -4
STARTPROPERTIES 6
COPYRIGHT "Copyright (c) 1984, 1987 Adobe Systems Incorporated. All Rights Reserved. Copyright (c) 1988, 1991 Digital Equipment Corporation. All Rights Reserved."
RESOLUTION_X 100
RESOLUTION_Y 100
FONT_ASCENT 16
FONT_DESCENT 4
DEFAULT_CHAR 0
ENDPROPERTIES
CHARS 256
STARTCHAR 000
ENCODING 0
SWIDTH 1152 0
DWIDTH 16 0
BBX 15 13 0 0
BITMAP
AAAA
0000
8002
0000
8002
0000
8002
0000
8002
0000
8002
0000
AAAA
ENDCHAR
STARTCHAR 001
ENCODING 1
SWIDTH 72 0
DWIDTH 1 0
BBX 0 0 0 0
BITMAP
ENDCHAR
STARTCHAR 002
ENCODING 2
SWIDTH 72 0
DWIDTH 1 0
BBX 0 0 0 0
BITMAP
ENDCHAR
STARTCHAR 003
ENCODING 3
SWIDTH 72 0
DWIDTH 1 0
BBX 0 0 0 0
BITMAP
ENDCHAR
STARTCHAR 004
ENCODING 4
SWIDTH 72 0
DWIDTH 1 0
BBX 0 0 0 0
BITMAP
ENDCHAR
STARTCHAR 005
ENCODING 5
SWIDTH 72 0
DWIDTH 1 0
BBX 0 0 0 0
BITMAP
ENDCHAR
STARTCHAR 006
ENCODING 6
SWIDTH 72 0
DWIDTH 1 0
BBX 0 0 0 0
BITMAP
ENDCHAR
STARTCHAR 007
ENCODING 7
SWIDTH 72 0
DWIDTH 1 0
BBX 0 0 0 0
BITMAP
ENDCHAR
STARTCHAR 008
ENCODING 8
SWIDTH 72 0
DWIDTH 1 0
BBX 0 0 0 0
BITMAP
ENDCHAR
STARTCHAR 009
ENCODING 9
SWIDTH 72 0
DWIDTH 1 0
BBX 0 0 0 0
BITMAP
ENDCHAR
STARTCHAR 010
ENCODING 10
SWIDTH 72 0
DWIDTH 1 0
BBX 0 0 0 0
BITMAP
ENDCHAR
STARTCHAR 011
ENCODING 11
SWIDTH 72 0
DWIDTH 1 0
BBX 0 0 0 0
BITMAP
ENDCHAR
STARTCHAR 012
ENCODING 12
SWIDTH 72 0
DWIDTH 1 0
BBX 0 0 0 0
BITMAP
ENDCHAR
STARTCHAR 013
ENCODING 13
SWIDTH 72 0
DWIDTH 1 0
BBX 0 0 0 0
BITMAP
ENDCHAR
STARTCHAR 014
ENCODING 14
SWIDTH 72 0
DWIDTH 1 0
BBX 0 0 0 0
BITMAP
ENDCHAR
STARTCHAR 015
ENCODING 15
SWIDTH 72 0
DWIDTH 1 0
BBX 0 0 0 0
BITMAP
ENDCHAR
STARTCHAR 016
ENCODING 16
SWIDTH 72 0
DWIDTH 1 0
BBX 0 0 0 0
BITMAP
ENDCHAR
STARTCHAR 017
ENCODING 17
SWIDTH 72 0
DWIDTH 1 0
BBX 0 0 0 0
BITMAP
ENDCHAR
STARTCHAR 018
ENCODING 18
SWIDTH 72 0
DWIDTH 1 0
BBX 0 0 0 0
BITMAP
ENDCHAR
STARTCHAR 019
ENCODING 19
SWIDTH 72 0
DWIDTH 1 0
BBX 0 0 0 0
BITMAP
ENDCHAR
STARTCHAR 020
ENCODING 20
SWIDTH 72 0
DWIDTH 1 0
BBX 0 0 0 0
BITMAP
ENDCHAR
STARTCHAR 021
ENCODING 21
SWIDTH 72 0
DWIDTH 1 0
BBX 0 0 0 0
BITMAP
ENDCHAR
STARTCHAR 022
ENCODING 22
SWIDTH 72 0
DWIDTH 1 0
BBX 0 0 0 0
BITMAP
ENDCHAR
STARTCHAR 023
ENCODING 23
SWIDTH 72 0
DWIDTH 1 0
BBX 0 0 0 0
BITMAP
ENDCHAR
STARTCHAR 024
ENCODING 24
SWIDTH 72 0
DWIDTH 1 0
BBX 0 0 0 0
BITMAP
ENDCHAR
STARTCHAR 025
ENCODING 25
SWIDTH 72 0
DWIDTH 1 0
BBX 0 0 0 0
BITMAP
ENDCHAR
STARTCHAR 026
ENCODING 26
SWIDTH 72 0
DWIDTH 1 0
BBX 0 0 0 0
BITMAP
ENDCHAR
STARTCHAR 027
ENCODING 27
SWIDTH 72 0
DWIDTH 1 0
BBX 0 0 0 0
BITMAP
ENDCHAR
STARTCHAR 028
ENCODING 28
SWIDTH 72 0
DWIDTH 1 0
BBX 0 0 0 0
BITMAP
ENDCHAR
STARTCHAR 029
ENCODING 29
SWIDTH 72 0
DWIDTH 1 0
BBX 0 0 0 0
BITMAP
ENDCHAR
STARTCHAR 030
ENCODING 30
SWIDTH 72 0
DWIDTH 1 0
BBX 0 0 0 0
BITMAP
ENDCHAR
STARTCHAR 031
ENCODING 31
SWIDTH 72 0
DWIDTH 1 0
BBX 0 0 0 0
BITMAP
ENDCHAR
STARTCHAR 032
ENCODING 32
SWIDTH 360 0
DWIDTH 5 0
BBX 0 0 0 0
BITMAP
ENDCHAR
STARTCHAR 033
ENCODING 33
SWIDTH 360 0
DWIDTH 5 0
BBX 2 14 1 0
BITMAP
C0
C0
C0
C0
C0
C0
C0
80
80
80
00
00
C0
C0
ENDCHAR
STARTCHAR 034
ENCODING 34
SWIDTH 504 0
DWIDTH 7 0
BBX 4 5 1 9
BITMAP
90
90
90
90
90
ENDCHAR
STARTCHAR 035
ENCODING 35
SWIDTH 792 0
DWIDTH 11 0
BBX 10 13 0 0
BITMAP
0900
0900
0900
0900
7FC0
1200
1200
1200
FF80
2400
2400
2400
2400
ENDCHAR
STARTCHAR 036
ENCODING 36
SWIDTH 720 0
DWIDTH 10 0
BBX 9 17 0 -2
BITMAP
0800
0800
3F00
6980
C980
C800
E800
7800
1E00
0F00
0B80
0980
C980
CB00
7E00
0800
0800
ENDCHAR
STARTCHAR 037
ENCODING 37
SWIDTH 1152 0
DWIDTH 16 0
BBX 15 14 0 0
BITMAP
1C20
3220
63C0
6240
C480
C480
C91C
7132
0262
0262
04C4
04C4
08C8
0870
ENDCHAR
STARTCHAR 038
ENCODING 38
SWIDTH 1008 0
DWIDTH 14 0
BBX 13 14 0 0
BITMAP
1E00
3300
2100
2300
3600
1C00
39F8
7C60
EE40
C780
C380
C1C8
E3F0
7C60
ENDCHAR
STARTCHAR 039
ENCODING 39
SWIDTH 288 0
DWIDTH 4 0
BBX 1 5 1 9
BITMAP
80
80
80
80
80
ENDCHAR
STARTCHAR 040
ENCODING 40
SWIDTH 504 0
DWIDTH 7 0
BBX 6 17 0 -3
BITMAP
04
18
30
60
60
C0
C0
C0
C0
C0
C0
C0
60
60
30
18
04
ENDCHAR
STARTCHAR 041
ENCODING 41
SWIDTH 504 0
DWIDTH 7 0
BBX 6 17 0 -3
BITMAP
80
60
30
18
18
0C
0C
0C
0C
0C
0C
0C
18
18
30
60
80
ENDCHAR
STARTCHAR 042
ENCODING 42
SWIDTH 720 0
DWIDTH 10 0
BBX 7 7 1 7
BITMAP
10
92
D6
38
D6
92
10
ENDCHAR
STARTCHAR 043
ENCODING 43
SWIDTH 720 0
DWIDTH 10 0
BBX 9 9 0 1
BITMAP
0800
0800
0800
0800
FF80
0800
0800
0800
0800
ENDCHAR
STARTCHAR 044
ENCODING 44
SWIDTH 360 0
DWIDTH 5 0
BBX 3 5 0 -3
BITMAP
60
60
20
40
80
ENDCHAR
STARTCHAR 045
ENCODING 45
SWIDTH 432 0
DWIDTH 6 0
BBX 5 1 0 5
BITMAP
F8
ENDCHAR
STARTCHAR 046
ENCODING 46
SWIDTH 360 0
DWIDTH 5 0
BBX 2 2 1 0
BITMAP
C0
C0
ENDCHAR
STARTCHAR 047
ENCODING 47
SWIDTH 432 0
DWIDTH 6 0
BBX 5 14 0 0
BITMAP
08
08
08
10
10
10
20
20
20
40
40
40
80
80
ENDCHAR
STARTCHAR 048
ENCODING 48
SWIDTH 720 0
DWIDTH 10 0
BBX 9 14 0 0
BITMAP
1C00
6300
6300
C180
C180
C180
C180
C180
C180
C180
C180
6300
6300
1C00
ENDCHAR
STARTCHAR 049
ENCODING 49
SWIDTH 720 0
DWIDTH 10 0
BBX 8 14 1 0
BITMAP
18
F8
18
18
18
18
18
18
18
18
18
18
18
FF
ENDCHAR
STARTCHAR 050
ENCODING 50
SWIDTH 720 0
DWIDTH 10 0
BBX 9 14 0 0
BITMAP
1E00
6300
C180
C180
0180
0180
0300
0600
0C00
1800
3080
6080
FF80
FF80
ENDCHAR
STARTCHAR 051
ENCODING 51
SWIDTH 720 0
DWIDTH 10 0
BBX 9 14 0 0
BITMAP
3E00
6300
6180
0180
0180
0300
1E00
0300
0180
0180
0180
C180
C300
7E00
ENDCHAR
STARTCHAR 052
ENCODING 52
SWIDTH 720 0
DWIDTH 10 0
BBX 10 14 0 0
BITMAP
0300
0700
0B00
0B00
1300
1300
2300
2300
4300
4300
FFC0
0300
0300
0F80
ENDCHAR
STARTCHAR 053
ENCODING 53
SWIDTH 720 0
DWIDTH 10 0
BBX 9 14 0 0
BITMAP
7F80
7F00
4000
4000
4000
5E00
6300
4180
0180
0180
0180
C180
C300
7E00
ENDCHAR
STARTCHAR 054
ENCODING 54
SWIDTH 720 0
DWIDTH 10 0
BBX 9 14 0 0
BITMAP
0F00
3180
6180
6000
C000
CE00
DF00
E380
C180
C180
C180
C180
6300
3E00
ENDCHAR
STARTCHAR 055
ENCODING 55
SWIDTH 720 0
DWIDTH 10 0
BBX 9 14 0 0
BITMAP
FF80
FF80
8100
8300
0200
0600
0600
0C00
0C00
1800
1800
1800
1800
1800
ENDCHAR
STARTCHAR 056
ENCODING 56
SWIDTH 720 0
DWIDTH 10 0
BBX 9 14 0 0
BITMAP
3E00
6300
4100
4100
6100
7200
3E00
2F00
4380
C180
C180
C180
6300
3E00
ENDCHAR
STARTCHAR 057
ENCODING 57
SWIDTH 720 0
DWIDTH 10 0
BBX 9 14 0 0
BITMAP
3E00
6300
C180
C180
C180
C180
E380
7D80
3980
0180
0300
C300
C600
7800
ENDCHAR
STARTCHAR 058
ENCODING 58
SWIDTH 360 0
DWIDTH 5 0
BBX 2 9 1 0
BITMAP
C0
C0
00
00
00
00
00
C0
C0
ENDCHAR
STARTCHAR 059
ENCODING 59
SWIDTH 360 0
DWIDTH 5 0
BBX 3 12 0 -3
BITMAP
60
60
00
00
00
00
00
60
60
20
40
80
ENDCHAR
STARTCHAR 060
ENCODING 60
SWIDTH 720 0
DWIDTH 10 0
BBX 9 9 0 1
BITMAP
0080
0380
0E00
3800
E000
3800
0E00
0380
0080
ENDCHAR
STARTCHAR 061
ENCODING 61
SWIDTH 720 0
DWIDTH 10 0
BBX 9 4 0 4
BITMAP
FF80
0000
0000
FF80
ENDCHAR
STARTCHAR 062
ENCODING 62
SWIDTH 720 0
DWIDTH 10 0
BBX 9 9 0 1
BITMAP
8000
E000
3800
0E00
0380
0E00
3800
E000
8000
ENDCHAR
STARTCHAR 063
ENCODING 63
SWIDTH 576 0
DWIDTH 8 0
BBX 7 14 0 0
BITMAP
3C
CE
C6
06
06
04
08
08
10
10
00
00
30
30
ENDCHAR
STARTCHAR 064
ENCODING 64
SWIDTH 1008 0
DWIDTH 14 0
BBX 13 14 0 0
BITMAP
0780
1860
2010
46D0
4DC8
8CC8
98C8
9990
9990
9BA0
4CC0
4010
2060
1F80
ENDCHAR
STARTCHAR 065
ENCODING 65
SWIDTH 936 0
DWIDTH 13 0
BBX 13 14 0 0
BITMAP
0600
0600
0600
0B00
0B00
0B00
1180
1180
3FC0
20C0
20C0
4060
4060
F1F8
ENDCHAR
STARTCHAR 066
ENCODING 66
SWIDTH 936 0
DWIDTH 13 0
BBX 12 14 0 0
BITMAP
FF80
30C0
3060
3060
3060
30C0
3F80
3060
3030
3030
3030
3030
3060
FFC0
ENDCHAR
STARTCHAR 067
ENCODING 67
SWIDTH 936 0
DWIDTH 13 0
BBX 12 14 0 0
BITMAP
0F90
3870
6030
6010
C010
C000
C000
C000
C000
C000
6010
6010
3860
0FC0
ENDCHAR
STARTCHAR 068
ENCODING 68
SWIDTH 1080 0
DWIDTH 15 0
BBX 14 14 0 0
BITMAP
FFC0
3070
3018
3018
300C
300C
300C
300C
300C
300C
3018
3018
3070
FFC0
ENDCHAR
STARTCHAR 069
ENCODING 69
SWIDTH 864 0
DWIDTH 12 0
BBX 11 14 0 0
BITMAP
FFE0
3060
3020
3020
3120
3100
3F00
3100
3100
3020
3020
3020
3060
FFE0
ENDCHAR
STARTCHAR 070
ENCODING 70
SWIDTH 864 0
DWIDTH 12 0
BBX 11 14 0 0
BITMAP
FFE0
3060
3020
3020
3120
3100
3F00
3100
3100
3000
3000
3000
3000
FC00
ENDCHAR
STARTCHAR 071
ENCODING 71
SWIDTH 1080 0
DWIDTH 15 0
BBX 14 14 0 0
BITMAP
0FC8
3878
6018
6008
C008
C000
C000
C000
C07C
C018
6018
6018
3878
0FC8
ENDCHAR
STARTCHAR 072
ENCODING 72
SWIDTH 1152 0
DWIDTH 16 0
BBX 15 14 0 0
BITMAP
FC7E
3018
3018
3018
3018
3018
3FF8
3018
3018
3018
3018
3018
3018
FC7E
ENDCHAR
STARTCHAR 073
ENCODING 73
SWIDTH 504 0
DWIDTH 7 0
BBX 6 14 0 0
BITMAP
FC
30
30
30
30
30
30
30
30
30
30
30
30
FC
ENDCHAR
STARTCHAR 074
ENCODING 74
SWIDTH 720 0
DWIDTH 10 0
BBX 9 14 0 0
BITMAP
1F80
0600
0600
0600
0600
0600
0600
0600
0600
0600
C600
C600
8400
7800
ENDCHAR
STARTCHAR 075
ENCODING 75
SWIDTH 1080 0
DWIDTH 15 0
BBX 15 14 0 0
BITMAP
FCF8
3060
3040
3080
3100
3200
3600
3F00
3380
31C0
30E0
3070
3038
FCFE
ENDCHAR
STARTCHAR 076
ENCODING 76
SWIDTH 864 0
DWIDTH 12 0
BBX 11 14 0 0
BITMAP
FC00
3000
3000
3000
3000
3000
3000
3000
3000
3020
3020
3020
3060
FFE0
ENDCHAR
STARTCHAR 077
ENCODING 77
SWIDTH 1296 0
DWIDTH 18 0
BBX 17 14 0 0
BITMAP
F80F80
380E00
2C1600
2C1600
2C1600
262600
262600
262600
234600
234600
234600
218600
218600
F99F80
ENDCHAR
STARTCHAR 078
ENCODING 78
SWIDTH 1080 0
DWIDTH 15 0
BBX 14 14 0 0
BITMAP
F07C
3010
3810
3C10
2E10
2610
2310
2390
2190
20D0
20F0
2070
2030
F810
ENDCHAR
STARTCHAR 079
ENCODING 79
SWIDTH 1080 0
DWIDTH 15 0
BBX 14 14 0 0
BITMAP
0FC0
3870
6018
6018
C00C
C00C
C00C
C00C
C00C
C00C
6018
6018
3870
0FC0
ENDCHAR
STARTCHAR 080
ENCODING 80
SWIDTH 864 0
DWIDTH 12 0
BBX 11 14 0 0
BITMAP
FF80
30C0
3060
3060
3060
3060
30C0
3F00
3000
3000
3000
3000
3000
FC00
ENDCHAR
STARTCHAR 081
ENCODING 81
SWIDTH 1080 0
DWIDTH 15 0
BBX 15 18 0 -4
BITMAP
0FC0
3870
6018
6018
C00C
C00C
C00C
C00C
C00C
CF0C
7198
6098
38F0
0FE0
0060
0072
003E
001C
ENDCHAR
STARTCHAR 082
ENCODING 82
SWIDTH 1008 0
DWIDTH 14 0
BBX 14 14 0 0
BITMAP
FF80
30C0
3060
3060
3060
30C0
3F00
3180
30C0
30C0
30E0
3060
3074
F838
ENDCHAR
STARTCHAR 083
ENCODING 83
SWIDTH 792 0
DWIDTH 11 0
BBX 10 14 0 0
BITMAP
3E80
6180
C080
C080
C000
F000
7E00
1F80
03C0
80C0
80C0
C0C0
E180
BF00
ENDCHAR
STARTCHAR 084
ENCODING 84
SWIDTH 936 0
DWIDTH 13 0
BBX 12 14 0 0
BITMAP
FFF0
C630
8610
8610
8610
0600
0600
0600
0600
0600
0600
0600
0600
1F80
ENDCHAR
STARTCHAR 085
ENCODING 85
SWIDTH 1080 0
DWIDTH 15 0
BBX 14 14 0 0
BITMAP
FC7C
3010
3010
3010
3010
3010
3010
3010
3010
3010
3010
3010
1820
0FC0
ENDCHAR
STARTCHAR 086
ENCODING 86
SWIDTH 936 0
DWIDTH 13 0
BBX 13 14 0 0
BITMAP
F8F8
6020
6020
3040
3040
3040
1880
1880
1880
0D00
0D00
0D00
0600
0600
ENDCHAR
STARTCHAR 087
ENCODING 87
SWIDTH 1368 0
DWIDTH 19 0
BBX 19 14 0 0
BITMAP
FBF3E0
60C080
60C080
30E100
30E100
30E100
193200
193200
193200
0A1200
0E1C00
0E1C00
060C00
060C00
ENDCHAR
STARTCHAR 088
ENCODING 88
SWIDTH 1008 0
DWIDTH 14 0
BBX 13 14 1 0
BITMAP
F8F0
3040
38C0
1880
0D80
0F00
0600
0700
0F80
0980
10C0
30E0
2060
F9F8
ENDCHAR
STARTCHAR 089
ENCODING 89
SWIDTH 936 0
DWIDTH 13 0
BBX 13 14 0 0
BITMAP
F8F8
6020
3040
3040
1880
1880
0D00
0F00
0600
0600
0600
0600
0600
1F80
ENDCHAR
STARTCHAR 090
ENCODING 90
SWIDTH 792 0
DWIDTH 11 0
BBX 10 14 0 0
BITMAP
FFC0
C0C0
8180
8380
8300
0600
0E00
1C00
1800
3040
7040
6040
C0C0
FFC0
ENDCHAR
STARTCHAR 091
ENCODING 91
SWIDTH 432 0
DWIDTH 6 0
BBX 4 17 1 -3
BITMAP
F0
C0
C0
C0
C0
C0
C0
C0
C0
C0
C0
C0
C0
C0
C0
C0
F0
ENDCHAR
STARTCHAR 092
ENCODING 92
SWIDTH 720 0
DWIDTH 10 0
BBX 7 14 1 0
BITMAP
80
80
C0
40
60
20
30
10
18
08
0C
04
06
02
ENDCHAR
STARTCHAR 093
ENCODING 93
SWIDTH 432 0
DWIDTH 6 0
BBX 4 17 0 -3
BITMAP
F0
30
30
30
30
30
30
30
30
30
30
30
30
30
30
30
F0
ENDCHAR
STARTCHAR 094
ENCODING 94
SWIDTH 720 0
DWIDTH 10 0
BBX 9 9 0 5
BITMAP
0800
0800
1C00
1400
3600
2200
6300
4100
C180
ENDCHAR
STARTCHAR 095
ENCODING 95
SWIDTH 648 0
DWIDTH 9 0
BBX 9 1 0 -2
BITMAP
FF80
ENDCHAR
STARTCHAR 096
ENCODING 96
SWIDTH 432 0
DWIDTH 6 0
BBX 4 3 1 10
BITMAP
C0
60
10
ENDCHAR
STARTCHAR 097
ENCODING 97
SWIDTH 720 0
DWIDTH 10 0
BBX 9 9 0 0
BITMAP
1C00
6200
6300
0300
1F00
6300
C300
C700
7980
ENDCHAR
STARTCHAR 098
ENCODING 98
SWIDTH 720 0
DWIDTH 10 0
BBX 9 14 0 0
BITMAP
C000
C000
C000
C000
C000
DE00
E300
C180
C180
C180
C180
C180
E300
9E00
ENDCHAR
STARTCHAR 099
ENCODING 99
SWIDTH 648 0
DWIDTH 9 0
BBX 8 9 0 0
BITMAP
3C
63
C3
C0
C0
C0
C1
63
3E
ENDCHAR
STARTCHAR 100
ENCODING 100
SWIDTH 792 0
DWIDTH 11 0
BBX 10 14 0 0
BITMAP
0380
0180
0180
0180
0180
3D80
6380
C180
C180
C180
C180
C180
6380
3DC0
ENDCHAR
STARTCHAR 101
ENCODING 101
SWIDTH 648 0
DWIDTH 9 0
BBX 8 9 0 0
BITMAP
3C
66
C3
C3
FF
C0
C1
63
3E
ENDCHAR
STARTCHAR 102
ENCODING 102
SWIDTH 576 0
DWIDTH 8 0
BBX 8 14 0 0
BITMAP
0E
1B
33
30
30
FC
30
30
30
30
30
30
30
78
ENDCHAR
STARTCHAR 103
ENCODING 103
SWIDTH 792 0
DWIDTH 11 0
BBX 10 14 0 -4
BITMAP
00C0
1FC0
3300
6180
6180
3300
3E00
4000
7F00
3F80
41C0
80C0
C180
7F00
ENDCHAR
STARTCHAR 104
ENCODING 104
SWIDTH 792 0
DWIDTH 11 0
BBX 10 14 0 0
BITMAP
E000
6000
6000
6000
6000
6F00
7380
6180
6180
6180
6180
6180
6180
F3C0
ENDCHAR
STARTCHAR 105
ENCODING 105
SWIDTH 360 0
DWIDTH 5 0
BBX 4 13 0 0
BITMAP
60
60
00
00
E0
60
60
60
60
60
60
60
F0
ENDCHAR
STARTCHAR 106
ENCODING 106
SWIDTH 360 0
DWIDTH 5 0
BBX 3 17 0 -4
BITMAP
60
60
00
00
E0
60
60
60
60
60
60
60
60
60
60
40
80
ENDCHAR
STARTCHAR 107
ENCODING 107
SWIDTH 720 0
DWIDTH 10 0
BBX 10 14 0 0
BITMAP
E000
6000
6000
6000
6000
6780
6200
6400
6800
7800
6C00
6600
6300
F7C0
ENDCHAR
STARTCHAR 108
ENCODING 108
SWIDTH 360 0
DWIDTH 5 0
BBX 4 14 0 0
BITMAP
E0
60
60
60
60
60
60
60
60
60
60
60
60
F0
ENDCHAR
STARTCHAR 109
ENCODING 109
SWIDTH 1224 0
DWIDTH 17 0
BBX 16 9 0 0
BITMAP
EF3C
73CE
6186
6186
6186
6186
6186
6186
F3CF
ENDCHAR
STARTCHAR 110
ENCODING 110
SWIDTH 792 0
DWIDTH 11 0
BBX 10 9 0 0
BITMAP
EF00
7380
6180
6180
6180
6180
6180
6180
F3C0
ENDCHAR
STARTCHAR 111
ENCODING 111
SWIDTH 720 0
DWIDTH 10 0
BBX 9 9 0 0
BITMAP
3E00
6300
C180
C180
C180
C180
C180
6300
3E00
ENDCHAR
STARTCHAR 112
ENCODING 112
SWIDTH 792 0
DWIDTH 11 0
BBX 10 13 0 -4
BITMAP
EF00
7180
60C0
60C0
60C0
60C0
60C0
7180
6F00
6000
6000
6000
F000
ENDCHAR
STARTCHAR 113
ENCODING 113
SWIDTH 720 0
DWIDTH 10 0
BBX 10 13 0 -4
BITMAP
3C80
6380
C180
C180
C180
C180
C180
6380
3D80
0180
0180
0180
03C0
ENDCHAR
STARTCHAR 114
ENCODING 114
SWIDTH 576 0
DWIDTH 8 0
BBX 7 9 0 0
BITMAP
E6
6E
72
60
60
60
60
60
F0
ENDCHAR
STARTCHAR 115
ENCODING 115
SWIDTH 576 0
DWIDTH 8 0
BBX 7 9 0 0
BITMAP
7A
C6
82
E0
7C
0E
82
C6
BC
ENDCHAR
STARTCHAR 116
ENCODING 116
SWIDTH 432 0
DWIDTH 6 0
BBX 6 12 0 0
BITMAP
60
60
60
F8
60
60
60
60
60
60
64
38
ENDCHAR
STARTCHAR 117
ENCODING 117
SWIDTH 792 0
DWIDTH 11 0
BBX 10 9 0 0
BITMAP
E380
6180
6180
6180
6180
6180
6180
7380
3DC0
ENDCHAR
STARTCHAR 118
ENCODING 118
SWIDTH 792 0
DWIDTH 11 0
BBX 10 9 0 0
BITMAP
F1C0
6080
6080
3100
3100
1A00
1E00
0C00
0C00
ENDCHAR
STARTCHAR 119
ENCODING 119
SWIDTH 1152 0
DWIDTH 16 0
BBX 15 9 0 0
BITMAP
F7DE
6184
6184
32C8
32C8
34D0
1C70
1C70
0820
ENDCHAR
STARTCHAR 120
ENCODING 120
SWIDTH 720 0
DWIDTH 10 0
BBX 9 9 0 0
BITMAP
F380
6100
3200
1C00
0800
1C00
2600
4300
E780
ENDCHAR
STARTCHAR 121
ENCODING 121
SWIDTH 792 0
DWIDTH 11 0
BBX 10 13 0 -4
BITMAP
F1C0
6080
3100
3100
1A00
1A00
0C00
0C00
0800
0800
1000
D000
E000
ENDCHAR
STARTCHAR 122
ENCODING 122
SWIDTH 576 0
DWIDTH 8 0
BBX 7 9 0 0
BITMAP
FE
86
8C
18
18
30
62
C6
FE
ENDCHAR
STARTCHAR 123
ENCODING 123
SWIDTH 432 0
DWIDTH 6 0
BBX 5 17 0 -3
BITMAP
18
20
60
60
60
60
60
40
80
40
60
60
60
60
60
20
18
ENDCHAR
STARTCHAR 124
ENCODING 124
SWIDTH 792 0
DWIDTH 11 0
BBX 2 14 4 0
BITMAP
C0
C0
C0
C0
C0
C0
C0
C0
C0
C0
C0
C0
C0
C0
ENDCHAR
STARTCHAR 125
ENCODING 125
SWIDTH 432 0
DWIDTH 6 0
BBX 5 17 0 -3
BITMAP
C0
20
30
30
30
30
30
10
08
10
30
30
30
30
30
20
C0
ENDCHAR
STARTCHAR 126
ENCODING 126
SWIDTH 792 0
DWIDTH 11 0
BBX 10 3 0 4
BITMAP
38C0
6D80
C700
ENDCHAR
STARTCHAR 127
ENCODING 127
SWIDTH 648 0
DWIDTH 9 0
BBX 0 0 0 0
BITMAP
ENDCHAR
STARTCHAR 128
ENCODING 128
SWIDTH 648 0
DWIDTH 9 0
BBX 0 0 0 0
BITMAP
ENDCHAR
STARTCHAR 129
ENCODING 129
SWIDTH 72 0
DWIDTH 1 0
BBX 0 0 0 0
BITMAP
ENDCHAR
STARTCHAR 130
ENCODING 130
SWIDTH 720 0
DWIDTH 10 0
BBX 0 0 0 0
BITMAP
ENDCHAR
STARTCHAR 131
ENCODING 131
SWIDTH 576 0
DWIDTH 8 0
BBX 0 0 0 0
BITMAP
ENDCHAR
STARTCHAR 132
ENCODING 132
SWIDTH 792 0
DWIDTH 11 0
BBX 0 0 0 0
BITMAP
ENDCHAR
STARTCHAR 133
ENCODING 133
SWIDTH 720 0
DWIDTH 10 0
BBX 0 0 0 0
BITMAP
ENDCHAR
STARTCHAR 134
ENCODING 134
SWIDTH 936 0
DWIDTH 13 0
BBX 13 15 0 0
BITMAP
2000
3600
1600
0600
0B00
0B00
0B00
1180
1180
3FC0
20C0
20C0
4060
4060
F1F8
ENDCHAR
STARTCHAR 135
ENCODING 135
SWIDTH 864 0
DWIDTH 12 0
BBX 0 0 0 0
BITMAP
ENDCHAR
STARTCHAR 136
ENCODING 136
SWIDTH 1008 0
DWIDTH 14 0
BBX 13 16 0 0
BITMAP
8000
4000
5FF8
0C18
0C08
0C08
0C48
0C40
0FC0
0C40
0C40
0C08
0C08
0C08
0C18
1FF8
ENDCHAR
STARTCHAR 137
ENCODING 137
SWIDTH 1224 0
DWIDTH 17 0
BBX 17 14 0 0
BITMAP
BF1F80
4C0600
4C0600
0C0600
0C0600
0C0600
0FFE00
0C0600
0C0600
0C0600
0C0600
0C0600
0C0600
3F1F80
ENDCHAR
STARTCHAR 138
ENCODING 138
SWIDTH 576 0
DWIDTH 8 0
BBX 8 15 0 0
BITMAP
80
BF
4C
4C
0C
0C
0C
0C
0C
0C
0C
0C
0C
0C
3F
ENDCHAR
STARTCHAR 139
ENCODING 139
SWIDTH 1080 0
DWIDTH 15 0
BBX 0 0 0 0
BITMAP
ENDCHAR
STARTCHAR 140
ENCODING 140
SWIDTH 1080 0
DWIDTH 15 0
BBX 14 16 0 0
BITMAP
8000
4000
0FC0
3870
6018
6018
C00C
C00C
C00C
C00C
C00C
C00C
6018
6018
3870
0FC0
ENDCHAR
STARTCHAR 141
ENCODING 141
SWIDTH 936 0
DWIDTH 13 0
BBX 0 0 0 0
BITMAP
ENDCHAR
STARTCHAR 142
ENCODING 142
SWIDTH 1080 0
DWIDTH 15 0
BBX 15 14 0 0
BITMAP
BE3E
5808
4C10
0C10
0620
0620
0340
03C0
0180
0180
0180
0180
0180
07E0
ENDCHAR
STARTCHAR 143
ENCODING 143
SWIDTH 864 0
DWIDTH 12 0
BBX 11 16 0 0
BITMAP
8000
C000
4F00
3FC0
70E0
6060
6060
6060
6060
6060
6060
30C0
1980
4920
79E0
79E0
ENDCHAR
STARTCHAR 144
ENCODING 144
SWIDTH 504 0
DWIDTH 7 0
BBX 6 16 0 0
BITMAP
10
20
00
D8
00
00
00
70
30
30
30
30
30
30
1C
0C
ENDCHAR
STARTCHAR 145
ENCODING 145
SWIDTH 936 0
DWIDTH 13 0
BBX 13 14 0 0
BITMAP
0600
0600
0600
0B00
0B00
0B00
1180
1180
3FC0
20C0
20C0
4060
4060
F1F8
ENDCHAR
STARTCHAR 146
ENCODING 146
SWIDTH 936 0
DWIDTH 13 0
BBX 12 14 0 0
BITMAP
FF80
30C0
3060
3060
3060
30C0
3F80
3060
3030
3030
3030
3030
3060
FFC0
ENDCHAR
STARTCHAR 147
ENCODING 147
SWIDTH 936 0
DWIDTH 13 0
BBX 11 14 1 0
BITMAP
FFE0
3060
3020
3020
3000
3000
3000
3000
3000
3000
3000
3000
3000
FC00
ENDCHAR
STARTCHAR 148
ENCODING 148
SWIDTH 936 0
DWIDTH 13 0
BBX 13 14 0 0
BITMAP
0600
0600
0600
0B00
0B00
0B00
1180
1180
31C0
20C0
20C0
4060
4060
FFF8
ENDCHAR
STARTCHAR 149
ENCODING 149
SWIDTH 864 0
DWIDTH 12 0
BBX 11 14 0 0
BITMAP
FFE0
3060
3020
3020
3120
3100
3F00
3100
3100
3020
3020
3020
3060
FFE0
ENDCHAR
STARTCHAR 150
ENCODING 150
SWIDTH 792 0
DWIDTH 11 0
BBX 10 14 0 0
BITMAP
FFC0
C0C0
8180
8380
8300
0600
0E00
1C00
1800
3040
7040
6040
C0C0
FFC0
ENDCHAR
STARTCHAR 151
ENCODING 151
SWIDTH 1152 0
DWIDTH 16 0
BBX 15 14 0 0
BITMAP
FC7E
3018
3018
3018
3018
3018
3FF8
3018
3018
3018
3018
3018
3018
FC7E
ENDCHAR
STARTCHAR 152
ENCODING 152
SWIDTH 1008 0
DWIDTH 14 0
BBX 11 14 2 0
BITMAP
3F80
7FC0
C060
C060
C060
C060
FFE0
FFE0
C060
C060
C060
C060
7FC0
3F80
ENDCHAR
STARTCHAR 153
ENCODING 153
SWIDTH 504 0
DWIDTH 7 0
BBX 6 14 0 0
BITMAP
FC
30
30
30
30
30
30
30
30
30
30
30
30
FC
ENDCHAR
STARTCHAR 154
ENCODING 154
SWIDTH 1080 0
DWIDTH 15 0
BBX 15 14 0 0
BITMAP
FCF8
3060
3040
3080
3100
3200
3600
3F00
3380
31C0
30E0
3070
3038
FCFE
ENDCHAR
STARTCHAR 155
ENCODING 155
SWIDTH 936 0
DWIDTH 13 0
BBX 12 14 0 0
BITMAP
0600
0600
0600
0B00
0B00
0B00
1180
1180
31C0
20C0
20C0
4060
4060
C070
ENDCHAR
STARTCHAR 156
ENCODING 156
SWIDTH 1296 0
DWIDTH 18 0
BBX 17 14 0 0
BITMAP
F80F80
380E00
2C1600
2C1600
2C1600
262600
262600
262600
234600
234600
234600
218600
218600
F99F80
ENDCHAR
STARTCHAR 157
ENCODING 157
SWIDTH 1080 0
DWIDTH 15 0
BBX 14 14 0 0
BITMAP
F07C
3010
3810
3C10
2E10
2610
2310
2390
2190
20D0
20F0
2070
2030
F810
ENDCHAR
STARTCHAR 158
ENCODING 158
SWIDTH 864 0
DWIDTH 12 0
BBX 9 14 1 0
BITMAP
FF80
FF80
C180
8080
0000
0000
3E00
3E00
0000
0000
8080
C180
FF80
FF80
ENDCHAR
STARTCHAR 159
ENCODING 159
SWIDTH 1080 0
DWIDTH 15 0
BBX 14 14 0 0
BITMAP
0FC0
3870
6018
6018
C00C
C00C
C00C
C00C
C00C
C00C
6018
6018
3870
0FC0
ENDCHAR
STARTCHAR 160
ENCODING 160
SWIDTH 1008 0
DWIDTH 14 0
BBX 13 14 0 0
BITMAP
FFF8
FFF8
3060
3060
3060
3060
3060
3060
3060
3060
3060
3060
3060
F8F8
ENDCHAR
STARTCHAR 161
ENCODING 161
SWIDTH 864 0
DWIDTH 12 0
BBX 11 14 0 0
BITMAP
FF80
30C0
3060
3060
3060
3060
30C0
3F00
3000
3000
3000
3000
3000
FC00
ENDCHAR
STARTCHAR 162
ENCODING 162
SWIDTH 720 0
DWIDTH 10 0
BBX 0 0 0 0
BITMAP
ENDCHAR
STARTCHAR 163
ENCODING 163
SWIDTH 864 0
DWIDTH 12 0
BBX 9 14 1 0
BITMAP
FF80
6180
6080
3080
3800
1800
0C00
1800
1800
3000
3080
6080
6180
FF80
ENDCHAR
STARTCHAR 164
ENCODING 164
SWIDTH 936 0
DWIDTH 13 0
BBX 12 14 0 0
BITMAP
FFF0
C630
8610
8610
8610
0600
0600
0600
0600
0600
0600
0600
0600
1F80
ENDCHAR
STARTCHAR 165
ENCODING 165
SWIDTH 936 0
DWIDTH 13 0
BBX 13 14 0 0
BITMAP
F8F8
6020
3040
3040
1880
1880
0D00
0F00
0600
0600
0600
0600
0600
1F80
ENDCHAR
STARTCHAR 166
ENCODING 166
SWIDTH 936 0
DWIDTH 13 0
BBX 10 14 2 0
BITMAP
1E00
0C00
7F80
EDC0
CCC0
CCC0
CCC0
CCC0
CCC0
CCC0
EDC0
7F80
0C00
1E00
ENDCHAR
STARTCHAR 167
ENCODING 167
SWIDTH 1008 0
DWIDTH 14 0
BBX 13 14 1 0
BITMAP
F8F0
3040
38C0
1880
0D80
0F00
0600
0700
0F80
0980
10C0
30E0
2060
F9F8
ENDCHAR
STARTCHAR 168
ENCODING 168
SWIDTH 864 0
DWIDTH 12 0
BBX 12 13 0 0
BITMAP
E670
6660
6660
6660
6660
6660
6660
6660
3FC0
1F80
0600
0600
0F00
ENDCHAR
STARTCHAR 169
ENCODING 169
SWIDTH 864 0
DWIDTH 12 0
BBX 10 14 1 0
BITMAP
1E00
7F80
E1C0
C0C0
C0C0
C0C0
C0C0
C0C0
C0C0
6180
3300
9240
F3C0
F3C0
ENDCHAR
STARTCHAR 170
ENCODING 170
SWIDTH 504 0
DWIDTH 7 0
BBX 6 16 0 0
BITMAP
CC
00
FC
30
30
30
30
30
30
30
30
30
30
30
30
FC
ENDCHAR
STARTCHAR 171
ENCODING 171
SWIDTH 936 0
DWIDTH 13 0
BBX 13 16 0 0
BITMAP
6060
0000
F8F8
6020
3040
3040
1880
1880
0D00
0F00
0600
0600
0600
0600
0600
1F80
ENDCHAR
STARTCHAR 172
ENCODING 172
SWIDTH 720 0
DWIDTH 10 0
BBX 8 14 1 0
BITMAP
04
0C
08
00
00
7B
FF
C7
C6
C6
C6
C6
FF
7B
ENDCHAR
STARTCHAR 173
ENCODING 173
SWIDTH 576 0
DWIDTH 8 0
BBX 6 13 1 0
BITMAP
04
08
10
00
78
FC
C4
C0
70
C0
C4
FC
78
ENDCHAR
STARTCHAR 174
ENCODING 174
SWIDTH 720 0
DWIDTH 10 0
BBX 8 16 1 -1
BITMAP
04
08
10
00
00
EE
7F
63
63
63
63
63
63
F3
03
03
ENDCHAR
STARTCHAR 175
ENCODING 175
SWIDTH 504 0
DWIDTH 7 0
BBX 5 14 1 0
BITMAP
20
40
00
00
00
E0
60
60
60
60
60
60
38
18
ENDCHAR
STARTCHAR 176
ENCODING 176
SWIDTH 648 0
DWIDTH 9 0
BBX 9 16 0 0
BITMAP
0200
0400
0800
6300
0000
0000
0000
E380
E380
6300
6300
6300
6300
6300
3E00
1C00
ENDCHAR
STARTCHAR 177
ENCODING 177
SWIDTH 720 0
DWIDTH 10 0
BBX 8 9 1 0
BITMAP
7B
FF
C7
C6
C6
C6
C6
FF
7B
ENDCHAR
STARTCHAR 178
ENCODING 178
SWIDTH 648 0
DWIDTH 9 0
BBX 8 14 0 -1
BITMAP
3C
76
63
63
63
7E
7C
66
63
63
63
66
7E
F0
ENDCHAR
STARTCHAR 179
ENCODING 179
SWIDTH 648 0
DWIDTH 9 0
BBX 9 12 0 -3
BITMAP
E380
6300
6300
6300
6300
3600
3E00
1C00
0C00
0C00
0C00
0C00
ENDCHAR
STARTCHAR 180
ENCODING 180
SWIDTH 648 0
DWIDTH 9 0
BBX 7 15 1 0
BITMAP
38
7C
C6
C6
C0
60
30
78
CC
C6
C6
C6
C6
7C
38
ENDCHAR
STARTCHAR 181
ENCODING 181
SWIDTH 576 0
DWIDTH 8 0
BBX 6 9 1 0
BITMAP
78
FC
C4
C0
70
C0
C4
FC
78
ENDCHAR
STARTCHAR 182
ENCODING 182
SWIDTH 720 0
DWIDTH 10 0
BBX 6 14 2 -1
BITMAP
FC
38
18
30
60
C0
C0
C0
C0
78
0C
0C
3C
30
ENDCHAR
STARTCHAR 183
ENCODING 183
SWIDTH 720 0
DWIDTH 10 0
BBX 8 11 1 -2
BITMAP
EE
7F
63
63
63
63
63
63
F3
03
03
ENDCHAR
STARTCHAR 184
ENCODING 184
SWIDTH 648 0
DWIDTH 9 0
BBX 7 13 1 0
BITMAP
38
7C
C6
C6
C6
C6
FE
C6
C6
C6
C6
7C
38
ENDCHAR
STARTCHAR 185
ENCODING 185
SWIDTH 504 0
DWIDTH 7 0
BBX 5 9 1 0
BITMAP
E0
60
60
60
60
60
60
38
18
ENDCHAR
STARTCHAR 186
ENCODING 186
SWIDTH 720 0
DWIDTH 10 0
BBX 8 9 1 0
BITMAP
EF
E6
6C
7C
78
6C
66
62
F7
ENDCHAR
STARTCHAR 187
ENCODING 187
SWIDTH 720 0
DWIDTH 10 0
BBX 8 14 1 0
BITMAP
78
7C
06
06
06
06
3E
7E
66
66
66
66
66
E7
ENDCHAR
STARTCHAR 188
ENCODING 188
SWIDTH 720 0
DWIDTH 10 0
BBX 10 11 0 -2
BITMAP
E700
6300
6300
6300
6300
6300
6300
7DC0
6000
6000
6000
ENDCHAR
STARTCHAR 189
ENCODING 189
SWIDTH 792 0
DWIDTH 11 0
BBX 9 9 1 0
BITMAP
C180
C180
6300
6300
3600
3600
1C00
1C00
0800
ENDCHAR
STARTCHAR 190
ENCODING 190
SWIDTH 648 0
DWIDTH 9 0
BBX 7 14 1 -1
BITMAP
FE
FE
60
C0
C0
78
78
C0
C0
78
7C
0C
7C
70
ENDCHAR
STARTCHAR 191
ENCODING 191
SWIDTH 720 0
DWIDTH 10 0
BBX 9 9 0 0
BITMAP
3E00
6300
C180
C180
C180
C180
C180
6300
3E00
ENDCHAR
STARTCHAR 192
ENCODING 192
SWIDTH 648 0
DWIDTH 9 0
BBX 8 9 1 0
BITMAP
FF
FF
66
66
66
66
66
66
E7
ENDCHAR
STARTCHAR 193
ENCODING 193
SWIDTH 648 0
DWIDTH 9 0
BBX 8 12 0 -3
BITMAP
3E
7F
63
63
63
63
63
7F
7E
60
60
F0
ENDCHAR
STARTCHAR 194
ENCODING 194
SWIDTH 720 0
DWIDTH 10 0
BBX 8 11 1 -2
BITMAP
3C
7E
C3
C3
C0
C0
FC
7E
03
1F
0E
ENDCHAR
STARTCHAR 195
ENCODING 195
SWIDTH 648 0
DWIDTH 9 0
BBX 9 9 0 0
BITMAP
7F80
FF80
C600
C600
C600
C600
C600
7E00
3C00
ENDCHAR
STARTCHAR 196
ENCODING 196
SWIDTH 576 0
DWIDTH 8 0
BBX 7 9 0 0
BITMAP
FE
FE
30
30
30
30
30
3C
1C
ENDCHAR
STARTCHAR 197
ENCODING 197
SWIDTH 648 0
DWIDTH 9 0
BBX 9 9 0 0
BITMAP
E380
E380
6300
6300
6300
6300
6300
3E00
1C00
ENDCHAR
STARTCHAR 198
ENCODING 198
SWIDTH 792 0
DWIDTH 11 0
BBX 9 11 1 -2
BITMAP
3E00
7F00
C980
C980
C980
C980
C980
7F00
3E00
0800
1C00
ENDCHAR
STARTCHAR 199
ENCODING 199
SWIDTH 720 0
DWIDTH 10 0
BBX 8 9 1 0
BITMAP
C3
E7
66
3C
18
3C
66
E7
C3
ENDCHAR
STARTCHAR 200
ENCODING 200
SWIDTH 792 0
DWIDTH 11 0
BBX 11 11 0 -2
BITMAP
E0E0
64C0
64C0
64C0
64C0
64C0
64C0
3F80
1F00
0400
0E00
ENDCHAR
STARTCHAR 201
ENCODING 201
SWIDTH 792 0
DWIDTH 11 0
BBX 9 9 1 0
BITMAP
6300
C180
C180
C180
C980
C980
C980
7700
3600
ENDCHAR
STARTCHAR 202
ENCODING 202
SWIDTH 504 0
DWIDTH 7 0
BBX 5 13 1 0
BITMAP
A0
00
00
00
E0
60
60
60
60
60
60
38
18
ENDCHAR
STARTCHAR 203
ENCODING 203
SWIDTH 648 0
DWIDTH 9 0
BBX 9 13 0 0
BITMAP
6300
0000
0000
0000
E380
E380
6300
6300
6300
6300
6300
3E00
1C00
ENDCHAR
STARTCHAR 204
ENCODING 204
SWIDTH 720 0
DWIDTH 10 0
BBX 9 14 0 0
BITMAP
0400
0C00
0800
0000
0000
3E00
6300
C180
C180
C180
C180
C180
6300
3E00
ENDCHAR
STARTCHAR 205
ENCODING 205
SWIDTH 648 0
DWIDTH 9 0
BBX 9 15 0 0
BITMAP
0400
0C00
0800
0000
0000
E380
E380
6300
6300
6300
6300
6300
6300
3E00
1C00
ENDCHAR
STARTCHAR 206
ENCODING 206
SWIDTH 792 0
DWIDTH 11 0
BBX 9 14 1 0
BITMAP
0600
0800
0000
0000
0000
6300
C180
C180
C180
C980
C980
C980
7700
3600
ENDCHAR
STARTCHAR 207
ENCODING 207
SWIDTH 504 0
DWIDTH 7 0
BBX 6 16 0 0
BITMAP
CC
00
FC
30
30
30
30
30
30
30
30
30
30
30
30
FC
ENDCHAR
STARTCHAR 208
ENCODING 208
SWIDTH 1080 0
DWIDTH 15 0
BBX 14 14 0 0
BITMAP
FFC0
3070
3018
3018
300C
300C
FE0C
300C
300C
300C
3018
3018
3070
FFC0
ENDCHAR
STARTCHAR 209
ENCODING 209
SWIDTH 1080 0
DWIDTH 15 0
BBX 14 16 0 0
BITMAP
0B80
0000
F07C
3010
3810
3C10
2E10
2610
2310
2390
2190
20D0
20F0
2070
2030
F810
ENDCHAR
STARTCHAR 210
ENCODING 210
SWIDTH 1080 0
DWIDTH 15 0
BBX 14 16 0 0
BITMAP
0100
0000
0FC0
3870
6018
6018
C00C
C00C
C00C
C00C
C00C
C00C
6018
6018
3870
0FC0
ENDCHAR
STARTCHAR 211
ENCODING 211
SWIDTH 1080 0
DWIDTH 15 0
BBX 14 16 0 0
BITMAP
0200
0000
0FC0
3870
6018
6018
C00C
C00C
C00C
C00C
C00C
C00C
6018
6018
3870
0FC0
ENDCHAR
STARTCHAR 212
ENCODING 212
SWIDTH 1080 0
DWIDTH 15 0
BBX 14 16 0 0
BITMAP
0840
0000
0FC0
3870
6018
6018
C00C
C00C
C00C
C00C
C00C
C00C
6018
6018
3870
0FC0
ENDCHAR
STARTCHAR 213
ENCODING 213
SWIDTH 1080 0
DWIDTH 15 0
BBX 14 16 0 0
BITMAP
0B80
0000
0FC0
3870
6018
6018
C00C
C00C
C00C
C00C
C00C
C00C
6018
6018
3870
0FC0
ENDCHAR
STARTCHAR 214
ENCODING 214
SWIDTH 1080 0
DWIDTH 15 0
BBX 14 16 0 0
BITMAP
0CC0
0000
0FC0
3870
6018
6018
C00C
C00C
C00C
C00C
C00C
C00C
6018
6018
3870
0FC0
ENDCHAR
STARTCHAR 215
ENCODING 215
SWIDTH 720 0
DWIDTH 10 0
BBX 10 9 0 1
BITMAP
C0C0
6180
3300
1E00
0C00
1E00
3300
6180
C0C0
ENDCHAR
STARTCHAR 216
ENCODING 216
SWIDTH 1080 0
DWIDTH 15 0
BBX 14 14 0 0
BITMAP
0FC8
3870
6038
6058
C08C
C10C
C20C
C40C
C80C
D00C
6018
6018
B870
0FC0
ENDCHAR
STARTCHAR 217
ENCODING 217
SWIDTH 1080 0
DWIDTH 15 0
BBX 14 16 0 0
BITMAP
0080
0000
FC7C
3010
3010
3010
3010
3010
3010
3010
3010
3010
3010
3010
1820
0FC0
ENDCHAR
STARTCHAR 218
ENCODING 218
SWIDTH 1080 0
DWIDTH 15 0
BBX 14 16 0 0
BITMAP
0200
0000
FC7C
3010
3010
3010
3010
3010
3010
3010
3010
3010
3010
3010
1820
0FC0
ENDCHAR
STARTCHAR 219
ENCODING 219
SWIDTH 1080 0
DWIDTH 15 0
BBX 14 16 0 0
BITMAP
0840
0000
FC7C
3010
3010
3010
3010
3010
3010
3010
3010
3010
3010
3010
1820
0FC0
ENDCHAR
STARTCHAR 220
ENCODING 220
SWIDTH 1080 0
DWIDTH 15 0
BBX 14 16 0 0
BITMAP
0C60
0000
FC7C
3010
3010
3010
3010
3010
3010
3010
3010
3010
3010
3010
1820
0FC0
ENDCHAR
STARTCHAR 221
ENCODING 221
SWIDTH 936 0
DWIDTH 13 0
BBX 13 16 0 0
BITMAP
0200
0000
F8F8
6020
3040
3040
1880
1880
0D00
0F00
0600
0600
0600
0600
0600
1F80
ENDCHAR
STARTCHAR 222
ENCODING 222
SWIDTH 864 0
DWIDTH 12 0
BBX 11 14 0 0
BITMAP
FC00
3000
3000
3F80
30C0
3060
3060
3060
3060
30C0
3F00
3000
3000
FC00
ENDCHAR
STARTCHAR 223
ENCODING 223
SWIDTH 720 0
DWIDTH 10 0
BBX 9 14 0 0
BITMAP
1E00
2300
6100
6100
6300
6E00
6300
6180
6180
6180
6180
6D80
6D00
E600
ENDCHAR
STARTCHAR 224
ENCODING 224
SWIDTH 720 0
DWIDTH 10 0
BBX 9 13 0 0
BITMAP
3000
1800
0400
0000
1C00
6200
6300
0300
1F00
6300
C300
C700
7980
ENDCHAR
STARTCHAR 225
ENCODING 225
SWIDTH 720 0
DWIDTH 10 0
BBX 9 13 0 0
BITMAP
0600
0C00
1000
0000
1C00
6200
6300
0300
1F00
6300
C300
C700
7980
ENDCHAR
STARTCHAR 226
ENCODING 226
SWIDTH 720 0
DWIDTH 10 0
BBX 9 13 0 0
BITMAP
1800
3C00
4200
0000
1C00
6200
6300
0300
1F00
6300
C300
C700
7980
ENDCHAR
STARTCHAR 227
ENCODING 227
SWIDTH 720 0
DWIDTH 10 0
BBX 9 12 0 0
BITMAP
3A00
5C00
0000
1C00
6200
6300
0300
1F00
6300
C300
C700
7980
ENDCHAR
STARTCHAR 228
ENCODING 228
SWIDTH 720 0
DWIDTH 10 0
BBX 9 12 0 0
BITMAP
6600
6600
0000
1C00
6200
6300
0300
1F00
6300
C300
C700
7980
ENDCHAR
STARTCHAR 229
ENCODING 229
SWIDTH 720 0
DWIDTH 10 0
BBX 9 14 0 0
BITMAP
1800
2400
2400
1800
0000
1C00
6200
6300
0300
1F00
6300
C300
C700
7980
ENDCHAR
STARTCHAR 230
ENCODING 230
SWIDTH 720 0
DWIDTH 10 0
BBX 0 0 0 0
BITMAP
ENDCHAR
STARTCHAR 231
ENCODING 231
SWIDTH 720 0
DWIDTH 10 0
BBX 0 0 0 0
BITMAP
ENDCHAR
STARTCHAR 232
ENCODING 232
SWIDTH 576 0
DWIDTH 8 0
BBX 0 0 0 0
BITMAP
ENDCHAR
STARTCHAR 233
ENCODING 233
SWIDTH 648 0
DWIDTH 9 0
BBX 8 13 0 0
BITMAP
06
0C
10
00
3C
66
C3
C3
FF
C0
C1
63
3E
ENDCHAR
STARTCHAR 234
ENCODING 234
SWIDTH 648 0
DWIDTH 9 0
BBX 8 13 0 0
BITMAP
18
3C
42
00
3C
66
C3
C3
FF
C0
C1
63
3E
ENDCHAR
STARTCHAR 235
ENCODING 235
SWIDTH 648 0
DWIDTH 9 0
BBX 8 12 0 0
BITMAP
66
66
00
3C
66
C3
C3
FF
C0
C1
63
3E
ENDCHAR
STARTCHAR 236
ENCODING 236
SWIDTH 360 0
DWIDTH 5 0
BBX 4 13 0 0
BITMAP
80
C0
20
00
E0
60
60
60
60
60
60
60
F0
ENDCHAR
STARTCHAR 237
ENCODING 237
SWIDTH 360 0
DWIDTH 5 0
BBX 5 13 0 0
BITMAP
18
30
40
00
E0
60
60
60
60
60
60
60
F0
ENDCHAR
STARTCHAR 238
ENCODING 238
SWIDTH 360 0
DWIDTH 5 0
BBX 5 13 0 0
BITMAP
60
F0
08
00
E0
60
60
60
60
60
60
60
F0
ENDCHAR
STARTCHAR 239
ENCODING 239
SWIDTH 360 0
DWIDTH 5 0
BBX 5 12 0 0
BITMAP
98
98
00
E0
60
60
60
60
60
60
60
F0
ENDCHAR
STARTCHAR 240
ENCODING 240
SWIDTH 720 0
DWIDTH 10 0
BBX 9 14 0 0
BITMAP
C000
3600
3800
CC00
0600
3F00
6300
C180
C180
C180
C180
C180
6300
3E00
ENDCHAR
STARTCHAR 241
ENCODING 241
SWIDTH 792 0
DWIDTH 11 0
BBX 10 12 0 0
BITMAP
3C80
4F00
0000
EF00
7380
6180
6180
6180
6180
6180
6180
F3C0
ENDCHAR
STARTCHAR 242
ENCODING 242
SWIDTH 720 0
DWIDTH 10 0
BBX 9 13 0 0
BITMAP
6000
3000
0800
0000
3E00
6300
C180
C180
C180
C180
C180
6300
3E00
ENDCHAR
STARTCHAR 243
ENCODING 243
SWIDTH 720 0
DWIDTH 10 0
BBX 9 13 0 0
BITMAP
0300
0600
0800
0000
3E00
6300
C180
C180
C180
C180
C180
6300
3E00
ENDCHAR
STARTCHAR 244
ENCODING 244
SWIDTH 720 0
DWIDTH 10 0
BBX 9 13 0 0
BITMAP
1800
3C00
4200
0000
3E00
6300
C180
C180
C180
C180
C180
6300
3E00
ENDCHAR
STARTCHAR 245
ENCODING 245
SWIDTH 720 0
DWIDTH 10 0
BBX 9 12 0 0
BITMAP
3A00
5C00
0000
3E00
6300
C180
C180
C180
C180
C180
6300
3E00
ENDCHAR
STARTCHAR 246
ENCODING 246
SWIDTH 720 0
DWIDTH 10 0
BBX 9 12 0 0
BITMAP
6300
6300
0000
3E00
6300
C180
C180
C180
C180
C180
6300
3E00
ENDCHAR
STARTCHAR 247
ENCODING 247
SWIDTH 720 0
DWIDTH 10 0
BBX 10 7 0 2
BITMAP
0C00
0C00
0000
FFC0
0000
0C00
0C00
ENDCHAR
STARTCHAR 248
ENCODING 248
SWIDTH 720 0
DWIDTH 10 0
BBX 9 12 0 -2
BITMAP
0080
3E80
6300
C580
C580
C980
C980
D180
7300
3E00
4000
4000
ENDCHAR
STARTCHAR 249
ENCODING 249
SWIDTH 792 0
DWIDTH 11 0
BBX 10 13 0 0
BITMAP
3000
1800
0400
0000
E3C0
6180
6180
6180
6180
6180
6180
7380
3DC0
ENDCHAR
STARTCHAR 250
ENCODING 250
SWIDTH 792 0
DWIDTH 11 0
BBX 10 13 0 0
BITMAP
0300
0600
0800
0000
E3C0
6180
6180
6180
6180
6180
6180
7380
3DC0
ENDCHAR
STARTCHAR 251
ENCODING 251
SWIDTH 792 0
DWIDTH 11 0
BBX 10 13 0 0
BITMAP
0C00
1E00
2100
0000
E3C0
6180
6180
6180
6180
6180
6180
7380
3DC0
ENDCHAR
STARTCHAR 252
ENCODING 252
SWIDTH 792 0
DWIDTH 11 0
BBX 10 12 0 0
BITMAP
3300
3300
0000
E3C0
6180
6180
6180
6180
6180
6180
7380
3DC0
ENDCHAR
STARTCHAR 253
ENCODING 253
SWIDTH 792 0
DWIDTH 11 0
BBX 10 17 0 -4
BITMAP
0300
0600
0800
0000
F1C0
6080
3100
3100
1A00
1A00
0C00
0C00
0800
0800
1000
D000
E000
ENDCHAR
STARTCHAR 254
ENCODING 254
SWIDTH 792 0
DWIDTH 11 0
BBX 10 18 0 -4
BITMAP
E000
6000
6000
6000
6000
6F00
7180
60C0
60C0
60C0
60C0
60C0
7180
6F00
6000
6000
6000
F000
ENDCHAR
STARTCHAR 255
ENCODING 255
SWIDTH 792 0
DWIDTH 11 0
BBX 10 16 0 -4
BITMAP
3300
3300
0000
F1C0
6080
3100
3100
1A00
1A00
0C00
0C00
0800
0800
1000
D000
E000
ENDCHAR
ENDFONT
