STARTFONT 2.1
COMMENT Exported by Fony v1.4.7
FONT Ne
SIZE 17 100 100
FONTBOUNDINGBOX 16 16 0 -3
STARTPROPERTIES 6
COPYRIGHT "Copyright (c) 1984, 1987 Adobe Systems Incorporated. All Rig"
RESOLUTION_X 100
RESOLUTION_Y 100
FONT_ASCENT 14
FONT_DESCENT 3
DEFAULT_CHAR 0
ENDPROPERTIES
CHARS 256
STARTCHAR 000
ENCODING 0
SWIDTH 1008 0
DWIDTH 14 0
BBX 13 11 0 0
BITMAP
AAA8
0000
8008
0000
8008
0000
8008
0000
8008
0000
AAA8
ENDCHAR
STARTCHAR 001
ENCODING 1
SWIDTH 72 0
DWIDTH 1 0
BBX 0 0 0 0
BITMAP
ENDCHAR
STARTCHAR 002
ENCODING 2
SWIDTH 72 0
DWIDTH 1 0
BBX 0 0 0 0
BITMAP
ENDCHAR
STARTCHAR 003
ENCODING 3
SWIDTH 72 0
DWIDTH 1 0
BBX 0 0 0 0
BITMAP
ENDCHAR
STARTCHAR 004
ENCODING 4
SWIDTH 72 0
DWIDTH 1 0
BBX 0 0 0 0
BITMAP
ENDCHAR
STARTCHAR 005
ENCODING 5
SWIDTH 72 0
DWIDTH 1 0
BBX 0 0 0 0
BITMAP
ENDCHAR
STARTCHAR 006
ENCODING 6
SWIDTH 72 0
DWIDTH 1 0
BBX 0 0 0 0
BITMAP
ENDCHAR
STARTCHAR 007
ENCODING 7
SWIDTH 72 0
DWIDTH 1 0
BBX 0 0 0 0
BITMAP
ENDCHAR
STARTCHAR 008
ENCODING 8
SWIDTH 72 0
DWIDTH 1 0
BBX 0 0 0 0
BITMAP
ENDCHAR
STARTCHAR 009
ENCODING 9
SWIDTH 72 0
DWIDTH 1 0
BBX 0 0 0 0
BITMAP
ENDCHAR
STARTCHAR 010
ENCODING 10
SWIDTH 72 0
DWIDTH 1 0
BBX 0 0 0 0
BITMAP
ENDCHAR
STARTCHAR 011
ENCODING 11
SWIDTH 72 0
DWIDTH 1 0
BBX 0 0 0 0
BITMAP
ENDCHAR
STARTCHAR 012
ENCODING 12
SWIDTH 72 0
DWIDTH 1 0
BBX 0 0 0 0
BITMAP
ENDCHAR
STARTCHAR 013
ENCODING 13
SWIDTH 72 0
DWIDTH 1 0
BBX 0 0 0 0
BITMAP
ENDCHAR
STARTCHAR 014
ENCODING 14
SWIDTH 72 0
DWIDTH 1 0
BBX 0 0 0 0
BITMAP
ENDCHAR
STARTCHAR 015
ENCODING 15
SWIDTH 72 0
DWIDTH 1 0
BBX 0 0 0 0
BITMAP
ENDCHAR
STARTCHAR 016
ENCODING 16
SWIDTH 72 0
DWIDTH 1 0
BBX 0 0 0 0
BITMAP
ENDCHAR
STARTCHAR 017
ENCODING 17
SWIDTH 72 0
DWIDTH 1 0
BBX 0 0 0 0
BITMAP
ENDCHAR
STARTCHAR 018
ENCODING 18
SWIDTH 72 0
DWIDTH 1 0
BBX 0 0 0 0
BITMAP
ENDCHAR
STARTCHAR 019
ENCODING 19
SWIDTH 72 0
DWIDTH 1 0
BBX 0 0 0 0
BITMAP
ENDCHAR
STARTCHAR 020
ENCODING 20
SWIDTH 72 0
DWIDTH 1 0
BBX 0 0 0 0
BITMAP
ENDCHAR
STARTCHAR 021
ENCODING 21
SWIDTH 72 0
DWIDTH 1 0
BBX 0 0 0 0
BITMAP
ENDCHAR
STARTCHAR 022
ENCODING 22
SWIDTH 72 0
DWIDTH 1 0
BBX 0 0 0 0
BITMAP
ENDCHAR
STARTCHAR 023
ENCODING 23
SWIDTH 72 0
DWIDTH 1 0
BBX 0 0 0 0
BITMAP
ENDCHAR
STARTCHAR 024
ENCODING 24
SWIDTH 72 0
DWIDTH 1 0
BBX 0 0 0 0
BITMAP
ENDCHAR
STARTCHAR 025
ENCODING 25
SWIDTH 72 0
DWIDTH 1 0
BBX 0 0 0 0
BITMAP
ENDCHAR
STARTCHAR 026
ENCODING 26
SWIDTH 72 0
DWIDTH 1 0
BBX 0 0 0 0
BITMAP
ENDCHAR
STARTCHAR 027
ENCODING 27
SWIDTH 72 0
DWIDTH 1 0
BBX 0 0 0 0
BITMAP
ENDCHAR
STARTCHAR 028
ENCODING 28
SWIDTH 72 0
DWIDTH 1 0
BBX 0 0 0 0
BITMAP
ENDCHAR
STARTCHAR 029
ENCODING 29
SWIDTH 72 0
DWIDTH 1 0
BBX 0 0 0 0
BITMAP
ENDCHAR
STARTCHAR 030
ENCODING 30
SWIDTH 72 0
DWIDTH 1 0
BBX 0 0 0 0
BITMAP
ENDCHAR
STARTCHAR 031
ENCODING 31
SWIDTH 72 0
DWIDTH 1 0
BBX 0 0 0 0
BITMAP
ENDCHAR
STARTCHAR 032
ENCODING 32
SWIDTH 288 0
DWIDTH 4 0
BBX 0 0 0 0
BITMAP
ENDCHAR
STARTCHAR 033
ENCODING 33
SWIDTH 360 0
DWIDTH 5 0
BBX 2 12 1 0
BITMAP
C0
C0
C0
C0
C0
80
80
80
80
00
C0
C0
ENDCHAR
STARTCHAR 034
ENCODING 34
SWIDTH 432 0
DWIDTH 6 0
BBX 4 4 1 8
BITMAP
90
90
90
90
ENDCHAR
STARTCHAR 035
ENCODING 35
SWIDTH 648 0
DWIDTH 9 0
BBX 8 12 0 0
BITMAP
12
12
12
12
7F
24
24
FE
48
48
48
48
ENDCHAR
STARTCHAR 036
ENCODING 36
SWIDTH 648 0
DWIDTH 9 0
BBX 7 15 1 -2
BITMAP
10
10
3C
52
96
96
F0
7C
1E
D2
D2
94
78
10
10
ENDCHAR
STARTCHAR 037
ENCODING 37
SWIDTH 1008 0
DWIDTH 14 0
BBX 12 12 1 0
BITMAP
3880
6780
4500
C500
8A00
8AE0
7590
0510
0B10
0A20
1220
11C0
ENDCHAR
STARTCHAR 038
ENCODING 38
SWIDTH 936 0
DWIDTH 13 0
BBX 12 12 0 0
BITMAP
1E00
3300
3100
3300
1A00
1CF0
2C60
6640
C680
C390
E790
7CE0
ENDCHAR
STARTCHAR 039
ENCODING 39
SWIDTH 216 0
DWIDTH 3 0
BBX 1 4 1 8
BITMAP
80
80
80
80
ENDCHAR
STARTCHAR 040
ENCODING 40
SWIDTH 432 0
DWIDTH 6 0
BBX 4 14 1 -2
BITMAP
10
20
40
40
80
80
80
80
80
80
40
40
20
10
ENDCHAR
STARTCHAR 041
ENCODING 41
SWIDTH 432 0
DWIDTH 6 0
BBX 4 14 0 -2
BITMAP
80
40
20
20
10
10
10
10
10
10
20
20
40
80
ENDCHAR
STARTCHAR 042
ENCODING 42
SWIDTH 576 0
DWIDTH 8 0
BBX 7 7 0 5
BITMAP
10
54
D6
38
D6
54
10
ENDCHAR
STARTCHAR 043
ENCODING 43
SWIDTH 720 0
DWIDTH 10 0
BBX 7 9 1 0
BITMAP
10
10
10
10
FE
10
10
10
10
ENDCHAR
STARTCHAR 044
ENCODING 44
SWIDTH 288 0
DWIDTH 4 0
BBX 2 5 1 -3
BITMAP
C0
C0
40
40
80
ENDCHAR
STARTCHAR 045
ENCODING 45
SWIDTH 360 0
DWIDTH 5 0
BBX 4 1 0 3
BITMAP
F0
ENDCHAR
STARTCHAR 046
ENCODING 46
SWIDTH 288 0
DWIDTH 4 0
BBX 2 2 1 0
BITMAP
C0
C0
ENDCHAR
STARTCHAR 047
ENCODING 47
SWIDTH 360 0
DWIDTH 5 0
BBX 5 12 0 0
BITMAP
08
08
10
10
10
20
20
40
40
40
80
80
ENDCHAR
STARTCHAR 048
ENCODING 48
SWIDTH 648 0
DWIDTH 9 0
BBX 8 12 0 0
BITMAP
3C
66
42
C3
C3
C3
C3
C3
C3
42
66
3C
ENDCHAR
STARTCHAR 049
ENCODING 49
SWIDTH 648 0
DWIDTH 9 0
BBX 6 12 1 0
BITMAP
10
F0
30
30
30
30
30
30
30
30
30
FC
ENDCHAR
STARTCHAR 050
ENCODING 50
SWIDTH 648 0
DWIDTH 9 0
BBX 7 12 1 0
BITMAP
38
44
86
C6
C6
0C
08
10
22
42
FE
FE
ENDCHAR
STARTCHAR 051
ENCODING 51
SWIDTH 648 0
DWIDTH 9 0
BBX 7 12 1 0
BITMAP
78
8C
C6
C6
0C
38
0C
06
C6
C6
8C
78
ENDCHAR
STARTCHAR 052
ENCODING 52
SWIDTH 648 0
DWIDTH 9 0
BBX 8 12 0 0
BITMAP
04
0C
1C
2C
2C
4C
4C
8C
FF
0C
0C
3F
ENDCHAR
STARTCHAR 053
ENCODING 53
SWIDTH 648 0
DWIDTH 9 0
BBX 7 12 1 0
BITMAP
7E
78
40
40
78
CC
86
06
C6
C6
8C
78
ENDCHAR
STARTCHAR 054
ENCODING 54
SWIDTH 648 0
DWIDTH 9 0
BBX 8 12 0 0
BITMAP
3C
66
46
C0
C0
FC
E6
C3
C3
C3
66
3C
ENDCHAR
STARTCHAR 055
ENCODING 55
SWIDTH 648 0
DWIDTH 9 0
BBX 7 12 1 0
BITMAP
FE
FE
84
84
08
08
10
10
10
30
30
30
ENDCHAR
STARTCHAR 056
ENCODING 56
SWIDTH 648 0
DWIDTH 9 0
BBX 8 12 0 0
BITMAP
3C
66
42
62
76
3C
6E
C7
C3
C3
66
3C
ENDCHAR
STARTCHAR 057
ENCODING 57
SWIDTH 648 0
DWIDTH 9 0
BBX 8 12 0 0
BITMAP
3C
66
C3
C3
C3
67
3F
03
03
62
66
38
ENDCHAR
STARTCHAR 058
ENCODING 58
SWIDTH 288 0
DWIDTH 4 0
BBX 2 8 1 0
BITMAP
C0
C0
00
00
00
00
C0
C0
ENDCHAR
STARTCHAR 059
ENCODING 59
SWIDTH 288 0
DWIDTH 4 0
BBX 2 11 1 -3
BITMAP
C0
C0
00
00
00
00
C0
C0
40
40
80
ENDCHAR
STARTCHAR 060
ENCODING 60
SWIDTH 720 0
DWIDTH 10 0
BBX 8 8 1 0
BITMAP
03
0C
30
C0
C0
30
0C
03
ENDCHAR
STARTCHAR 061
ENCODING 61
SWIDTH 720 0
DWIDTH 10 0
BBX 8 4 1 2
BITMAP
FF
00
00
FF
ENDCHAR
STARTCHAR 062
ENCODING 62
SWIDTH 720 0
DWIDTH 10 0
BBX 8 8 0 0
BITMAP
C0
30
0C
03
03
0C
30
C0
ENDCHAR
STARTCHAR 063
ENCODING 63
SWIDTH 504 0
DWIDTH 7 0
BBX 7 12 0 0
BITMAP
38
4C
E6
46
06
0C
18
10
10
00
30
30
ENDCHAR
STARTCHAR 064
ENCODING 64
SWIDTH 864 0
DWIDTH 12 0
BBX 12 13 0 -1
BITMAP
0F00
30C0
4020
8DA0
9B20
3120
3320
2240
3640
9990
8020
60C0
1F00
ENDCHAR
STARTCHAR 065
ENCODING 65
SWIDTH 864 0
DWIDTH 12 0
BBX 11 12 0 0
BITMAP
0400
0400
0E00
0E00
1600
1300
1300
3F80
2180
4180
40C0
F3E0
ENDCHAR
STARTCHAR 066
ENCODING 66
SWIDTH 864 0
DWIDTH 12 0
BBX 11 12 0 0
BITMAP
FF80
31C0
30C0
30C0
3180
3FC0
30E0
3060
3060
3060
30C0
FF80
ENDCHAR
STARTCHAR 067
ENCODING 67
SWIDTH 864 0
DWIDTH 12 0
BBX 10 12 1 0
BITMAP
1F40
70C0
6040
E040
C040
C000
C000
C000
E040
6040
7080
1F00
ENDCHAR
STARTCHAR 068
ENCODING 68
SWIDTH 936 0
DWIDTH 13 0
BBX 12 12 0 0
BITMAP
FF00
31C0
3060
3060
3030
3030
3030
3030
3060
3060
31C0
FF00
ENDCHAR
STARTCHAR 069
ENCODING 69
SWIDTH 864 0
DWIDTH 12 0
BBX 10 12 0 0
BITMAP
FFC0
30C0
3040
3240
3200
3E00
3600
3200
3240
3040
30C0
FFC0
ENDCHAR
STARTCHAR 070
ENCODING 70
SWIDTH 792 0
DWIDTH 11 0
BBX 10 12 0 0
BITMAP
FFC0
30C0
3040
3240
3200
3E00
3600
3200
3200
3000
3000
FC00
ENDCHAR
STARTCHAR 071
ENCODING 71
SWIDTH 936 0
DWIDTH 13 0
BBX 11 12 1 0
BITMAP
1F40
70C0
6040
E040
C040
C000
C3E0
C0C0
E0C0
60C0
71C0
1E40
ENDCHAR
STARTCHAR 072
ENCODING 72
SWIDTH 1008 0
DWIDTH 14 0
BBX 13 12 0 0
BITMAP
FDF8
3060
3060
3060
3060
3FE0
3060
3060
3060
3060
3060
FDF8
ENDCHAR
STARTCHAR 073
ENCODING 73
SWIDTH 504 0
DWIDTH 7 0
BBX 6 12 0 0
BITMAP
FC
30
30
30
30
30
30
30
30
30
30
FC
ENDCHAR
STARTCHAR 074
ENCODING 74
SWIDTH 648 0
DWIDTH 9 0
BBX 9 12 0 0
BITMAP
1F80
0600
0600
0600
0600
0600
0600
4600
E600
C600
8400
7800
ENDCHAR
STARTCHAR 075
ENCODING 75
SWIDTH 936 0
DWIDTH 13 0
BBX 12 12 0 0
BITMAP
FDF0
30C0
3080
3100
3200
3600
3B00
3380
3180
30C0
30E0
FDF0
ENDCHAR
STARTCHAR 076
ENCODING 76
SWIDTH 792 0
DWIDTH 11 0
BBX 10 12 0 0
BITMAP
FC00
3000
3000
3000
3000
3000
3000
3040
3040
3040
30C0
FFC0
ENDCHAR
STARTCHAR 077
ENCODING 77
SWIDTH 1152 0
DWIDTH 16 0
BBX 15 12 0 0
BITMAP
F83E
3838
3838
2C58
2C58
2E58
2698
2698
2398
2318
2318
F93E
ENDCHAR
STARTCHAR 078
ENCODING 78
SWIDTH 936 0
DWIDTH 13 0
BBX 13 12 0 0
BITMAP
F0F8
3820
3C20
2C20
2E20
2720
23A0
21A0
20E0
20E0
2060
F820
ENDCHAR
STARTCHAR 079
ENCODING 79
SWIDTH 936 0
DWIDTH 13 0
BBX 11 12 1 0
BITMAP
0E00
3180
60C0
60C0
C060
C060
C060
C060
60C0
60C0
3180
0E00
ENDCHAR
STARTCHAR 080
ENCODING 80
SWIDTH 792 0
DWIDTH 11 0
BBX 11 12 0 0
BITMAP
FF80
30C0
3060
3060
3060
30C0
3F80
3000
3000
3000
3000
FC00
ENDCHAR
STARTCHAR 081
ENCODING 81
SWIDTH 936 0
DWIDTH 13 0
BBX 11 15 1 -3
BITMAP
0E00
3180
60C0
60C0
C060
C060
C060
CC60
5240
73C0
3380
0F00
0340
0340
0180
ENDCHAR
STARTCHAR 082
ENCODING 82
SWIDTH 864 0
DWIDTH 12 0
BBX 12 12 0 0
BITMAP
FF00
30C0
3060
3060
30C0
3F00
3380
30C0
30C0
30D0
30D0
FC60
ENDCHAR
STARTCHAR 083
ENCODING 83
SWIDTH 720 0
DWIDTH 10 0
BBX 8 12 1 0
BITMAP
3D
63
C1
C1
E0
7C
3E
87
83
83
C6
BC
ENDCHAR
STARTCHAR 084
ENCODING 84
SWIDTH 792 0
DWIDTH 11 0
BBX 10 12 0 0
BITMAP
FFC0
CCC0
8C40
8C40
8C40
0C00
0C00
0C00
0C00
0C00
0C00
3F00
ENDCHAR
STARTCHAR 085
ENCODING 85
SWIDTH 936 0
DWIDTH 13 0
BBX 13 12 0 0
BITMAP
FCF8
3020
3020
3020
3020
3020
3020
3020
3020
3020
1840
0F80
ENDCHAR
STARTCHAR 086
ENCODING 86
SWIDTH 864 0
DWIDTH 12 0
BBX 11 12 0 0
BITMAP
F8E0
7040
3040
3080
1880
1900
1900
0D00
0E00
0E00
0400
0400
ENDCHAR
STARTCHAR 087
ENCODING 87
SWIDTH 1152 0
DWIDTH 16 0
BBX 15 12 0 0
BITMAP
F7CE
6304
6304
3188
3188
39C8
1AD0
1AD0
0A50
0C60
0420
0420
ENDCHAR
STARTCHAR 088
ENCODING 88
SWIDTH 792 0
DWIDTH 11 0
BBX 11 12 0 0
BITMAP
F1E0
60C0
3080
1900
1E00
0C00
0600
0F00
1300
2180
60C0
F1E0
ENDCHAR
STARTCHAR 089
ENCODING 89
SWIDTH 864 0
DWIDTH 12 0
BBX 12 12 0 0
BITMAP
FCF0
3040
1880
1880
0D00
0D00
0600
0600
0600
0600
0600
1F80
ENDCHAR
STARTCHAR 090
ENCODING 90
SWIDTH 720 0
DWIDTH 10 0
BBX 9 12 0 0
BITMAP
7F80
6180
4300
4300
0600
0C00
0C00
1880
3080
3080
6180
FF80
ENDCHAR
STARTCHAR 091
ENCODING 91
SWIDTH 432 0
DWIDTH 6 0
BBX 3 14 1 -2
BITMAP
E0
80
80
80
80
80
80
80
80
80
80
80
80
E0
ENDCHAR
STARTCHAR 092
ENCODING 92
SWIDTH 720 0
DWIDTH 10 0
BBX 6 12 2 0
BITMAP
80
80
40
40
20
20
10
10
08
08
04
04
ENDCHAR
STARTCHAR 093
ENCODING 93
SWIDTH 432 0
DWIDTH 6 0
BBX 3 14 1 -2
BITMAP
E0
20
20
20
20
20
20
20
20
20
20
20
20
E0
ENDCHAR
STARTCHAR 094
ENCODING 94
SWIDTH 720 0
DWIDTH 10 0
BBX 8 7 1 5
BITMAP
18
18
3C
24
66
42
C3
ENDCHAR
STARTCHAR 095
ENCODING 95
SWIDTH 576 0
DWIDTH 8 0
BBX 8 1 0 -2
BITMAP
FF
ENDCHAR
STARTCHAR 096
ENCODING 96
SWIDTH 360 0
DWIDTH 5 0
BBX 3 3 0 9
BITMAP
80
40
20
ENDCHAR
STARTCHAR 097
ENCODING 97
SWIDTH 648 0
DWIDTH 9 0
BBX 7 8 1 0
BITMAP
78
CC
CC
1C
6C
CC
CC
76
ENDCHAR
STARTCHAR 098
ENCODING 98
SWIDTH 648 0
DWIDTH 9 0
BBX 8 12 0 0
BITMAP
E0
60
60
60
7C
66
63
63
63
63
66
5C
ENDCHAR
STARTCHAR 099
ENCODING 99
SWIDTH 504 0
DWIDTH 7 0
BBX 6 8 0 0
BITMAP
38
6C
CC
C0
C0
C0
6C
38
ENDCHAR
STARTCHAR 100
ENCODING 100
SWIDTH 720 0
DWIDTH 10 0
BBX 8 12 1 0
BITMAP
0E
06
06
06
3E
66
C6
C6
C6
C6
66
3B
ENDCHAR
STARTCHAR 101
ENCODING 101
SWIDTH 576 0
DWIDTH 8 0
BBX 7 8 0 0
BITMAP
38
44
C6
FE
C0
C0
66
3C
ENDCHAR
STARTCHAR 102
ENCODING 102
SWIDTH 432 0
DWIDTH 6 0
BBX 6 12 0 0
BITMAP
38
6C
60
60
F8
60
60
60
60
60
60
F8
ENDCHAR
STARTCHAR 103
ENCODING 103
SWIDTH 648 0
DWIDTH 9 0
BBX 9 11 0 -3
BITMAP
3D80
6680
6600
6600
6600
3C00
4000
7E00
C300
C300
7E00
ENDCHAR
STARTCHAR 104
ENCODING 104
SWIDTH 720 0
DWIDTH 10 0
BBX 9 12 0 0
BITMAP
E000
6000
6000
6000
6E00
7700
6300
6300
6300
6300
6300
F780
ENDCHAR
STARTCHAR 105
ENCODING 105
SWIDTH 360 0
DWIDTH 5 0
BBX 4 12 0 0
BITMAP
60
60
00
00
E0
60
60
60
60
60
60
F0
ENDCHAR
STARTCHAR 106
ENCODING 106
SWIDTH 360 0
DWIDTH 5 0
BBX 3 15 0 -3
BITMAP
60
60
00
00
E0
60
60
60
60
60
60
60
60
60
C0
ENDCHAR
STARTCHAR 107
ENCODING 107
SWIDTH 720 0
DWIDTH 10 0
BBX 9 12 0 0
BITMAP
E000
6000
6000
6000
6F80
6600
6C00
7800
7C00
6600
6300
F780
ENDCHAR
STARTCHAR 108
ENCODING 108
SWIDTH 360 0
DWIDTH 5 0
BBX 4 12 0 0
BITMAP
E0
60
60
60
60
60
60
60
60
60
60
F0
ENDCHAR
STARTCHAR 109
ENCODING 109
SWIDTH 1080 0
DWIDTH 15 0
BBX 14 8 0 0
BITMAP
EE70
7398
6318
6318
6318
6318
6318
F7BC
ENDCHAR
STARTCHAR 110
ENCODING 110
SWIDTH 720 0
DWIDTH 10 0
BBX 9 8 0 0
BITMAP
EE00
7300
6300
6300
6300
6300
6300
F780
ENDCHAR
STARTCHAR 111
ENCODING 111
SWIDTH 576 0
DWIDTH 8 0
BBX 7 8 0 0
BITMAP
38
6C
C6
C6
C6
C6
6C
38
ENDCHAR
STARTCHAR 112
ENCODING 112
SWIDTH 648 0
DWIDTH 9 0
BBX 8 11 0 -3
BITMAP
DC
66
63
63
63
63
66
7C
60
60
F0
ENDCHAR
STARTCHAR 113
ENCODING 113
SWIDTH 648 0
DWIDTH 9 0
BBX 8 11 0 -3
BITMAP
39
66
C6
C6
C6
C6
66
3E
06
06
0F
ENDCHAR
STARTCHAR 114
ENCODING 114
SWIDTH 504 0
DWIDTH 7 0
BBX 7 8 0 0
BITMAP
EC
76
66
60
60
60
60
F0
ENDCHAR
STARTCHAR 115
ENCODING 115
SWIDTH 576 0
DWIDTH 8 0
BBX 6 8 0 0
BITMAP
74
CC
C4
70
38
8C
CC
B8
ENDCHAR
STARTCHAR 116
ENCODING 116
SWIDTH 504 0
DWIDTH 7 0
BBX 6 11 0 0
BITMAP
20
20
60
F8
60
60
60
60
64
64
38
ENDCHAR
STARTCHAR 117
ENCODING 117
SWIDTH 720 0
DWIDTH 10 0
BBX 9 8 0 0
BITMAP
E700
6300
6300
6300
6300
6300
6300
3D80
ENDCHAR
STARTCHAR 118
ENCODING 118
SWIDTH 648 0
DWIDTH 9 0
BBX 9 8 0 0
BITMAP
F780
6300
3200
3600
1C00
1C00
0800
0800
ENDCHAR
STARTCHAR 119
ENCODING 119
SWIDTH 936 0
DWIDTH 13 0
BBX 13 8 0 0
BITMAP
EF78
6630
3320
3360
1DC0
1DC0
0880
0880
ENDCHAR
STARTCHAR 120
ENCODING 120
SWIDTH 648 0
DWIDTH 9 0
BBX 8 8 0 0
BITMAP
F7
62
34
38
1C
2C
46
EF
ENDCHAR
STARTCHAR 121
ENCODING 121
SWIDTH 648 0
DWIDTH 9 0
BBX 8 11 0 -3
BITMAP
F7
62
36
34
1C
1C
08
08
18
D0
E0
ENDCHAR
STARTCHAR 122
ENCODING 122
SWIDTH 576 0
DWIDTH 8 0
BBX 6 8 1 0
BITMAP
FC
8C
98
30
30
64
C4
FC
ENDCHAR
STARTCHAR 123
ENCODING 123
SWIDTH 432 0
DWIDTH 6 0
BBX 3 14 1 -2
BITMAP
20
40
40
40
40
40
80
40
40
40
40
40
40
20
ENDCHAR
STARTCHAR 124
ENCODING 124
SWIDTH 720 0
DWIDTH 10 0
BBX 1 12 4 0
BITMAP
80
80
80
80
80
80
80
80
80
80
80
80
ENDCHAR
STARTCHAR 125
ENCODING 125
SWIDTH 432 0
DWIDTH 6 0
BBX 3 14 1 -2
BITMAP
80
40
40
40
40
40
20
40
40
40
40
40
40
80
ENDCHAR
STARTCHAR 126
ENCODING 126
SWIDTH 720 0
DWIDTH 10 0
BBX 8 2 1 3
BITMAP
73
CE
ENDCHAR
STARTCHAR 127
ENCODING 127
SWIDTH 72 0
DWIDTH 1 0
BBX 0 0 0 0
BITMAP
ENDCHAR
STARTCHAR 128
ENCODING 128
SWIDTH 72 0
DWIDTH 1 0
BBX 0 0 0 0
BITMAP
ENDCHAR
STARTCHAR 129
ENCODING 129
SWIDTH 72 0
DWIDTH 1 0
BBX 0 0 0 0
BITMAP
ENDCHAR
STARTCHAR 130
ENCODING 130
SWIDTH 72 0
DWIDTH 1 0
BBX 0 0 0 0
BITMAP
ENDCHAR
STARTCHAR 131
ENCODING 131
SWIDTH 72 0
DWIDTH 1 0
BBX 0 0 0 0
BITMAP
ENDCHAR
STARTCHAR 132
ENCODING 132
SWIDTH 72 0
DWIDTH 1 0
BBX 0 0 0 0
BITMAP
ENDCHAR
STARTCHAR 133
ENCODING 133
SWIDTH 72 0
DWIDTH 1 0
BBX 0 0 0 0
BITMAP
ENDCHAR
STARTCHAR 134
ENCODING 134
SWIDTH 864 0
DWIDTH 12 0
BBX 11 13 0 0
BITMAP
4000
6400
2400
0E00
0E00
1600
1300
1300
3F80
2180
4180
40C0
F3E0
ENDCHAR
STARTCHAR 135
ENCODING 135
SWIDTH 72 0
DWIDTH 1 0
BBX 0 0 0 0
BITMAP
ENDCHAR
STARTCHAR 136
ENCODING 136
SWIDTH 864 0
DWIDTH 12 0
BBX 11 12 0 0
BITMAP
BFE0
D860
5820
1920
1900
1F00
1B00
1900
1920
1820
1860
3FE0
ENDCHAR
STARTCHAR 137
ENCODING 137
SWIDTH 1008 0
DWIDTH 14 0
BBX 14 13 0 0
BITMAP
8000
FEFC
5830
1830
1830
1830
1FF0
1830
1830
1830
1830
1830
7EFC
ENDCHAR
STARTCHAR 138
ENCODING 138
SWIDTH 504 0
DWIDTH 7 0
BBX 7 13 0 0
BITMAP
80
FE
58
18
18
18
18
18
18
18
18
18
7E
ENDCHAR
STARTCHAR 139
ENCODING 139
SWIDTH 72 0
DWIDTH 1 0
BBX 0 0 0 0
BITMAP
ENDCHAR
STARTCHAR 140
ENCODING 140
SWIDTH 936 0
DWIDTH 13 0
BBX 12 13 0 0
BITMAP
8000
4700
18C0
3060
3060
6030
6030
6030
6030
3060
3060
18C0
0700
ENDCHAR
STARTCHAR 141
ENCODING 141
SWIDTH 72 0
DWIDTH 1 0
BBX 0 0 0 0
BITMAP
ENDCHAR
STARTCHAR 142
ENCODING 142
SWIDTH 864 0
DWIDTH 12 0
BBX 12 12 0 0
BITMAP
FCF0
3040
9880
D880
4D00
0D00
0600
0600
0600
0600
0600
1F80
ENDCHAR
STARTCHAR 143
ENCODING 143
SWIDTH 864 0
DWIDTH 12 0
BBX 11 14 0 -1
BITMAP
8000
4F00
3FC0
70E0
6060
6060
6060
6060
6060
30C0
1980
4920
79E0
79E0
ENDCHAR
STARTCHAR 144
ENCODING 144
SWIDTH 360 0
DWIDTH 5 0
BBX 5 14 0 0
BITMAP
20
40
00
A0
00
00
E0
60
60
60
60
60
38
18
ENDCHAR
STARTCHAR 145
ENCODING 145
SWIDTH 864 0
DWIDTH 12 0
BBX 11 12 0 0
BITMAP
0400
0400
0E00
0E00
1600
1300
1300
3F80
2180
4180
40C0
F3E0
ENDCHAR
STARTCHAR 146
ENCODING 146
SWIDTH 864 0
DWIDTH 12 0
BBX 11 12 0 0
BITMAP
FF80
31C0
30C0
30C0
3180
3FC0
30E0
3060
3060
3060
30C0
FF80
ENDCHAR
STARTCHAR 147
ENCODING 147
SWIDTH 792 0
DWIDTH 11 0
BBX 10 12 0 0
BITMAP
FFC0
30C0
3040
3040
3000
3000
3000
3000
3000
3000
3000
FC00
ENDCHAR
STARTCHAR 148
ENCODING 148
SWIDTH 864 0
DWIDTH 12 0
BBX 11 12 0 0
BITMAP
0400
0400
0E00
0E00
0A00
1B00
1B00
3180
3180
2080
60C0
FFE0
ENDCHAR
STARTCHAR 149
ENCODING 149
SWIDTH 864 0
DWIDTH 12 0
BBX 10 12 1 0
BITMAP
FFC0
30C0
3040
3240
3200
3E00
3600
3200
3240
3040
30C0
FFC0
ENDCHAR
STARTCHAR 150
ENCODING 150
SWIDTH 720 0
DWIDTH 10 0
BBX 8 12 1 0
BITMAP
FF
C3
86
86
0C
18
18
31
61
61
C3
FF
ENDCHAR
STARTCHAR 151
ENCODING 151
SWIDTH 1008 0
DWIDTH 14 0
BBX 13 12 0 0
BITMAP
FDF8
3060
3060
3060
3060
3FE0
3060
3060
3060
3060
3060
FDF8
ENDCHAR
STARTCHAR 152
ENCODING 152
SWIDTH 864 0
DWIDTH 12 0
BBX 9 12 2 0
BITMAP
3E00
7F00
E380
C180
C180
FF80
FF80
C180
C180
E380
7F00
3E00
ENDCHAR
STARTCHAR 153
ENCODING 153
SWIDTH 720 0
DWIDTH 10 0
BBX 6 12 2 0
BITMAP
FC
30
30
30
30
30
30
30
30
30
30
FC
ENDCHAR
STARTCHAR 154
ENCODING 154
SWIDTH 936 0
DWIDTH 13 0
BBX 12 12 0 0
BITMAP
FDF0
30C0
3080
3100
3200
3600
3B00
3380
3180
30C0
30E0
FDF0
ENDCHAR
STARTCHAR 155
ENCODING 155
SWIDTH 864 0
DWIDTH 12 0
BBX 11 12 0 0
BITMAP
0400
0400
0E00
0E00
0A00
1B00
1B00
3180
3180
2080
60C0
E0E0
ENDCHAR
STARTCHAR 156
ENCODING 156
SWIDTH 1152 0
DWIDTH 16 0
BBX 15 12 0 0
BITMAP
F83E
3838
3838
2C58
2C58
2E58
2698
2698
2398
2318
2318
F93E
ENDCHAR
STARTCHAR 157
ENCODING 157
SWIDTH 936 0
DWIDTH 13 0
BBX 13 12 0 0
BITMAP
F0F8
3820
3C20
2C20
2E20
2720
23A0
21A0
20E0
20E0
2060
F820
ENDCHAR
STARTCHAR 158
ENCODING 158
SWIDTH 864 0
DWIDTH 12 0
BBX 9 12 1 0
BITMAP
FF80
C180
8080
0000
0000
3E00
3E00
0080
8080
8080
C180
FF80
ENDCHAR
STARTCHAR 159
ENCODING 159
SWIDTH 936 0
DWIDTH 13 0
BBX 11 12 1 0
BITMAP
0E00
3180
60C0
60C0
C060
C060
C060
C060
60C0
60C0
3180
0E00
ENDCHAR
STARTCHAR 160
ENCODING 160
SWIDTH 1008 0
DWIDTH 14 0
BBX 13 12 0 0
BITMAP
FFF8
3060
3060
3060
3060
3060
3060
3060
3060
3060
3060
F8F8
ENDCHAR
STARTCHAR 161
ENCODING 161
SWIDTH 864 0
DWIDTH 12 0
BBX 11 12 0 0
BITMAP
FF80
30C0
3060
3060
3060
30C0
3F80
3000
3000
3000
3000
FC00
ENDCHAR
STARTCHAR 162
ENCODING 162
SWIDTH 504 0
DWIDTH 7 0
BBX 5 5 1 7
BITMAP
70
88
88
88
70
ENDCHAR
STARTCHAR 163
ENCODING 163
SWIDTH 864 0
DWIDTH 12 0
BBX 9 12 1 0
BITMAP
FF80
6080
3080
3000
1800
0C00
0C00
1880
3080
3080
6180
FF80
ENDCHAR
STARTCHAR 164
ENCODING 164
SWIDTH 864 0
DWIDTH 12 0
BBX 10 12 1 0
BITMAP
FFC0
CCC0
8C40
8C40
8C40
0C00
0C00
0C00
0C00
0C00
0C00
3F00
ENDCHAR
STARTCHAR 165
ENCODING 165
SWIDTH 864 0
DWIDTH 12 0
BBX 12 12 0 0
BITMAP
FCF0
3040
1880
1880
0D00
0D00
0600
0600
0600
0600
0600
1F80
ENDCHAR
STARTCHAR 166
ENCODING 166
SWIDTH 864 0
DWIDTH 12 0
BBX 10 12 1 0
BITMAP
1E00
0C00
7F80
EDC0
CCC0
CCC0
CCC0
CCC0
EDC0
7F80
0C00
1E00
ENDCHAR
STARTCHAR 167
ENCODING 167
SWIDTH 864 0
DWIDTH 12 0
BBX 11 12 1 0
BITMAP
F1E0
60C0
3080
1900
1E00
0C00
0600
0F00
1300
2180
60C0
F1E0
ENDCHAR
STARTCHAR 168
ENCODING 168
SWIDTH 864 0
DWIDTH 12 0
BBX 12 12 0 -1
BITMAP
E670
6660
6660
6660
6660
6660
6660
3FC0
1F80
0600
0600
0F00
ENDCHAR
STARTCHAR 169
ENCODING 169
SWIDTH 864 0
DWIDTH 12 0
BBX 10 12 1 0
BITMAP
1E00
7F80
E1C0
C0C0
C0C0
C0C0
C0C0
6180
3300
9240
F3C0
F3C0
ENDCHAR
STARTCHAR 170
ENCODING 170
SWIDTH 720 0
DWIDTH 10 0
BBX 6 14 2 0
BITMAP
CC
00
FC
30
30
30
30
30
30
30
30
30
30
FC
ENDCHAR
STARTCHAR 171
ENCODING 171
SWIDTH 864 0
DWIDTH 12 0
BBX 12 14 0 0
BITMAP
6060
0000
FCF0
3040
1880
1880
0D00
0D00
0600
0600
0600
0600
0600
1F80
ENDCHAR
STARTCHAR 172
ENCODING 172
SWIDTH 648 0
DWIDTH 9 0
BBX 8 12 1 0
BITMAP
02
04
08
00
77
7E
C6
C6
C6
C6
6F
3B
ENDCHAR
STARTCHAR 173
ENCODING 173
SWIDTH 576 0
DWIDTH 8 0
BBX 6 13 1 0
BITMAP
04
08
10
00
78
FC
C4
C0
70
C0
C4
FC
78
ENDCHAR
STARTCHAR 174
ENCODING 174
SWIDTH 864 0
DWIDTH 12 0
BBX 8 14 2 -1
BITMAP
04
08
10
00
00
EE
7F
63
63
63
63
F3
03
03
ENDCHAR
STARTCHAR 175
ENCODING 175
SWIDTH 576 0
DWIDTH 8 0
BBX 5 12 2 0
BITMAP
20
40
00
00
E0
60
60
60
60
60
38
18
ENDCHAR
STARTCHAR 176
ENCODING 176
SWIDTH 648 0
DWIDTH 9 0
BBX 9 12 0 0
BITMAP
0400
CD80
0800
0000
E380
6300
6300
6300
6300
6300
3E00
1C00
ENDCHAR
STARTCHAR 177
ENCODING 177
SWIDTH 648 0
DWIDTH 9 0
BBX 8 8 1 0
BITMAP
77
7E
C6
C6
C6
C6
6F
3B
ENDCHAR
STARTCHAR 178
ENCODING 178
SWIDTH 648 0
DWIDTH 9 0
BBX 8 12 0 -1
BITMAP
3C
66
63
63
66
7C
66
63
63
63
76
EC
ENDCHAR
STARTCHAR 179
ENCODING 179
SWIDTH 648 0
DWIDTH 9 0
BBX 9 9 0 -1
BITMAP
E380
6300
6300
3600
3E00
1C00
0C00
0C00
0C00
ENDCHAR
STARTCHAR 180
ENCODING 180
SWIDTH 648 0
DWIDTH 9 0
BBX 7 14 1 -1
BITMAP
38
7C
C6
C6
60
30
78
CC
C6
C6
C6
C6
7C
38
ENDCHAR
STARTCHAR 181
ENCODING 181
SWIDTH 576 0
DWIDTH 8 0
BBX 6 9 1 0
BITMAP
78
FC
C4
C0
70
C0
C4
FC
78
ENDCHAR
STARTCHAR 182
ENCODING 182
SWIDTH 648 0
DWIDTH 9 0
BBX 6 12 1 -1
BITMAP
FC
38
30
60
C0
C0
C0
78
0C
0C
3C
30
ENDCHAR
STARTCHAR 183
ENCODING 183
SWIDTH 720 0
DWIDTH 10 0
BBX 8 10 1 -2
BITMAP
EE
7F
63
63
63
63
F3
03
03
03
ENDCHAR
STARTCHAR 184
ENCODING 184
SWIDTH 648 0
DWIDTH 9 0
BBX 7 12 1 0
BITMAP
38
7C
C6
C6
C6
FE
C6
C6
C6
C6
7C
38
ENDCHAR
STARTCHAR 185
ENCODING 185
SWIDTH 360 0
DWIDTH 5 0
BBX 5 8 0 0
BITMAP
E0
60
60
60
60
60
38
18
ENDCHAR
STARTCHAR 186
ENCODING 186
SWIDTH 720 0
DWIDTH 10 0
BBX 8 8 1 0
BITMAP
EF
66
6C
78
7C
66
62
F7
ENDCHAR
STARTCHAR 187
ENCODING 187
SWIDTH 720 0
DWIDTH 10 0
BBX 8 12 1 0
BITMAP
78
7C
06
06
06
3E
7E
66
66
66
66
E7
ENDCHAR
STARTCHAR 188
ENCODING 188
SWIDTH 720 0
DWIDTH 10 0
BBX 10 10 0 -2
BITMAP
E700
6300
6300
6300
6300
6300
7DC0
6000
6000
6000
ENDCHAR
STARTCHAR 189
ENCODING 189
SWIDTH 648 0
DWIDTH 9 0
BBX 9 8 0 0
BITMAP
C180
E380
6300
3600
3600
1C00
1C00
0800
ENDCHAR
STARTCHAR 190
ENCODING 190
SWIDTH 648 0
DWIDTH 9 0
BBX 7 14 1 -1
BITMAP
FE
FE
60
C0
C0
78
78
C0
C0
78
7C
0C
7C
70
ENDCHAR
STARTCHAR 191
ENCODING 191
SWIDTH 576 0
DWIDTH 8 0
BBX 7 9 1 0
BITMAP
38
7C
C6
C6
C6
C6
C6
7C
38
ENDCHAR
STARTCHAR 192
ENCODING 192
SWIDTH 648 0
DWIDTH 9 0
BBX 8 8 1 0
BITMAP
FF
7E
66
66
66
66
66
E7
ENDCHAR
STARTCHAR 193
ENCODING 193
SWIDTH 648 0
DWIDTH 9 0
BBX 8 10 0 -2
BITMAP
3E
7F
63
63
63
7F
7E
60
60
F0
ENDCHAR
STARTCHAR 194
ENCODING 194
SWIDTH 720 0
DWIDTH 10 0
BBX 8 10 1 -1
BITMAP
3C
7F
C3
C0
C0
FC
7E
03
1F
0E
ENDCHAR
STARTCHAR 195
ENCODING 195
SWIDTH 648 0
DWIDTH 9 0
BBX 9 8 0 0
BITMAP
7F80
7F80
C600
C600
C600
C600
7C00
3800
ENDCHAR
STARTCHAR 196
ENCODING 196
SWIDTH 576 0
DWIDTH 8 0
BBX 7 8 1 0
BITMAP
FE
FE
30
30
30
30
3C
1C
ENDCHAR
STARTCHAR 197
ENCODING 197
SWIDTH 648 0
DWIDTH 9 0
BBX 9 8 0 0
BITMAP
E380
6300
6300
6300
6300
6300
3E00
1C00
ENDCHAR
STARTCHAR 198
ENCODING 198
SWIDTH 792 0
DWIDTH 11 0
BBX 9 10 1 -1
BITMAP
3E00
7F00
C980
C980
C980
C980
7F00
3E00
0800
1C00
ENDCHAR
STARTCHAR 199
ENCODING 199
SWIDTH 720 0
DWIDTH 10 0
BBX 8 9 1 -1
BITMAP
C3
E7
66
3C
18
3C
66
E7
C3
ENDCHAR
STARTCHAR 200
ENCODING 200
SWIDTH 792 0
DWIDTH 11 0
BBX 11 9 0 -1
BITMAP
E4E0
64C0
64C0
64C0
64C0
3F80
1F00
0400
0E00
ENDCHAR
STARTCHAR 201
ENCODING 201
SWIDTH 792 0
DWIDTH 11 0
BBX 9 8 1 0
BITMAP
6300
C180
C180
C980
C980
C980
7700
3600
ENDCHAR
STARTCHAR 202
ENCODING 202
SWIDTH 360 0
DWIDTH 5 0
BBX 5 11 0 0
BITMAP
A0
00
00
E0
60
60
60
60
60
38
18
ENDCHAR
STARTCHAR 203
ENCODING 203
SWIDTH 648 0
DWIDTH 9 0
BBX 9 11 0 0
BITMAP
6300
0000
0000
E380
6300
6300
6300
6300
6300
3E00
1C00
ENDCHAR
STARTCHAR 204
ENCODING 204
SWIDTH 576 0
DWIDTH 8 0
BBX 7 12 1 0
BITMAP
02
04
00
38
7C
C6
C6
C6
C6
C6
7C
38
ENDCHAR
STARTCHAR 205
ENCODING 205
SWIDTH 648 0
DWIDTH 9 0
BBX 9 11 0 0
BITMAP
0400
0800
0000
E380
6300
6300
6300
6300
6300
3E00
1C00
ENDCHAR
STARTCHAR 206
ENCODING 206
SWIDTH 792 0
DWIDTH 11 0
BBX 9 12 1 0
BITMAP
0400
0800
0000
0000
6300
C180
C180
C980
C980
C980
7700
3600
ENDCHAR
STARTCHAR 207
ENCODING 207
SWIDTH 504 0
DWIDTH 7 0
BBX 0 0 0 0
BITMAP
ENDCHAR
STARTCHAR 208
ENCODING 208
SWIDTH 936 0
DWIDTH 13 0
BBX 0 0 0 0
BITMAP
ENDCHAR
STARTCHAR 209
ENCODING 209
SWIDTH 936 0
DWIDTH 13 0
BBX 0 0 0 0
BITMAP
ENDCHAR
STARTCHAR 210
ENCODING 210
SWIDTH 936 0
DWIDTH 13 0
BBX 0 0 0 0
BITMAP
ENDCHAR
STARTCHAR 211
ENCODING 211
SWIDTH 936 0
DWIDTH 13 0
BBX 0 0 0 0
BITMAP
ENDCHAR
STARTCHAR 212
ENCODING 212
SWIDTH 936 0
DWIDTH 13 0
BBX 0 0 0 0
BITMAP
ENDCHAR
STARTCHAR 213
ENCODING 213
SWIDTH 936 0
DWIDTH 13 0
BBX 0 0 0 0
BITMAP
ENDCHAR
STARTCHAR 214
ENCODING 214
SWIDTH 936 0
DWIDTH 13 0
BBX 0 0 0 0
BITMAP
ENDCHAR
STARTCHAR 215
ENCODING 215
SWIDTH 720 0
DWIDTH 10 0
BBX 0 0 0 0
BITMAP
ENDCHAR
STARTCHAR 216
ENCODING 216
SWIDTH 936 0
DWIDTH 13 0
BBX 0 0 0 0
BITMAP
ENDCHAR
STARTCHAR 217
ENCODING 217
SWIDTH 936 0
DWIDTH 13 0
BBX 0 0 0 0
BITMAP
ENDCHAR
STARTCHAR 218
ENCODING 218
SWIDTH 936 0
DWIDTH 13 0
BBX 0 0 0 0
BITMAP
ENDCHAR
STARTCHAR 219
ENCODING 219
SWIDTH 936 0
DWIDTH 13 0
BBX 0 0 0 0
BITMAP
ENDCHAR
STARTCHAR 220
ENCODING 220
SWIDTH 936 0
DWIDTH 13 0
BBX 0 0 0 0
BITMAP
ENDCHAR
STARTCHAR 221
ENCODING 221
SWIDTH 864 0
DWIDTH 12 0
BBX 0 0 0 0
BITMAP
ENDCHAR
STARTCHAR 222
ENCODING 222
SWIDTH 792 0
DWIDTH 11 0
BBX 11 12 0 0
BITMAP
FC00
3000
3000
3F80
30C0
3060
3060
30C0
3F80
3000
3000
FC00
ENDCHAR
STARTCHAR 223
ENCODING 223
SWIDTH 720 0
DWIDTH 10 0
BBX 8 12 1 0
BITMAP
3C
66
63
63
66
7C
66
63
63
63
76
EC
ENDCHAR
STARTCHAR 224
ENCODING 224
SWIDTH 648 0
DWIDTH 9 0
BBX 7 12 1 0
BITMAP
40
60
10
00
78
CC
CC
1C
6C
CC
CC
76
ENDCHAR
STARTCHAR 225
ENCODING 225
SWIDTH 648 0
DWIDTH 9 0
BBX 7 12 1 0
BITMAP
04
0C
10
00
78
CC
CC
1C
6C
CC
CC
76
ENDCHAR
STARTCHAR 226
ENCODING 226
SWIDTH 648 0
DWIDTH 9 0
BBX 7 12 1 0
BITMAP
10
38
44
00
78
CC
CC
1C
6C
CC
CC
76
ENDCHAR
STARTCHAR 227
ENCODING 227
SWIDTH 648 0
DWIDTH 9 0
BBX 7 11 1 0
BITMAP
34
58
00
78
CC
CC
1C
6C
CC
CC
76
ENDCHAR
STARTCHAR 228
ENCODING 228
SWIDTH 648 0
DWIDTH 9 0
BBX 7 11 1 0
BITMAP
48
48
00
78
CC
CC
1C
6C
CC
CC
76
ENDCHAR
STARTCHAR 229
ENCODING 229
SWIDTH 648 0
DWIDTH 9 0
BBX 7 13 1 0
BITMAP
30
48
48
30
00
78
CC
CC
1C
6C
CC
CC
76
ENDCHAR
STARTCHAR 230
ENCODING 230
SWIDTH 936 0
DWIDTH 13 0
BBX 12 8 0 0
BITMAP
79C0
CE20
C630
1FF0
6600
C610
CF20
79C0
ENDCHAR
STARTCHAR 231
ENCODING 231
SWIDTH 504 0
DWIDTH 7 0
BBX 6 11 0 -3
BITMAP
38
6C
CC
C0
C0
C4
6C
38
20
10
60
ENDCHAR
STARTCHAR 232
ENCODING 232
SWIDTH 576 0
DWIDTH 8 0
BBX 7 12 0 0
BITMAP
20
30
08
00
38
44
C6
FE
C0
C0
66
3C
ENDCHAR
STARTCHAR 233
ENCODING 233
SWIDTH 576 0
DWIDTH 8 0
BBX 7 12 0 0
BITMAP
04
0C
10
00
38
44
C6
FE
C0
C0
66
3C
ENDCHAR
STARTCHAR 234
ENCODING 234
SWIDTH 576 0
DWIDTH 8 0
BBX 7 12 0 0
BITMAP
10
38
44
00
38
44
C6
FE
C0
C0
66
3C
ENDCHAR
STARTCHAR 235
ENCODING 235
SWIDTH 576 0
DWIDTH 8 0
BBX 7 11 0 0
BITMAP
24
24
00
38
44
C6
FE
C0
C0
66
3C
ENDCHAR
STARTCHAR 236
ENCODING 236
SWIDTH 360 0
DWIDTH 5 0
BBX 4 12 0 0
BITMAP
80
C0
20
00
E0
60
60
60
60
60
60
F0
ENDCHAR
STARTCHAR 237
ENCODING 237
SWIDTH 360 0
DWIDTH 5 0
BBX 4 12 0 0
BITMAP
10
30
40
00
E0
60
60
60
60
60
60
F0
ENDCHAR
STARTCHAR 238
ENCODING 238
SWIDTH 360 0
DWIDTH 5 0
BBX 4 12 0 0
BITMAP
40
E0
10
00
E0
60
60
60
60
60
60
F0
ENDCHAR
STARTCHAR 239
ENCODING 239
SWIDTH 360 0
DWIDTH 5 0
BBX 4 11 0 0
BITMAP
90
90
00
E0
60
60
60
60
60
60
F0
ENDCHAR
STARTCHAR 240
ENCODING 240
SWIDTH 576 0
DWIDTH 8 0
BBX 7 13 0 0
BITMAP
40
26
18
68
0C
3C
6E
C6
C6
C6
C6
6C
38
ENDCHAR
STARTCHAR 241
ENCODING 241
SWIDTH 720 0
DWIDTH 10 0
BBX 9 11 0 0
BITMAP
1A00
2C00
0000
EE00
7300
6300
6300
6300
6300
6300
F780
ENDCHAR
STARTCHAR 242
ENCODING 242
SWIDTH 576 0
DWIDTH 8 0
BBX 7 12 0 0
BITMAP
40
60
10
00
38
6C
C6
C6
C6
C6
6C
38
ENDCHAR
STARTCHAR 243
ENCODING 243
SWIDTH 576 0
DWIDTH 8 0
BBX 7 12 0 0
BITMAP
04
0C
10
00
38
6C
C6
C6
C6
C6
6C
38
ENDCHAR
STARTCHAR 244
ENCODING 244
SWIDTH 576 0
DWIDTH 8 0
BBX 7 12 0 0
BITMAP
10
38
44
00
38
6C
C6
C6
C6
C6
6C
38
ENDCHAR
STARTCHAR 245
ENCODING 245
SWIDTH 576 0
DWIDTH 8 0
BBX 7 11 0 0
BITMAP
34
58
00
38
6C
C6
C6
C6
C6
6C
38
ENDCHAR
STARTCHAR 246
ENCODING 246
SWIDTH 576 0
DWIDTH 8 0
BBX 7 11 0 0
BITMAP
48
48
00
38
6C
C6
C6
C6
C6
6C
38
ENDCHAR
STARTCHAR 247
ENCODING 247
SWIDTH 720 0
DWIDTH 10 0
BBX 8 7 1 1
BITMAP
18
18
00
FF
00
18
18
ENDCHAR
STARTCHAR 248
ENCODING 248
SWIDTH 576 0
DWIDTH 8 0
BBX 7 10 0 -1
BITMAP
02
3C
64
CE
D6
D6
E6
4C
78
80
ENDCHAR
STARTCHAR 249
ENCODING 249
SWIDTH 720 0
DWIDTH 10 0
BBX 9 12 0 0
BITMAP
2000
3000
0800
0000
E700
6300
6300
6300
6300
6300
6300
3D80
ENDCHAR
STARTCHAR 250
ENCODING 250
SWIDTH 720 0
DWIDTH 10 0
BBX 9 12 0 0
BITMAP
0200
0600
0800
0000
E700
6300
6300
6300
6300
6300
6300
3D80
ENDCHAR
STARTCHAR 251
ENCODING 251
SWIDTH 720 0
DWIDTH 10 0
BBX 9 12 0 0
BITMAP
0800
1C00
2200
0000
E700
6300
6300
6300
6300
6300
6300
3D80
ENDCHAR
STARTCHAR 252
ENCODING 252
SWIDTH 720 0
DWIDTH 10 0
BBX 9 11 0 0
BITMAP
2400
2400
0000
E700
6300
6300
6300
6300
6300
6300
3D80
ENDCHAR
STARTCHAR 253
ENCODING 253
SWIDTH 648 0
DWIDTH 9 0
BBX 8 15 0 -3
BITMAP
02
06
08
00
F7
62
36
34
1C
18
08
18
10
D0
E0
ENDCHAR
STARTCHAR 254
ENCODING 254
SWIDTH 648 0
DWIDTH 9 0
BBX 8 14 0 -3
BITMAP
E0
60
60
7C
66
63
63
63
63
66
7C
60
60
F0
ENDCHAR
STARTCHAR 255
ENCODING 255
SWIDTH 648 0
DWIDTH 9 0
BBX 8 14 0 -3
BITMAP
24
24
00
F7
62
36
34
1C
18
08
18
10
D0
E0
ENDCHAR
ENDFONT
